<svg width="360" height="420" viewBox="0 0 360 420" fill="none" xmlns="http://www.w3.org/2000/svg">
<g clip-path="url(#clip0_8017_24452)">
<path d="M0 0H360V408C360 414.627 354.627 420 348 420H12C5.37259 420 0 414.627 0 408V0Z" fill="#A5DAFC"/>
<path d="M46 331.516C35.2 331.116 1.83333 348.016 -13.5 356.516V438.016H382.5C387.5 400.682 390 325.816 360 325.016C330 324.216 314.167 354.349 310 369.516C288.167 378.516 241.2 393.616 228 382.016C211.5 367.516 164.5 345.016 152 356.516C139.5 368.015 107 356.516 91.5 356.516C76 356.516 59.5 332.016 46 331.516Z" fill="#33F548"/>
<path opacity="0.5" d="M-75.2437 -768.364L814.054 -376.194L927.086 -135.421L-139.841 -697.646L-158.911 -659.376L1101.01 160.206L1148.95 396.579L860.364 496.344L-198.199 -329.714L-212.818 -226.739L694.937 638.648L596.35 648.775L-233.304 -187.707L-281.115 -118.448L409.915 779.811L226.622 805.417L-34.7957 571.973L-395.771 -148.866L-271.953 -704.929L-75.2437 -768.364Z" fill="url(#paint0_radial_8017_24452)" style="mix-blend-mode:overlay"/>
<path d="M-14.5 339.001C-62.1 348.601 -39.0002 368.834 -43.0002 372.5V500.5H328L368.5 422L416 372.5L389.5 316C360.5 372.5 226 379.5 193 379.5C45.9998 379.5 45 327.001 -14.5 339.001Z" fill="#09DE20"/>
<path d="M411.263 150.658L247.245 145.707L284.039 134.859C285.891 132.011 288.533 129.754 291.651 128.356C294.77 126.958 298.234 126.477 301.632 126.97C301.632 126.97 305.9 110.864 325.287 115.241C325.287 115.241 331.434 92.217 354.758 94.5455C360.973 94.9153 366.807 97.6885 370.999 102.266C375.191 106.844 377.405 112.858 377.162 119.01C377.162 119.01 391.38 116.43 391.436 128.787C392.825 129.13 394.127 129.763 395.252 130.643C396.377 131.524 397.3 132.632 397.959 133.892C398.617 135.152 398.997 136.535 399.071 137.949C399.145 139.363 398.912 140.774 398.388 142.087L411.263 150.658Z" fill="white"/>
<path d="M270.123 143.678L402.372 148.058L392.277 140.395C392.277 140.395 394.845 133.776 386.593 131.042C385.868 127.732 383.866 124.825 381.016 122.94C378.165 121.056 374.69 120.343 371.331 120.953C371.331 120.953 373.912 104.422 352.667 101.862C331.423 99.3022 328.295 119.865 328.295 119.865C328.295 119.865 313.041 117.792 307.539 131.265C304.391 130.529 301.087 130.901 298.199 132.317C295.312 133.734 293.02 136.107 291.72 139.026L270.123 143.678Z" fill="#F1F2F2"/>
<path d="M-43.6571 247.643L88.2996 243.66L58.6979 234.932C57.2081 232.641 55.0826 230.826 52.5736 229.701C50.0647 228.576 47.2779 228.188 44.5437 228.585C44.5437 228.585 41.1103 215.628 25.5129 219.149C25.5129 219.149 20.5671 200.626 1.80238 202.499C-3.19783 202.797 -7.89112 205.028 -11.2636 208.71C-14.6361 212.393 -16.4172 217.232 -16.2219 222.181C-16.2219 222.181 -27.6609 220.106 -27.7056 230.047C-28.8237 230.323 -29.8706 230.832 -30.7759 231.541C-31.6811 232.249 -32.4237 233.14 -32.9536 234.154C-33.4836 235.168 -33.7886 236.281 -33.8482 237.418C-33.9077 238.556 -33.7205 239.691 -33.299 240.748L-43.6571 247.643Z" fill="white"/>
<path d="M69.8942 242.027L-36.5038 245.551L-28.3827 239.386C-28.3827 239.386 -30.4483 234.061 -23.8092 231.862C-23.2259 229.198 -21.616 226.86 -19.3224 225.343C-17.0288 223.827 -14.2329 223.254 -11.5305 223.745C-11.5305 223.745 -13.6073 210.445 3.48456 208.385C20.5764 206.326 23.093 222.869 23.093 222.869C23.093 222.869 35.365 221.202 39.7912 232.041C42.3246 231.448 44.9821 231.748 47.3055 232.888C49.6289 234.027 51.4724 235.936 52.5181 238.285L69.8942 242.027Z" fill="#F1F2F2"/>
<path d="M310 405.5L134 424H373V392H317.5C303.5 392 306.667 401 310 405.5Z" fill="#00AA13"/>
<path d="M29.5 395C43.5 395 53.3333 401 50 405.5C50 405.5 95.979 397.462 129 409C148.892 415.95 186.5 435.5 186.5 435.5L-13 424L-10 409C2.66667 409 15.5 395 29.5 395Z" fill="#00AA13"/>
<path d="M54 383L49.5 386.5L50.5 381.5L47.5 378L55 379L57.5 377L61.5 381.5L64 380V384L69.5 381.5V386.5L64 388.5L59.5 390L57.5 383L54 388.5V383Z" fill="#00AA13"/>
<path d="M146.455 406.769L148.909 404.885L148.364 407.577L150 409.462L145.909 408.923L144.545 410L142.364 407.577L141 408.385V406.231L138 407.577V404.885L141 403.808L143.455 403L144.545 406.769L146.455 403.808V406.769Z" fill="#00AA13"/>
<path d="M173.604 382.905L174.337 379.584L175.743 382.73L178.399 383.842L174.638 385.48L174.252 387.356L170.773 385.968L170.2 387.56L168.774 385.37L168.613 385.477L167.158 388.324L166.841 386.656L168.613 385.477L168.714 385.279L168.774 385.37L169.158 385.115L168.518 380.533L172.023 383.935L171.561 379.769L173.604 382.905Z" fill="#00AA13"/>
<path d="M352.5 370L348 366.5L349 371.5L346 375L353.5 374L356 376L360 371.5L362.5 373V369L368 371.5V366.5L362.5 364.5L358 363L356 370L352.5 364.5V370Z" fill="#00AA13"/>
<path d="M280.5 391L285 394.5L284 389.5L287 386L279.5 387L277 385L273 389.5L270.5 388V392H266.5L269 393.5V398L271.5 394.5V399.5L274.5 392L276 395.5L278 393.5L280.5 396.5V391Z" fill="#00AA13"/>
<path d="M199.624 335.146C201.883 333.06 199.103 329.93 196.844 332.017C192.5 335.841 188.156 339.666 184.681 344.186L182.596 289.597H179.121L177.905 321.064C174.256 314.632 169.043 309.59 164.178 304.027C162.44 302.115 159.486 304.722 161.224 306.635C163.309 309.068 167.479 313.762 171.475 319.499C175.646 325.41 177.557 332.538 177.383 339.666L175.819 380.694C171.997 380.694 168.869 383.824 168.869 387.648H193.022C193.022 383.824 189.894 380.694 186.071 380.694L185.202 357.225C185.029 353.574 186.071 349.923 188.156 346.794C191.284 342.969 195.454 338.971 199.624 335.146Z" fill="#8A5530"/>
<path d="M217 312.024C210.05 310.459 200.493 314.979 195.628 320.369C190.763 325.932 191.805 330.974 194.064 337.58C201.014 339.145 206.053 339.666 211.092 334.103C215.784 328.887 219.259 318.804 217 312.024Z" fill="#B0B43D"/>
<path d="M217 312.024L194.064 337.58C201.015 339.144 206.054 339.666 211.093 334.103C215.784 328.887 219.259 318.804 217 312.024Z" fill="#6C8336"/>
<path d="M205.88 289.076C198.929 287.511 189.373 292.031 184.507 297.421C179.642 302.984 180.685 308.025 182.944 314.632C189.894 316.196 194.933 316.718 199.972 311.155C204.663 305.765 208.139 295.682 205.88 289.076Z" fill="#B0B43D"/>
<path d="M205.88 289.076L182.944 314.631C189.894 316.196 194.933 316.718 199.972 311.155C204.663 305.765 208.139 295.682 205.88 289.076Z" fill="#6C8336"/>
<path d="M143.501 286.468C150.277 284.556 160.181 288.381 165.394 293.596C170.607 298.811 169.912 303.853 168.001 310.633C161.224 312.546 156.011 313.415 150.798 308.199C145.412 303.158 141.589 293.248 143.501 286.468Z" fill="#B0B43D"/>
<path d="M143.501 286.468L167.827 310.807C161.05 312.719 155.837 313.588 150.625 308.373C145.412 303.158 141.589 293.248 143.501 286.468Z" fill="#6C8336"/>
<path d="M153.752 326.106C160.529 324.194 170.433 328.018 175.646 333.234C180.859 338.449 180.164 343.491 178.252 350.271C171.476 352.183 166.263 353.052 161.05 347.837C155.837 342.622 151.841 332.886 153.752 326.106Z" fill="#B0B43D"/>
<path d="M153.752 326.106L178.079 350.445C171.302 352.357 166.089 353.226 160.876 348.011C155.837 342.621 151.841 332.886 153.752 326.106Z" fill="#6C8336"/>
<path d="M180.858 259C174.777 262.477 170.606 272.213 170.606 279.514C170.606 286.816 174.777 289.945 180.858 293.422C186.94 289.945 191.11 286.816 191.11 279.514C191.284 272.213 187.114 262.477 180.858 259Z" fill="#B0B43D"/>
<path d="M180.858 259V293.422C186.94 289.945 191.11 286.816 191.11 279.514C191.284 272.213 187.114 262.477 180.858 259Z" fill="#6C8336"/>
<path d="M166.375 389.654L167.748 384.798L169.714 381.427L169.77 385.713L171.616 384.113L171.793 386.627L175.067 384.457L174.112 388.285L170.54 389.712L166.375 389.654Z" fill="#09DE20"/>
<path d="M193.53 390.01L193.468 384.754L192.603 381.212L191.63 385.983L190.48 384.399L189.792 387.213L187.606 385.144L187.552 389.3L190.14 390.512L193.53 390.01Z" fill="#09DE20"/>
<g filter="url(#filter0_dd_8017_24452)">
<rect x="57" y="203" width="246" height="34" rx="12" fill="white"/>
<path d="M76.9272 224V215.273H78.5082V219.283H78.6147L82.0195 215.273H83.9499L80.5749 219.189L83.9798 224H82.0792L79.4755 220.259L78.5082 221.401V224H76.9272ZM86.8636 224.132C86.4489 224.132 86.0753 224.058 85.7429 223.911C85.4134 223.76 85.152 223.538 84.9588 223.246C84.7685 222.953 84.6733 222.592 84.6733 222.163C84.6733 221.794 84.7415 221.489 84.8778 221.247C85.0142 221.006 85.2003 220.812 85.4361 220.668C85.6719 220.523 85.9375 220.413 86.233 220.339C86.5313 220.263 86.8395 220.207 87.1577 220.173C87.5412 220.134 87.8523 220.098 88.0909 220.067C88.3295 220.033 88.5028 219.982 88.6108 219.913C88.7216 219.842 88.777 219.733 88.777 219.585V219.56C88.777 219.239 88.6818 218.99 88.4915 218.814C88.3011 218.638 88.027 218.55 87.669 218.55C87.2912 218.55 86.9915 218.632 86.7699 218.797C86.5511 218.962 86.4034 219.156 86.3267 219.381L84.8864 219.176C85 218.778 85.1875 218.446 85.4489 218.179C85.7102 217.909 86.0298 217.707 86.4077 217.574C86.7855 217.438 87.2031 217.369 87.6605 217.369C87.9759 217.369 88.2898 217.406 88.6023 217.48C88.9148 217.554 89.2003 217.676 89.4588 217.847C89.7173 218.014 89.9247 218.243 90.081 218.533C90.2401 218.822 90.3196 219.185 90.3196 219.619V224H88.8366V223.101H88.7855C88.6918 223.283 88.5597 223.453 88.3892 223.612C88.2216 223.768 88.0099 223.895 87.7543 223.991C87.5014 224.085 87.2045 224.132 86.8636 224.132ZM87.2642 222.999C87.5739 222.999 87.8423 222.937 88.0696 222.815C88.2969 222.69 88.4716 222.526 88.5938 222.321C88.7188 222.116 88.7812 221.893 88.7812 221.652V220.881C88.733 220.92 88.6506 220.957 88.5341 220.991C88.4205 221.026 88.2926 221.055 88.1506 221.081C88.0085 221.107 87.8679 221.129 87.7287 221.149C87.5895 221.169 87.4688 221.186 87.3665 221.2C87.1364 221.232 86.9304 221.283 86.7486 221.354C86.5668 221.425 86.4233 221.524 86.3182 221.652C86.2131 221.777 86.1605 221.939 86.1605 222.138C86.1605 222.422 86.2642 222.636 86.4716 222.781C86.679 222.926 86.9432 222.999 87.2642 222.999ZM91.8707 224V217.455H93.3452V218.567H93.4219C93.5582 218.192 93.7841 217.899 94.0994 217.689C94.4148 217.476 94.7912 217.369 95.2287 217.369C95.6719 217.369 96.0455 217.477 96.3494 217.693C96.6563 217.906 96.8722 218.197 96.9972 218.567H97.0653C97.2102 218.203 97.4545 217.913 97.7983 217.697C98.1449 217.479 98.5554 217.369 99.0298 217.369C99.6321 217.369 100.124 217.56 100.504 217.94C100.885 218.321 101.075 218.876 101.075 219.607V224H99.5284V219.845C99.5284 219.439 99.4205 219.142 99.2045 218.955C98.9886 218.764 98.7244 218.669 98.4119 218.669C98.0398 218.669 97.7486 218.786 97.5384 219.018C97.331 219.249 97.2273 219.548 97.2273 219.918V224H95.7145V219.781C95.7145 219.443 95.6122 219.173 95.4077 218.972C95.206 218.77 94.9418 218.669 94.6151 218.669C94.3935 218.669 94.1918 218.726 94.0099 218.839C93.8281 218.95 93.6832 219.108 93.5753 219.312C93.4673 219.514 93.4134 219.75 93.4134 220.02V224H91.8707ZM106.812 221.247V217.455H108.355V224H106.859V222.837H106.791C106.643 223.203 106.4 223.503 106.062 223.736C105.727 223.969 105.314 224.085 104.822 224.085C104.393 224.085 104.014 223.99 103.684 223.8C103.358 223.607 103.102 223.327 102.917 222.96C102.733 222.591 102.64 222.145 102.64 221.622V217.455H104.183V221.384C104.183 221.798 104.297 222.128 104.524 222.372C104.751 222.616 105.049 222.739 105.419 222.739C105.646 222.739 105.866 222.683 106.079 222.572C106.292 222.462 106.467 222.297 106.603 222.078C106.743 221.857 106.812 221.58 106.812 221.247ZM118.091 219.185L116.685 219.338C116.645 219.196 116.575 219.062 116.476 218.938C116.379 218.812 116.249 218.712 116.084 218.635C115.919 218.558 115.717 218.52 115.479 218.52C115.158 218.52 114.888 218.589 114.669 218.729C114.453 218.868 114.347 219.048 114.349 219.27C114.347 219.46 114.416 219.615 114.558 219.734C114.703 219.854 114.942 219.952 115.274 220.028L116.391 220.267C117.01 220.401 117.47 220.612 117.771 220.902C118.075 221.192 118.229 221.571 118.232 222.04C118.229 222.452 118.108 222.815 117.869 223.131C117.634 223.443 117.305 223.687 116.885 223.864C116.464 224.04 115.982 224.128 115.436 224.128C114.635 224.128 113.99 223.96 113.501 223.625C113.013 223.287 112.722 222.817 112.628 222.214L114.132 222.07C114.2 222.365 114.345 222.588 114.567 222.739C114.788 222.889 115.077 222.964 115.432 222.964C115.798 222.964 116.092 222.889 116.314 222.739C116.538 222.588 116.651 222.402 116.651 222.18C116.651 221.993 116.578 221.838 116.433 221.716C116.291 221.594 116.07 221.5 115.768 221.435L114.652 221.2C114.024 221.07 113.56 220.849 113.259 220.54C112.957 220.227 112.808 219.832 112.811 219.355C112.808 218.952 112.918 218.602 113.139 218.307C113.364 218.009 113.675 217.778 114.072 217.616C114.473 217.452 114.935 217.369 115.457 217.369C116.224 217.369 116.828 217.533 117.268 217.859C117.712 218.186 117.986 218.628 118.091 219.185ZM123.675 221.247V217.455H125.218V224H123.722V222.837H123.654C123.506 223.203 123.263 223.503 122.925 223.736C122.59 223.969 122.177 224.085 121.685 224.085C121.256 224.085 120.877 223.99 120.548 223.8C120.221 223.607 119.965 223.327 119.781 222.96C119.596 222.591 119.504 222.145 119.504 221.622V217.455H121.046V221.384C121.046 221.798 121.16 222.128 121.387 222.372C121.614 222.616 121.913 222.739 122.282 222.739C122.509 222.739 122.729 222.683 122.942 222.572C123.156 222.462 123.33 222.297 123.467 222.078C123.606 221.857 123.675 221.58 123.675 221.247ZM129.233 224.115C128.719 224.115 128.259 223.983 127.853 223.719C127.446 223.455 127.125 223.071 126.89 222.568C126.654 222.065 126.536 221.455 126.536 220.736C126.536 220.009 126.655 219.395 126.894 218.895C127.135 218.392 127.461 218.013 127.87 217.757C128.279 217.499 128.735 217.369 129.238 217.369C129.621 217.369 129.936 217.435 130.184 217.565C130.431 217.693 130.627 217.848 130.772 218.03C130.917 218.209 131.029 218.378 131.108 218.537H131.172V215.273H132.719V224H131.202V222.969H131.108C131.029 223.128 130.914 223.297 130.763 223.476C130.613 223.652 130.414 223.803 130.167 223.928C129.919 224.053 129.608 224.115 129.233 224.115ZM129.664 222.849C129.99 222.849 130.269 222.761 130.499 222.585C130.729 222.406 130.904 222.158 131.023 221.839C131.142 221.521 131.202 221.151 131.202 220.727C131.202 220.304 131.142 219.936 131.023 219.624C130.907 219.311 130.733 219.068 130.503 218.895C130.276 218.722 129.996 218.635 129.664 218.635C129.32 218.635 129.033 218.724 128.803 218.903C128.573 219.082 128.4 219.33 128.283 219.645C128.167 219.96 128.108 220.321 128.108 220.727C128.108 221.136 128.167 221.501 128.283 221.822C128.402 222.141 128.577 222.392 128.807 222.577C129.04 222.759 129.326 222.849 129.664 222.849ZM136.246 224.132C135.832 224.132 135.458 224.058 135.126 223.911C134.796 223.76 134.535 223.538 134.342 223.246C134.151 222.953 134.056 222.592 134.056 222.163C134.056 221.794 134.124 221.489 134.261 221.247C134.397 221.006 134.583 220.812 134.819 220.668C135.055 220.523 135.32 220.413 135.616 220.339C135.914 220.263 136.222 220.207 136.54 220.173C136.924 220.134 137.235 220.098 137.474 220.067C137.712 220.033 137.886 219.982 137.994 219.913C138.104 219.842 138.16 219.733 138.16 219.585V219.56C138.16 219.239 138.065 218.99 137.874 218.814C137.684 218.638 137.41 218.55 137.052 218.55C136.674 218.55 136.374 218.632 136.153 218.797C135.934 218.962 135.786 219.156 135.71 219.381L134.269 219.176C134.383 218.778 134.57 218.446 134.832 218.179C135.093 217.909 135.413 217.707 135.79 217.574C136.168 217.438 136.586 217.369 137.043 217.369C137.359 217.369 137.673 217.406 137.985 217.48C138.298 217.554 138.583 217.676 138.842 217.847C139.1 218.014 139.308 218.243 139.464 218.533C139.623 218.822 139.702 219.185 139.702 219.619V224H138.219V223.101H138.168C138.075 223.283 137.942 223.453 137.772 223.612C137.604 223.768 137.393 223.895 137.137 223.991C136.884 224.085 136.587 224.132 136.246 224.132ZM136.647 222.999C136.957 222.999 137.225 222.937 137.452 222.815C137.68 222.69 137.854 222.526 137.977 222.321C138.102 222.116 138.164 221.893 138.164 221.652V220.881C138.116 220.92 138.033 220.957 137.917 220.991C137.803 221.026 137.675 221.055 137.533 221.081C137.391 221.107 137.251 221.129 137.112 221.149C136.972 221.169 136.852 221.186 136.749 221.2C136.519 221.232 136.313 221.283 136.131 221.354C135.95 221.425 135.806 221.524 135.701 221.652C135.596 221.777 135.543 221.939 135.543 222.138C135.543 222.422 135.647 222.636 135.854 222.781C136.062 222.926 136.326 222.999 136.647 222.999ZM142.796 220.165V224H141.254V215.273H142.762V218.567H142.839C142.992 218.197 143.229 217.906 143.55 217.693C143.874 217.477 144.286 217.369 144.786 217.369C145.241 217.369 145.637 217.464 145.975 217.655C146.313 217.845 146.575 218.124 146.759 218.49C146.947 218.857 147.04 219.304 147.04 219.832V224H145.498V220.071C145.498 219.631 145.384 219.288 145.157 219.044C144.933 218.797 144.617 218.673 144.211 218.673C143.938 218.673 143.694 218.733 143.478 218.852C143.265 218.969 143.097 219.138 142.975 219.359C142.856 219.581 142.796 219.849 142.796 220.165ZM156.763 219.185L155.357 219.338C155.317 219.196 155.247 219.062 155.148 218.938C155.051 218.812 154.92 218.712 154.756 218.635C154.591 218.558 154.389 218.52 154.151 218.52C153.83 218.52 153.56 218.589 153.341 218.729C153.125 218.868 153.018 219.048 153.021 219.27C153.018 219.46 153.088 219.615 153.23 219.734C153.375 219.854 153.614 219.952 153.946 220.028L155.062 220.267C155.682 220.401 156.142 220.612 156.443 220.902C156.747 221.192 156.901 221.571 156.903 222.04C156.901 222.452 156.78 222.815 156.541 223.131C156.305 223.443 155.977 223.687 155.557 223.864C155.136 224.04 154.653 224.128 154.108 224.128C153.307 224.128 152.662 223.96 152.173 223.625C151.685 223.287 151.393 222.817 151.3 222.214L152.804 222.07C152.872 222.365 153.017 222.588 153.239 222.739C153.46 222.889 153.749 222.964 154.104 222.964C154.47 222.964 154.764 222.889 154.986 222.739C155.21 222.588 155.322 222.402 155.322 222.18C155.322 221.993 155.25 221.838 155.105 221.716C154.963 221.594 154.741 221.5 154.44 221.435L153.324 221.2C152.696 221.07 152.232 220.849 151.93 220.54C151.629 220.227 151.48 219.832 151.483 219.355C151.48 218.952 151.589 218.602 151.811 218.307C152.036 218.009 152.347 217.778 152.744 217.616C153.145 217.452 153.607 217.369 154.129 217.369C154.896 217.369 155.5 217.533 155.94 217.859C156.384 218.186 156.658 218.628 156.763 219.185ZM160.059 224.132C159.644 224.132 159.271 224.058 158.938 223.911C158.609 223.76 158.347 223.538 158.154 223.246C157.964 222.953 157.869 222.592 157.869 222.163C157.869 221.794 157.937 221.489 158.073 221.247C158.21 221.006 158.396 220.812 158.631 220.668C158.867 220.523 159.133 220.413 159.428 220.339C159.727 220.263 160.035 220.207 160.353 220.173C160.737 220.134 161.048 220.098 161.286 220.067C161.525 220.033 161.698 219.982 161.806 219.913C161.917 219.842 161.972 219.733 161.972 219.585V219.56C161.972 219.239 161.877 218.99 161.687 218.814C161.496 218.638 161.222 218.55 160.864 218.55C160.487 218.55 160.187 218.632 159.965 218.797C159.746 218.962 159.599 219.156 159.522 219.381L158.082 219.176C158.195 218.778 158.383 218.446 158.644 218.179C158.906 217.909 159.225 217.707 159.603 217.574C159.981 217.438 160.398 217.369 160.856 217.369C161.171 217.369 161.485 217.406 161.798 217.48C162.11 217.554 162.396 217.676 162.654 217.847C162.913 218.014 163.12 218.243 163.276 218.533C163.435 218.822 163.515 219.185 163.515 219.619V224H162.032V223.101H161.981C161.887 223.283 161.755 223.453 161.585 223.612C161.417 223.768 161.205 223.895 160.95 223.991C160.697 224.085 160.4 224.132 160.059 224.132ZM160.46 222.999C160.769 222.999 161.038 222.937 161.265 222.815C161.492 222.69 161.667 222.526 161.789 222.321C161.914 222.116 161.977 221.893 161.977 221.652V220.881C161.928 220.92 161.846 220.957 161.729 220.991C161.616 221.026 161.488 221.055 161.346 221.081C161.204 221.107 161.063 221.129 160.924 221.149C160.785 221.169 160.664 221.186 160.562 221.2C160.332 221.232 160.126 221.283 159.944 221.354C159.762 221.425 159.619 221.524 159.513 221.652C159.408 221.777 159.356 221.939 159.356 222.138C159.356 222.422 159.46 222.636 159.667 222.781C159.874 222.926 160.138 222.999 160.46 222.999ZM165.066 224V217.455H166.54V218.567H166.617C166.754 218.192 166.979 217.899 167.295 217.689C167.61 217.476 167.987 217.369 168.424 217.369C168.867 217.369 169.241 217.477 169.545 217.693C169.852 217.906 170.067 218.197 170.192 218.567H170.261C170.406 218.203 170.65 217.913 170.994 217.697C171.34 217.479 171.751 217.369 172.225 217.369C172.827 217.369 173.319 217.56 173.7 217.94C174.08 218.321 174.271 218.876 174.271 219.607V224H172.724V219.845C172.724 219.439 172.616 219.142 172.4 218.955C172.184 218.764 171.92 218.669 171.607 218.669C171.235 218.669 170.944 218.786 170.734 219.018C170.526 219.249 170.423 219.548 170.423 219.918V224H168.91V219.781C168.91 219.443 168.808 219.173 168.603 218.972C168.401 218.77 168.137 218.669 167.81 218.669C167.589 218.669 167.387 218.726 167.205 218.839C167.023 218.95 166.879 219.108 166.771 219.312C166.663 219.514 166.609 219.75 166.609 220.02V224H165.066ZM175.836 226.455V217.455H177.353V218.537H177.442C177.522 218.378 177.634 218.209 177.779 218.03C177.924 217.848 178.12 217.693 178.367 217.565C178.614 217.435 178.929 217.369 179.313 217.369C179.819 217.369 180.275 217.499 180.681 217.757C181.09 218.013 181.414 218.392 181.652 218.895C181.894 219.395 182.015 220.009 182.015 220.736C182.015 221.455 181.897 222.065 181.661 222.568C181.425 223.071 181.104 223.455 180.698 223.719C180.292 223.983 179.831 224.115 179.317 224.115C178.942 224.115 178.631 224.053 178.384 223.928C178.137 223.803 177.938 223.652 177.787 223.476C177.64 223.297 177.525 223.128 177.442 222.969H177.378V226.455H175.836ZM177.348 220.727C177.348 221.151 177.408 221.521 177.527 221.839C177.65 222.158 177.824 222.406 178.051 222.585C178.282 222.761 178.56 222.849 178.887 222.849C179.228 222.849 179.513 222.759 179.743 222.577C179.973 222.392 180.147 222.141 180.263 221.822C180.382 221.501 180.442 221.136 180.442 220.727C180.442 220.321 180.384 219.96 180.267 219.645C180.151 219.33 179.978 219.082 179.748 218.903C179.517 218.724 179.23 218.635 178.887 218.635C178.557 218.635 178.277 218.722 178.047 218.895C177.817 219.068 177.642 219.311 177.523 219.624C177.407 219.936 177.348 220.304 177.348 220.727ZM185.219 224.132C184.804 224.132 184.431 224.058 184.098 223.911C183.769 223.76 183.507 223.538 183.314 223.246C183.124 222.953 183.029 222.592 183.029 222.163C183.029 221.794 183.097 221.489 183.233 221.247C183.37 221.006 183.556 220.812 183.792 220.668C184.027 220.523 184.293 220.413 184.588 220.339C184.887 220.263 185.195 220.207 185.513 220.173C185.897 220.134 186.208 220.098 186.446 220.067C186.685 220.033 186.858 219.982 186.966 219.913C187.077 219.842 187.132 219.733 187.132 219.585V219.56C187.132 219.239 187.037 218.99 186.847 218.814C186.657 218.638 186.382 218.55 186.025 218.55C185.647 218.55 185.347 218.632 185.125 218.797C184.907 218.962 184.759 219.156 184.682 219.381L183.242 219.176C183.355 218.778 183.543 218.446 183.804 218.179C184.066 217.909 184.385 217.707 184.763 217.574C185.141 217.438 185.559 217.369 186.016 217.369C186.331 217.369 186.645 217.406 186.958 217.48C187.27 217.554 187.556 217.676 187.814 217.847C188.073 218.014 188.28 218.243 188.436 218.533C188.596 218.822 188.675 219.185 188.675 219.619V224H187.192V223.101H187.141C187.047 223.283 186.915 223.453 186.745 223.612C186.577 223.768 186.365 223.895 186.11 223.991C185.857 224.085 185.56 224.132 185.219 224.132ZM185.62 222.999C185.929 222.999 186.198 222.937 186.425 222.815C186.652 222.69 186.827 222.526 186.949 222.321C187.074 222.116 187.137 221.893 187.137 221.652V220.881C187.088 220.92 187.006 220.957 186.89 220.991C186.776 221.026 186.648 221.055 186.506 221.081C186.364 221.107 186.223 221.129 186.084 221.149C185.945 221.169 185.824 221.186 185.722 221.2C185.492 221.232 185.286 221.283 185.104 221.354C184.922 221.425 184.779 221.524 184.674 221.652C184.569 221.777 184.516 221.939 184.516 222.138C184.516 222.422 184.62 222.636 184.827 222.781C185.034 222.926 185.299 222.999 185.62 222.999ZM190.226 224V217.455H191.769V224H190.226ZM191.002 216.526C190.757 216.526 190.547 216.445 190.371 216.283C190.195 216.118 190.107 215.92 190.107 215.69C190.107 215.457 190.195 215.26 190.371 215.098C190.547 214.933 190.757 214.851 191.002 214.851C191.249 214.851 191.459 214.933 191.632 215.098C191.809 215.26 191.897 215.457 191.897 215.69C191.897 215.92 191.809 216.118 191.632 216.283C191.459 216.445 191.249 216.526 191.002 216.526ZM201.505 219.185L200.099 219.338C200.059 219.196 199.989 219.062 199.89 218.938C199.793 218.812 199.663 218.712 199.498 218.635C199.333 218.558 199.131 218.52 198.893 218.52C198.572 218.52 198.302 218.589 198.083 218.729C197.867 218.868 197.761 219.048 197.763 219.27C197.761 219.46 197.83 219.615 197.972 219.734C198.117 219.854 198.356 219.952 198.688 220.028L199.805 220.267C200.424 220.401 200.884 220.612 201.185 220.902C201.489 221.192 201.643 221.571 201.646 222.04C201.643 222.452 201.522 222.815 201.283 223.131C201.048 223.443 200.719 223.687 200.299 223.864C199.879 224.04 199.396 224.128 198.85 224.128C198.049 224.128 197.404 223.96 196.915 223.625C196.427 223.287 196.136 222.817 196.042 222.214L197.546 222.07C197.614 222.365 197.759 222.588 197.981 222.739C198.202 222.889 198.491 222.964 198.846 222.964C199.212 222.964 199.506 222.889 199.728 222.739C199.952 222.588 200.065 222.402 200.065 222.18C200.065 221.993 199.992 221.838 199.847 221.716C199.705 221.594 199.484 221.5 199.183 221.435L198.066 221.2C197.438 221.07 196.974 220.849 196.673 220.54C196.371 220.227 196.222 219.832 196.225 219.355C196.222 218.952 196.332 218.602 196.553 218.307C196.778 218.009 197.089 217.778 197.487 217.616C197.887 217.452 198.349 217.369 198.871 217.369C199.638 217.369 200.242 217.533 200.683 217.859C201.126 218.186 201.4 218.628 201.505 219.185ZM205.815 224.128C205.159 224.128 204.592 223.991 204.115 223.719C203.641 223.443 203.276 223.054 203.02 222.551C202.764 222.045 202.636 221.45 202.636 220.766C202.636 220.092 202.764 219.501 203.02 218.993C203.278 218.482 203.639 218.084 204.102 217.8C204.565 217.513 205.109 217.369 205.734 217.369C206.138 217.369 206.518 217.435 206.876 217.565C207.237 217.693 207.555 217.892 207.831 218.162C208.109 218.432 208.328 218.776 208.487 219.193C208.646 219.608 208.726 220.102 208.726 220.676V221.149H203.361V220.109H207.247C207.244 219.814 207.18 219.551 207.055 219.321C206.93 219.088 206.756 218.905 206.531 218.771C206.31 218.638 206.051 218.571 205.756 218.571C205.44 218.571 205.163 218.648 204.925 218.801C204.686 218.952 204.5 219.151 204.366 219.398C204.236 219.642 204.169 219.911 204.166 220.203V221.111C204.166 221.491 204.236 221.818 204.375 222.091C204.514 222.361 204.709 222.568 204.959 222.713C205.209 222.855 205.501 222.926 205.837 222.926C206.061 222.926 206.264 222.895 206.446 222.832C206.628 222.767 206.786 222.672 206.919 222.547C207.053 222.422 207.153 222.267 207.222 222.082L208.662 222.244C208.571 222.625 208.398 222.957 208.142 223.241C207.889 223.523 207.565 223.741 207.17 223.898C206.776 224.051 206.324 224.128 205.815 224.128ZM213.299 217.455V218.648H209.537V217.455H213.299ZM210.466 215.886H212.008V222.031C212.008 222.239 212.039 222.398 212.102 222.509C212.167 222.616 212.252 222.69 212.358 222.73C212.463 222.77 212.579 222.79 212.707 222.79C212.804 222.79 212.892 222.783 212.971 222.768C213.054 222.754 213.116 222.741 213.159 222.73L213.419 223.936C213.336 223.964 213.218 223.996 213.065 224.03C212.914 224.064 212.73 224.084 212.511 224.089C212.125 224.101 211.777 224.043 211.467 223.915C211.157 223.784 210.912 223.582 210.73 223.31C210.551 223.037 210.463 222.696 210.466 222.287V215.886ZM217.417 224.128C216.761 224.128 216.194 223.991 215.717 223.719C215.242 223.443 214.877 223.054 214.621 222.551C214.366 222.045 214.238 221.45 214.238 220.766C214.238 220.092 214.366 219.501 214.621 218.993C214.88 218.482 215.241 218.084 215.704 217.8C216.167 217.513 216.711 217.369 217.336 217.369C217.739 217.369 218.12 217.435 218.478 217.565C218.839 217.693 219.157 217.892 219.433 218.162C219.711 218.432 219.93 218.776 220.089 219.193C220.248 219.608 220.327 220.102 220.327 220.676V221.149H214.962V220.109H218.849C218.846 219.814 218.782 219.551 218.657 219.321C218.532 219.088 218.357 218.905 218.133 218.771C217.911 218.638 217.653 218.571 217.357 218.571C217.042 218.571 216.765 218.648 216.526 218.801C216.288 218.952 216.102 219.151 215.968 219.398C215.837 219.642 215.771 219.911 215.768 220.203V221.111C215.768 221.491 215.837 221.818 215.977 222.091C216.116 222.361 216.31 222.568 216.56 222.713C216.81 222.855 217.103 222.926 217.438 222.926C217.663 222.926 217.866 222.895 218.048 222.832C218.229 222.767 218.387 222.672 218.521 222.547C218.654 222.422 218.755 222.267 218.823 222.082L220.263 222.244C220.173 222.625 219.999 222.957 219.744 223.241C219.491 223.523 219.167 223.741 218.772 223.898C218.377 224.051 217.925 224.128 217.417 224.128ZM223.175 220.165V224H221.632V217.455H223.107V218.567H223.184C223.334 218.2 223.574 217.909 223.904 217.693C224.236 217.477 224.647 217.369 225.135 217.369C225.587 217.369 225.98 217.466 226.316 217.659C226.654 217.852 226.915 218.132 227.1 218.499C227.287 218.865 227.38 219.31 227.377 219.832V224H225.834V220.071C225.834 219.634 225.721 219.291 225.493 219.044C225.269 218.797 224.958 218.673 224.56 218.673C224.29 218.673 224.05 218.733 223.84 218.852C223.632 218.969 223.469 219.138 223.35 219.359C223.233 219.581 223.175 219.849 223.175 220.165ZM231.792 226.591C231.238 226.591 230.762 226.516 230.364 226.365C229.966 226.217 229.647 226.018 229.405 225.768C229.164 225.518 228.996 225.241 228.902 224.938L230.292 224.601C230.354 224.729 230.445 224.855 230.564 224.98C230.684 225.108 230.844 225.213 231.046 225.295C231.25 225.381 231.507 225.423 231.817 225.423C232.255 225.423 232.617 225.317 232.904 225.104C233.191 224.893 233.334 224.547 233.334 224.064V222.824H233.257C233.178 222.983 233.061 223.146 232.908 223.314C232.757 223.482 232.557 223.622 232.307 223.736C232.06 223.849 231.749 223.906 231.374 223.906C230.871 223.906 230.415 223.788 230.006 223.553C229.6 223.314 229.276 222.959 229.034 222.487C228.796 222.013 228.676 221.419 228.676 220.706C228.676 219.987 228.796 219.381 229.034 218.886C229.276 218.389 229.601 218.013 230.01 217.757C230.419 217.499 230.875 217.369 231.378 217.369C231.762 217.369 232.077 217.435 232.324 217.565C232.574 217.693 232.773 217.848 232.921 218.03C233.069 218.209 233.181 218.378 233.257 218.537H233.343V217.455H234.864V224.107C234.864 224.666 234.73 225.129 234.463 225.496C234.196 225.862 233.831 226.136 233.368 226.318C232.905 226.5 232.38 226.591 231.792 226.591ZM231.804 222.696C232.131 222.696 232.409 222.616 232.64 222.457C232.87 222.298 233.044 222.07 233.164 221.771C233.283 221.473 233.343 221.115 233.343 220.697C233.343 220.286 233.283 219.925 233.164 219.615C233.047 219.305 232.874 219.065 232.644 218.895C232.417 218.722 232.137 218.635 231.804 218.635C231.461 218.635 231.174 218.724 230.944 218.903C230.713 219.082 230.54 219.328 230.424 219.641C230.307 219.95 230.249 220.303 230.249 220.697C230.249 221.098 230.307 221.449 230.424 221.75C230.543 222.048 230.718 222.281 230.948 222.449C231.181 222.614 231.466 222.696 231.804 222.696ZM238.328 224.132C237.914 224.132 237.54 224.058 237.208 223.911C236.878 223.76 236.617 223.538 236.424 223.246C236.233 222.953 236.138 222.592 236.138 222.163C236.138 221.794 236.206 221.489 236.343 221.247C236.479 221.006 236.665 220.812 236.901 220.668C237.137 220.523 237.402 220.413 237.698 220.339C237.996 220.263 238.304 220.207 238.623 220.173C239.006 220.134 239.317 220.098 239.556 220.067C239.794 220.033 239.968 219.982 240.076 219.913C240.186 219.842 240.242 219.733 240.242 219.585V219.56C240.242 219.239 240.147 218.99 239.956 218.814C239.766 218.638 239.492 218.55 239.134 218.55C238.756 218.55 238.456 218.632 238.235 218.797C238.016 218.962 237.868 219.156 237.792 219.381L236.351 219.176C236.465 218.778 236.652 218.446 236.914 218.179C237.175 217.909 237.495 217.707 237.873 217.574C238.25 217.438 238.668 217.369 239.125 217.369C239.441 217.369 239.755 217.406 240.067 217.48C240.38 217.554 240.665 217.676 240.924 217.847C241.182 218.014 241.39 218.243 241.546 218.533C241.705 218.822 241.784 219.185 241.784 219.619V224H240.301V223.101H240.25C240.157 223.283 240.025 223.453 239.854 223.612C239.686 223.768 239.475 223.895 239.219 223.991C238.966 224.085 238.669 224.132 238.328 224.132ZM238.729 222.999C239.039 222.999 239.307 222.937 239.534 222.815C239.762 222.69 239.936 222.526 240.059 222.321C240.184 222.116 240.246 221.893 240.246 221.652V220.881C240.198 220.92 240.115 220.957 239.999 220.991C239.885 221.026 239.757 221.055 239.615 221.081C239.473 221.107 239.333 221.129 239.194 221.149C239.054 221.169 238.934 221.186 238.831 221.2C238.601 221.232 238.395 221.283 238.213 221.354C238.032 221.425 237.888 221.524 237.783 221.652C237.678 221.777 237.625 221.939 237.625 222.138C237.625 222.422 237.729 222.636 237.936 222.781C238.144 222.926 238.408 222.999 238.729 222.999ZM244.878 220.165V224H243.336V215.273H244.844V218.567H244.921C245.074 218.197 245.311 217.906 245.632 217.693C245.956 217.477 246.368 217.369 246.868 217.369C247.323 217.369 247.719 217.464 248.057 217.655C248.395 217.845 248.657 218.124 248.841 218.49C249.029 218.857 249.123 219.304 249.123 219.832V224H247.58V220.071C247.58 219.631 247.466 219.288 247.239 219.044C247.015 218.797 246.699 218.673 246.293 218.673C246.02 218.673 245.776 218.733 245.56 218.852C245.347 218.969 245.179 219.138 245.057 219.359C244.938 219.581 244.878 219.849 244.878 220.165ZM253.672 217.455H255.214V224.375C255.214 224.847 255.125 225.236 254.946 225.543C254.767 225.849 254.508 226.078 254.17 226.229C253.832 226.379 253.422 226.455 252.939 226.455C252.882 226.455 252.829 226.453 252.781 226.45C252.733 226.45 252.68 226.449 252.623 226.446V225.189C252.666 225.192 252.704 225.193 252.738 225.193C252.772 225.196 252.808 225.197 252.845 225.197C253.14 225.197 253.352 225.125 253.48 224.98C253.608 224.838 253.672 224.629 253.672 224.354V217.455ZM254.439 216.526C254.191 216.526 253.98 216.445 253.804 216.283C253.63 216.118 253.544 215.92 253.544 215.69C253.544 215.457 253.63 215.26 253.804 215.098C253.98 214.933 254.191 214.851 254.439 214.851C254.683 214.851 254.892 214.933 255.065 215.098C255.241 215.26 255.329 215.457 255.329 215.69C255.329 215.92 255.241 216.118 255.065 216.283C254.892 216.445 254.683 216.526 254.439 216.526ZM258.684 224.132C258.269 224.132 257.896 224.058 257.563 223.911C257.234 223.76 256.972 223.538 256.779 223.246C256.589 222.953 256.494 222.592 256.494 222.163C256.494 221.794 256.562 221.489 256.698 221.247C256.835 221.006 257.021 220.812 257.256 220.668C257.492 220.523 257.758 220.413 258.053 220.339C258.352 220.263 258.66 220.207 258.978 220.173C259.362 220.134 259.673 220.098 259.911 220.067C260.15 220.033 260.323 219.982 260.431 219.913C260.542 219.842 260.597 219.733 260.597 219.585V219.56C260.597 219.239 260.502 218.99 260.312 218.814C260.121 218.638 259.847 218.55 259.489 218.55C259.112 218.55 258.812 218.632 258.59 218.797C258.371 218.962 258.224 219.156 258.147 219.381L256.707 219.176C256.82 218.778 257.008 218.446 257.269 218.179C257.531 217.909 257.85 217.707 258.228 217.574C258.606 217.438 259.023 217.369 259.481 217.369C259.796 217.369 260.11 217.406 260.423 217.48C260.735 217.554 261.021 217.676 261.279 217.847C261.538 218.014 261.745 218.243 261.901 218.533C262.06 218.822 262.14 219.185 262.14 219.619V224H260.657V223.101H260.606C260.512 223.283 260.38 223.453 260.21 223.612C260.042 223.768 259.83 223.895 259.575 223.991C259.322 224.085 259.025 224.132 258.684 224.132ZM259.085 222.999C259.394 222.999 259.663 222.937 259.89 222.815C260.117 222.69 260.292 222.526 260.414 222.321C260.539 222.116 260.602 221.893 260.602 221.652V220.881C260.553 220.92 260.471 220.957 260.354 220.991C260.241 221.026 260.113 221.055 259.971 221.081C259.829 221.107 259.688 221.129 259.549 221.149C259.41 221.169 259.289 221.186 259.187 221.2C258.957 221.232 258.751 221.283 258.569 221.354C258.387 221.425 258.244 221.524 258.138 221.652C258.033 221.777 257.981 221.939 257.981 222.138C257.981 222.422 258.085 222.636 258.292 222.781C258.499 222.926 258.763 222.999 259.085 222.999ZM265.234 215.273V224H263.691V215.273H265.234ZM268.703 224.132C268.289 224.132 267.915 224.058 267.583 223.911C267.253 223.76 266.992 223.538 266.799 223.246C266.608 222.953 266.513 222.592 266.513 222.163C266.513 221.794 266.581 221.489 266.718 221.247C266.854 221.006 267.04 220.812 267.276 220.668C267.512 220.523 267.777 220.413 268.073 220.339C268.371 220.263 268.679 220.207 268.998 220.173C269.381 220.134 269.692 220.098 269.931 220.067C270.169 220.033 270.343 219.982 270.451 219.913C270.561 219.842 270.617 219.733 270.617 219.585V219.56C270.617 219.239 270.522 218.99 270.331 218.814C270.141 218.638 269.867 218.55 269.509 218.55C269.131 218.55 268.831 218.632 268.61 218.797C268.391 218.962 268.243 219.156 268.167 219.381L266.726 219.176C266.84 218.778 267.027 218.446 267.289 218.179C267.55 217.909 267.87 217.707 268.248 217.574C268.625 217.438 269.043 217.369 269.5 217.369C269.816 217.369 270.13 217.406 270.442 217.48C270.755 217.554 271.04 217.676 271.299 217.847C271.557 218.014 271.765 218.243 271.921 218.533C272.08 218.822 272.159 219.185 272.159 219.619V224H270.676V223.101H270.625C270.532 223.283 270.4 223.453 270.229 223.612C270.061 223.768 269.85 223.895 269.594 223.991C269.341 224.085 269.044 224.132 268.703 224.132ZM269.104 222.999C269.414 222.999 269.682 222.937 269.909 222.815C270.137 222.69 270.311 222.526 270.434 222.321C270.559 222.116 270.621 221.893 270.621 221.652V220.881C270.573 220.92 270.49 220.957 270.374 220.991C270.26 221.026 270.132 221.055 269.99 221.081C269.848 221.107 269.708 221.129 269.569 221.149C269.429 221.169 269.309 221.186 269.206 221.2C268.976 221.232 268.77 221.283 268.588 221.354C268.407 221.425 268.263 221.524 268.158 221.652C268.053 221.777 268 221.939 268 222.138C268 222.422 268.104 222.636 268.311 222.781C268.519 222.926 268.783 222.999 269.104 222.999ZM275.253 220.165V224H273.711V217.455H275.185V218.567H275.262C275.412 218.2 275.652 217.909 275.982 217.693C276.314 217.477 276.725 217.369 277.213 217.369C277.665 217.369 278.059 217.466 278.394 217.659C278.732 217.852 278.993 218.132 279.178 218.499C279.365 218.865 279.458 219.31 279.455 219.832V224H277.912V220.071C277.912 219.634 277.799 219.291 277.571 219.044C277.347 218.797 277.036 218.673 276.638 218.673C276.368 218.673 276.128 218.733 275.918 218.852C275.711 218.969 275.547 219.138 275.428 219.359C275.311 219.581 275.253 219.849 275.253 220.165ZM282.911 215.273L282.77 221.435H281.398L281.262 215.273H282.911ZM282.084 224.094C281.826 224.094 281.604 224.003 281.419 223.821C281.238 223.639 281.147 223.418 281.147 223.156C281.147 222.901 281.238 222.682 281.419 222.5C281.604 222.318 281.826 222.227 282.084 222.227C282.337 222.227 282.556 222.318 282.74 222.5C282.928 222.682 283.022 222.901 283.022 223.156C283.022 223.33 282.978 223.487 282.89 223.629C282.804 223.771 282.691 223.885 282.549 223.97C282.409 224.053 282.255 224.094 282.084 224.094Z" fill="#344054"/>
<path d="M186.071 234.485C186.962 234.485 187.408 235.562 186.778 236.192L180.707 242.263C180.317 242.654 179.683 242.654 179.293 242.263L173.222 236.192C172.592 235.562 173.038 234.485 173.929 234.485L186.071 234.485Z" fill="white"/>
</g>
</g>
<defs>
<filter id="filter0_dd_8017_24452" x="45" y="203" width="270" height="64" filterUnits="userSpaceOnUse" color-interpolation-filters="sRGB">
<feFlood flood-opacity="0" result="BackgroundImageFix"/>
<feColorMatrix in="SourceAlpha" type="matrix" values="0 0 0 0 0 0 0 0 0 0 0 0 0 0 0 0 0 0 127 0" result="hardAlpha"/>
<feMorphology radius="2" operator="erode" in="SourceAlpha" result="effect1_dropShadow_8017_24452"/>
<feOffset dy="4"/>
<feGaussianBlur stdDeviation="3"/>
<feColorMatrix type="matrix" values="0 0 0 0 0.0627451 0 0 0 0 0.0941176 0 0 0 0 0.156863 0 0 0 0.03 0"/>
<feBlend mode="normal" in2="BackgroundImageFix" result="effect1_dropShadow_8017_24452"/>
<feColorMatrix in="SourceAlpha" type="matrix" values="0 0 0 0 0 0 0 0 0 0 0 0 0 0 0 0 0 0 127 0" result="hardAlpha"/>
<feMorphology radius="4" operator="erode" in="SourceAlpha" result="effect2_dropShadow_8017_24452"/>
<feOffset dy="12"/>
<feGaussianBlur stdDeviation="8"/>
<feColorMatrix type="matrix" values="0 0 0 0 0.0627451 0 0 0 0 0.0941176 0 0 0 0 0.156863 0 0 0 0.08 0"/>
<feBlend mode="normal" in2="effect1_dropShadow_8017_24452" result="effect2_dropShadow_8017_24452"/>
<feBlend mode="normal" in="SourceGraphic" in2="effect2_dropShadow_8017_24452" result="shape"/>
</filter>
<radialGradient id="paint0_radial_8017_24452" cx="0" cy="0" r="1" gradientUnits="userSpaceOnUse" gradientTransform="translate(916.61 171.455) rotate(60) scale(1080.63 1049.59)">
<stop stop-color="white"/>
<stop offset="1" stop-color="#231F20"/>
</radialGradient>
<clipPath id="clip0_8017_24452">
<path d="M0 0H360V408C360 414.627 354.627 420 348 420H12C5.37259 420 0 414.627 0 408V0Z" fill="white"/>
</clipPath>
</defs>
</svg>
