<svg width="360" height="420" viewBox="0 0 360 420" fill="none" xmlns="http://www.w3.org/2000/svg">
<g clip-path="url(#clip0_8017_25582)">
<path d="M0 0H360V408C360 414.627 354.627 420 348 420H12C5.37259 420 0 414.627 0 408V0Z" fill="#A5DAFC"/>
<path d="M46 331.516C35.2 331.116 1.83333 348.016 -13.5 356.516V438.016H382.5C387.5 400.682 390 325.816 360 325.016C330 324.216 314.167 354.349 310 369.516C288.167 378.516 241.2 393.616 228 382.016C211.5 367.516 164.5 345.016 152 356.516C139.5 368.015 107 356.516 91.5 356.516C76 356.516 59.5 332.016 46 331.516Z" fill="#33F548"/>
<path opacity="0.5" d="M-75.2437 -768.364L814.054 -376.194L927.086 -135.421L-139.841 -697.646L-158.911 -659.376L1101.01 160.206L1148.95 396.579L860.364 496.344L-198.199 -329.714L-212.818 -226.739L694.937 638.648L596.35 648.775L-233.304 -187.707L-281.115 -118.448L409.915 779.811L226.622 805.417L-34.7957 571.973L-395.771 -148.866L-271.953 -704.929L-75.2437 -768.364Z" fill="url(#paint0_radial_8017_25582)" style="mix-blend-mode:overlay"/>
<path d="M-14.5 339.001C-62.1 348.601 -39.0002 368.834 -43.0002 372.5V500.5H328L368.5 422L416 372.5L389.5 316C360.5 372.5 226 379.5 193 379.5C45.9998 379.5 45 327.001 -14.5 339.001Z" fill="#09DE20"/>
<path d="M411.263 150.658L247.245 145.707L284.039 134.859C285.891 132.011 288.533 129.754 291.651 128.356C294.77 126.958 298.234 126.477 301.632 126.97C301.632 126.97 305.9 110.864 325.287 115.241C325.287 115.241 331.434 92.217 354.758 94.5455C360.973 94.9153 366.807 97.6885 370.999 102.266C375.191 106.844 377.405 112.858 377.162 119.01C377.162 119.01 391.38 116.43 391.436 128.787C392.825 129.13 394.127 129.763 395.252 130.643C396.377 131.524 397.3 132.632 397.959 133.892C398.617 135.152 398.997 136.535 399.071 137.949C399.145 139.363 398.912 140.774 398.388 142.087L411.263 150.658Z" fill="white"/>
<path d="M270.123 143.678L402.372 148.058L392.277 140.395C392.277 140.395 394.845 133.776 386.593 131.042C385.868 127.732 383.866 124.825 381.016 122.94C378.165 121.056 374.69 120.343 371.331 120.953C371.331 120.953 373.912 104.422 352.667 101.862C331.423 99.3022 328.295 119.865 328.295 119.865C328.295 119.865 313.041 117.792 307.539 131.265C304.391 130.529 301.087 130.901 298.199 132.317C295.312 133.734 293.02 136.107 291.72 139.026L270.123 143.678Z" fill="#F1F2F2"/>
<path d="M-43.6571 247.643L88.2996 243.66L58.6979 234.932C57.2081 232.641 55.0826 230.826 52.5736 229.701C50.0647 228.576 47.2779 228.188 44.5437 228.585C44.5437 228.585 41.1103 215.628 25.5129 219.149C25.5129 219.149 20.5671 200.626 1.80238 202.499C-3.19783 202.797 -7.89112 205.028 -11.2636 208.71C-14.6361 212.393 -16.4172 217.232 -16.2219 222.181C-16.2219 222.181 -27.6609 220.106 -27.7056 230.047C-28.8237 230.323 -29.8706 230.832 -30.7759 231.541C-31.6811 232.249 -32.4237 233.14 -32.9536 234.154C-33.4836 235.168 -33.7886 236.281 -33.8482 237.418C-33.9077 238.556 -33.7205 239.691 -33.299 240.748L-43.6571 247.643Z" fill="white"/>
<path d="M69.8942 242.027L-36.5038 245.551L-28.3827 239.386C-28.3827 239.386 -30.4483 234.061 -23.8092 231.862C-23.2259 229.198 -21.616 226.86 -19.3224 225.343C-17.0288 223.827 -14.2329 223.254 -11.5305 223.745C-11.5305 223.745 -13.6073 210.445 3.48456 208.385C20.5764 206.326 23.093 222.869 23.093 222.869C23.093 222.869 35.365 221.202 39.7912 232.041C42.3246 231.448 44.9821 231.748 47.3055 232.888C49.6289 234.027 51.4724 235.936 52.5181 238.285L69.8942 242.027Z" fill="#F1F2F2"/>
<path d="M310 405.5L134 424H373V392H317.5C303.5 392 306.667 401 310 405.5Z" fill="#00AA13"/>
<path d="M29.5 395C43.5 395 53.3333 401 50 405.5C50 405.5 95.979 397.462 129 409C148.892 415.95 186.5 435.5 186.5 435.5L-13 424L-10 409C2.66667 409 15.5 395 29.5 395Z" fill="#00AA13"/>
<path d="M54 383L49.5 386.5L50.5 381.5L47.5 378L55 379L57.5 377L61.5 381.5L64 380V384L69.5 381.5V386.5L64 388.5L59.5 390L57.5 383L54 388.5V383Z" fill="#00AA13"/>
<path d="M146.455 406.769L148.909 404.885L148.364 407.577L150 409.462L145.909 408.923L144.545 410L142.364 407.577L141 408.385V406.231L138 407.577V404.885L141 403.808L143.455 403L144.545 406.769L146.455 403.808V406.769Z" fill="#00AA13"/>
<path d="M173.604 382.905L174.337 379.584L175.743 382.73L178.399 383.842L174.638 385.48L174.252 387.356L170.773 385.968L170.2 387.56L168.774 385.37L168.613 385.477L167.158 388.324L166.841 386.656L168.613 385.477L168.714 385.279L168.774 385.37L169.158 385.115L168.518 380.533L172.023 383.935L171.561 379.769L173.604 382.905Z" fill="#00AA13"/>
<path d="M352.5 370L348 366.5L349 371.5L346 375L353.5 374L356 376L360 371.5L362.5 373V369L368 371.5V366.5L362.5 364.5L358 363L356 370L352.5 364.5V370Z" fill="#00AA13"/>
<path d="M280.5 391L285 394.5L284 389.5L287 386L279.5 387L277 385L273 389.5L270.5 388V392H266.5L269 393.5V398L271.5 394.5V399.5L274.5 392L276 395.5L278 393.5L280.5 396.5V391Z" fill="#00AA13"/>
<path d="M213.318 277.033C209.385 279.455 204.998 281.725 200.611 284.298C196.224 286.871 191.989 289.444 188.207 292.774C186.996 293.834 185.786 295.045 184.727 296.255L182.609 223H179.584L177.769 288.082C177.617 287.931 177.617 287.78 177.466 287.78C172.928 282.482 167.028 279.152 161.431 275.217C155.531 270.979 150.388 265.228 144.639 260.839C142.673 259.325 140.857 261.595 142.824 263.109C147.514 266.741 152.808 272.947 159.464 278.093C166.423 283.542 177.769 289.444 177.466 299.585L176.558 332.58C174.894 330.613 173.079 328.645 171.264 326.829C166.877 322.591 161.885 318.353 156.439 314.721C154.472 313.358 152.506 312.299 150.539 311.088C148.421 309.575 146.455 312.299 148.421 313.812C150.388 315.023 152.506 316.234 154.321 317.596C163.7 324.105 175.046 332.883 175.953 345.294C175.953 346.202 176.105 347.11 175.953 348.018L175.046 381.922H173.533C170.205 381.922 167.482 384.646 167.482 387.976H194.409C194.409 384.646 191.686 381.922 188.358 381.922H186.845L186.089 354.829C185.938 349.683 191.232 344.689 194.56 341.359C196.678 339.089 193.955 336.364 191.686 338.635C189.568 340.754 187.45 343.024 185.786 345.294L184.727 307.153C184.576 302.461 187.148 298.677 190.476 295.65C193.804 292.623 198.04 290.05 202.124 287.326C206.36 284.752 210.747 282.331 214.68 279.758C217.554 278.244 215.89 275.52 213.318 277.033Z" fill="#8A5530"/>
<path d="M180.48 201C175.185 204.027 171.555 212.503 171.555 218.86C171.555 225.217 175.185 227.941 180.48 230.968C185.775 227.941 189.405 225.217 189.405 218.86C189.405 212.503 185.775 203.876 180.48 201Z" fill="#B0B43D"/>
<path d="M180.48 201V230.968C185.775 227.941 189.405 225.217 189.405 218.86C189.405 212.352 185.775 203.876 180.48 201Z" fill="#6C8336"/>
<path d="M193.338 258.666C188.195 262.147 185.321 270.774 185.926 277.283C186.531 283.639 190.313 286.061 195.91 288.634C201.053 285.153 204.382 282.277 203.928 275.769C203.323 269.412 198.936 261.239 193.338 258.666Z" fill="#B0B43D"/>
<path d="M193.338 258.666L195.91 288.483C201.053 285.002 204.381 282.126 203.928 275.618C203.323 269.412 198.936 261.239 193.338 258.666Z" fill="#6C8336"/>
<path d="M225.56 301.045C220.719 304.829 211.491 304.829 205.591 302.256C199.692 299.683 198.633 295.294 198.028 289.239C202.868 285.456 206.802 283.185 212.701 285.758C218.601 288.18 224.955 294.84 225.56 301.045Z" fill="#B0B43D"/>
<path d="M225.56 301.045L198.028 289.239C202.868 285.456 206.802 283.185 212.701 285.758C218.601 288.18 224.955 294.84 225.56 301.045Z" fill="#6C8336"/>
<path d="M156.276 227.336C161.873 224.914 170.798 227.184 175.942 231.12C180.934 235.055 180.934 239.595 180.026 245.65C174.429 248.071 170.042 249.282 164.899 245.347C159.755 241.412 155.368 233.39 156.276 227.336Z" fill="#B0B43D"/>
<path d="M156.276 227.336L180.026 245.65C174.429 248.071 170.042 249.282 164.899 245.347C159.755 241.412 155.368 233.39 156.276 227.336Z" fill="#6C8336"/>
<path d="M208.163 237.022C202.869 233.844 193.792 234.903 188.195 237.931C182.598 241.109 181.993 245.498 182.144 251.704C187.439 254.882 191.523 256.698 197.12 253.52C202.566 250.493 208.163 243.228 208.163 237.022Z" fill="#B0B43D"/>
<path d="M208.164 237.022L182.144 251.704C187.439 254.882 191.523 256.698 197.121 253.52C202.566 250.493 208.164 243.228 208.164 237.022Z" fill="#6C8336"/>
<path d="M157.94 244.136C152.494 246.86 148.41 255.033 147.956 261.542C147.653 267.899 151.133 270.774 156.276 274.104C161.722 271.38 165.504 268.958 165.958 262.45C166.411 256.093 163.235 247.466 157.94 244.136Z" fill="#B0B43D"/>
<path d="M157.94 244.136L156.276 274.104C161.722 271.38 165.504 268.958 165.958 262.45C166.412 256.093 163.235 247.466 157.94 244.136Z" fill="#6C8336"/>
<path d="M138.123 290.753C139.636 284.85 146.746 279.099 152.948 277.434C159.15 275.769 162.629 278.493 167.016 282.883C165.504 288.785 163.84 293.023 157.789 294.688C151.586 296.353 142.359 295.142 138.123 290.753Z" fill="#B0B43D"/>
<path d="M138.123 290.753L167.016 282.883C165.503 288.785 163.839 293.023 157.788 294.688C151.586 296.353 142.358 295.142 138.123 290.753Z" fill="#6C8336"/>
<path d="M233.124 256.093C227.073 254.882 218.904 258.817 214.668 263.661C210.433 268.504 211.492 272.893 213.609 278.645C219.661 279.856 224.199 280.158 228.283 275.315C232.519 270.623 235.242 261.844 233.124 256.093Z" fill="#B0B43D"/>
<path d="M233.124 256.093L213.609 278.796C219.66 280.007 224.199 280.309 228.283 275.466C232.519 270.623 235.242 261.844 233.124 256.093Z" fill="#6C8336"/>
<path d="M215.273 321.024C209.525 318.905 200.751 321.629 195.91 325.716C191.069 329.802 191.372 334.343 192.582 340.397C198.331 342.516 202.718 343.575 207.558 339.489C212.399 335.251 216.484 327.078 215.273 321.024Z" fill="#B0B43D"/>
<path d="M215.273 321.024L192.431 340.397C198.179 342.516 202.566 343.575 207.407 339.489C212.399 335.251 216.484 327.078 215.273 321.024Z" fill="#6C8336"/>
<path d="M118.003 246.86C123.298 243.833 132.525 245.196 137.971 248.525C143.417 251.855 143.871 256.396 143.568 262.45C138.274 265.477 134.038 267.142 128.592 263.812C123.146 260.634 117.852 253.066 118.003 246.86Z" fill="#B0B43D"/>
<path d="M118.003 246.86L143.568 262.601C138.274 265.628 134.038 267.293 128.592 263.963C123.146 260.634 117.851 253.066 118.003 246.86Z" fill="#6C8336"/>
<path d="M120.877 303.164C125.567 299.078 134.644 298.472 140.695 300.743C146.746 302.861 148.107 307.251 149.015 313.305C144.325 317.391 140.695 319.813 134.644 317.694C128.744 315.575 121.936 309.37 120.877 303.164Z" fill="#B0B43D"/>
<path d="M120.877 303.164L149.166 313.154C144.476 317.24 140.846 319.662 134.795 317.543C128.744 315.575 121.936 309.37 120.877 303.164Z" fill="#6C8336"/>
<path d="M168.226 293.023C162.327 294.84 157.032 302.407 155.671 308.613C154.309 314.818 157.335 318.3 161.873 322.386C167.773 320.57 171.857 318.754 173.219 312.397C174.58 306.04 172.916 296.959 168.226 293.023Z" fill="#B0B43D"/>
<path d="M168.226 293.023L162.024 322.386C167.924 320.57 172.008 318.754 173.37 312.397C174.58 306.04 172.916 296.959 168.226 293.023Z" fill="#6C8336"/>
<path d="M141.148 337.824C142.963 331.921 150.376 326.473 156.578 325.11C162.78 323.748 166.26 326.624 170.344 331.165C168.529 337.067 166.713 341.154 160.511 342.668C154.309 344.03 145.232 342.365 141.148 337.824Z" fill="#B0B43D"/>
<path d="M141.148 337.824L170.344 331.165C168.529 337.067 166.713 341.154 160.511 342.667C154.309 344.03 145.232 342.365 141.148 337.824Z" fill="#6C8336"/>
<path d="M166.375 389.654L167.748 384.798L169.714 381.427L169.77 385.713L171.616 384.113L171.793 386.627L175.067 384.457L174.112 388.285L170.54 389.712L166.375 389.654Z" fill="#09DE20"/>
<path d="M193.53 390.01L193.468 384.754L192.603 381.212L191.63 385.983L190.48 384.399L189.792 387.213L187.606 385.144L187.552 389.3L190.14 390.512L193.53 390.01Z" fill="#09DE20"/>
<g filter="url(#filter0_dd_8017_25582)">
<rect x="71" y="149" width="218" height="34" rx="12" fill="white"/>
<path d="M94.2267 163.672C94.187 163.3 94.0194 163.01 93.7239 162.803C93.4313 162.595 93.0506 162.491 92.5819 162.491C92.2523 162.491 91.9696 162.541 91.7338 162.641C91.498 162.74 91.3176 162.875 91.1926 163.045C91.0676 163.216 91.0037 163.411 91.0009 163.629C91.0009 163.811 91.0421 163.969 91.1245 164.102C91.2097 164.236 91.3248 164.349 91.4696 164.443C91.6145 164.534 91.775 164.611 91.9512 164.673C92.1273 164.736 92.3049 164.788 92.4838 164.831L93.302 165.036C93.6316 165.112 93.9483 165.216 94.2523 165.347C94.5591 165.477 94.8333 165.642 95.0748 165.841C95.3191 166.04 95.5123 166.28 95.6543 166.561C95.7963 166.842 95.8674 167.172 95.8674 167.55C95.8674 168.061 95.7367 168.511 95.4753 168.901C95.214 169.287 94.8361 169.589 94.3418 169.808C93.8503 170.024 93.2551 170.132 92.5563 170.132C91.8773 170.132 91.2878 170.027 90.7878 169.817C90.2907 169.607 89.9015 169.3 89.6202 168.896C89.3418 168.493 89.1912 168.001 89.1685 167.422H90.7239C90.7466 167.726 90.8404 167.979 91.0051 168.18C91.1699 168.382 91.3844 168.533 91.6486 168.632C91.9157 168.732 92.214 168.781 92.5435 168.781C92.8873 168.781 93.1884 168.73 93.4469 168.628C93.7083 168.523 93.9128 168.378 94.0605 168.193C94.2083 168.006 94.2836 167.787 94.2864 167.537C94.2836 167.31 94.2168 167.122 94.0861 166.974C93.9554 166.824 93.7722 166.699 93.5364 166.599C93.3034 166.497 93.0307 166.406 92.7182 166.327L91.7253 166.071C91.0066 165.886 90.4384 165.607 90.0208 165.232C89.606 164.854 89.3986 164.352 89.3986 163.727C89.3986 163.213 89.5378 162.763 89.8162 162.376C90.0975 161.99 90.4796 161.69 90.9625 161.477C91.4455 161.261 91.9924 161.153 92.6032 161.153C93.2225 161.153 93.7651 161.261 94.231 161.477C94.6998 161.69 95.0676 161.987 95.3347 162.368C95.6017 162.746 95.7395 163.18 95.748 163.672H94.2267ZM97.2086 170V163.455H98.7512V170H97.2086ZM97.9842 162.526C97.7399 162.526 97.5297 162.445 97.3535 162.283C97.1774 162.118 97.0893 161.92 97.0893 161.69C97.0893 161.457 97.1774 161.26 97.3535 161.098C97.5297 160.933 97.7399 160.851 97.9842 160.851C98.2314 160.851 98.4416 160.933 98.6149 161.098C98.791 161.26 98.8791 161.457 98.8791 161.69C98.8791 161.92 98.791 162.118 98.6149 162.283C98.4416 162.445 98.2314 162.526 97.9842 162.526ZM100.338 170V163.455H101.833V164.545H101.901C102.021 164.168 102.225 163.876 102.515 163.672C102.808 163.464 103.142 163.361 103.517 163.361C103.602 163.361 103.697 163.365 103.802 163.374C103.91 163.379 103.999 163.389 104.07 163.403V164.822C104.005 164.8 103.901 164.78 103.759 164.763C103.62 164.743 103.485 164.733 103.355 164.733C103.073 164.733 102.82 164.794 102.596 164.916C102.374 165.036 102.2 165.202 102.072 165.415C101.944 165.628 101.88 165.874 101.88 166.152V170H100.338ZM106.862 170.132C106.447 170.132 106.073 170.058 105.741 169.911C105.411 169.76 105.15 169.538 104.957 169.246C104.767 168.953 104.671 168.592 104.671 168.163C104.671 167.794 104.74 167.489 104.876 167.247C105.012 167.006 105.198 166.812 105.434 166.668C105.67 166.523 105.936 166.413 106.231 166.339C106.529 166.263 106.838 166.207 107.156 166.173C107.539 166.134 107.85 166.098 108.089 166.067C108.328 166.033 108.501 165.982 108.609 165.913C108.72 165.842 108.775 165.733 108.775 165.585V165.56C108.775 165.239 108.68 164.99 108.49 164.814C108.299 164.638 108.025 164.55 107.667 164.55C107.289 164.55 106.99 164.632 106.768 164.797C106.549 164.962 106.401 165.156 106.325 165.381L104.884 165.176C104.998 164.778 105.186 164.446 105.447 164.179C105.708 163.909 106.028 163.707 106.406 163.574C106.784 163.438 107.201 163.369 107.659 163.369C107.974 163.369 108.288 163.406 108.6 163.48C108.913 163.554 109.198 163.676 109.457 163.847C109.715 164.014 109.923 164.243 110.079 164.533C110.238 164.822 110.318 165.185 110.318 165.619V170H108.835V169.101H108.784C108.69 169.283 108.558 169.453 108.387 169.612C108.22 169.768 108.008 169.895 107.752 169.991C107.499 170.085 107.203 170.132 106.862 170.132ZM107.262 168.999C107.572 168.999 107.84 168.937 108.068 168.815C108.295 168.69 108.47 168.526 108.592 168.321C108.717 168.116 108.779 167.893 108.779 167.652V166.881C108.731 166.92 108.649 166.957 108.532 166.991C108.419 167.026 108.291 167.055 108.149 167.081C108.007 167.107 107.866 167.129 107.727 167.149C107.588 167.169 107.467 167.186 107.365 167.2C107.134 167.232 106.928 167.283 106.747 167.354C106.565 167.425 106.421 167.524 106.316 167.652C106.211 167.777 106.159 167.939 106.159 168.138C106.159 168.422 106.262 168.636 106.47 168.781C106.677 168.926 106.941 168.999 107.262 168.999ZM111.869 170V163.455H113.343V164.567H113.42C113.556 164.192 113.782 163.899 114.097 163.689C114.413 163.476 114.789 163.369 115.227 163.369C115.67 163.369 116.044 163.477 116.347 163.693C116.654 163.906 116.87 164.197 116.995 164.567H117.063C117.208 164.203 117.453 163.913 117.796 163.697C118.143 163.479 118.553 163.369 119.028 163.369C119.63 163.369 120.122 163.56 120.502 163.94C120.883 164.321 121.073 164.876 121.073 165.607V170H119.526V165.845C119.526 165.439 119.419 165.142 119.203 164.955C118.987 164.764 118.722 164.669 118.41 164.669C118.038 164.669 117.747 164.786 117.536 165.018C117.329 165.249 117.225 165.548 117.225 165.918V170H115.713V165.781C115.713 165.443 115.61 165.173 115.406 164.972C115.204 164.77 114.94 164.669 114.613 164.669C114.392 164.669 114.19 164.726 114.008 164.839C113.826 164.95 113.681 165.108 113.573 165.312C113.465 165.514 113.411 165.75 113.411 166.02V170H111.869ZM127.157 161.273V170H125.615V161.273H127.157ZM130.627 170.132C130.213 170.132 129.839 170.058 129.507 169.911C129.177 169.76 128.916 169.538 128.722 169.246C128.532 168.953 128.437 168.592 128.437 168.163C128.437 167.794 128.505 167.489 128.642 167.247C128.778 167.006 128.964 166.812 129.2 166.668C129.436 166.523 129.701 166.413 129.997 166.339C130.295 166.263 130.603 166.207 130.921 166.173C131.305 166.134 131.616 166.098 131.855 166.067C132.093 166.033 132.267 165.982 132.374 165.913C132.485 165.842 132.541 165.733 132.541 165.585V165.56C132.541 165.239 132.445 164.99 132.255 164.814C132.065 164.638 131.791 164.55 131.433 164.55C131.055 164.55 130.755 164.632 130.534 164.797C130.315 164.962 130.167 165.156 130.09 165.381L128.65 165.176C128.764 164.778 128.951 164.446 129.213 164.179C129.474 163.909 129.794 163.707 130.171 163.574C130.549 163.438 130.967 163.369 131.424 163.369C131.74 163.369 132.053 163.406 132.366 163.48C132.678 163.554 132.964 163.676 133.222 163.847C133.481 164.014 133.688 164.243 133.845 164.533C134.004 164.822 134.083 165.185 134.083 165.619V170H132.6V169.101H132.549C132.455 169.283 132.323 169.453 132.153 169.612C131.985 169.768 131.774 169.895 131.518 169.991C131.265 170.085 130.968 170.132 130.627 170.132ZM131.028 168.999C131.338 168.999 131.606 168.937 131.833 168.815C132.061 168.69 132.235 168.526 132.357 168.321C132.482 168.116 132.545 167.893 132.545 167.652V166.881C132.497 166.92 132.414 166.957 132.298 166.991C132.184 167.026 132.056 167.055 131.914 167.081C131.772 167.107 131.632 167.129 131.492 167.149C131.353 167.169 131.232 167.186 131.13 167.2C130.9 167.232 130.694 167.283 130.512 167.354C130.33 167.425 130.187 167.524 130.082 167.652C129.977 167.777 129.924 167.939 129.924 168.138C129.924 168.422 130.028 168.636 130.235 168.781C130.443 168.926 130.707 168.999 131.028 168.999ZM138.481 172.591C137.927 172.591 137.451 172.516 137.053 172.365C136.656 172.217 136.336 172.018 136.095 171.768C135.853 171.518 135.686 171.241 135.592 170.938L136.981 170.601C137.044 170.729 137.134 170.855 137.254 170.98C137.373 171.108 137.534 171.213 137.735 171.295C137.94 171.381 138.197 171.423 138.507 171.423C138.944 171.423 139.306 171.317 139.593 171.104C139.88 170.893 140.024 170.547 140.024 170.064V168.824H139.947C139.867 168.983 139.751 169.146 139.597 169.314C139.447 169.482 139.247 169.622 138.997 169.736C138.749 169.849 138.438 169.906 138.063 169.906C137.561 169.906 137.105 169.788 136.695 169.553C136.289 169.314 135.965 168.959 135.724 168.487C135.485 168.013 135.366 167.419 135.366 166.706C135.366 165.987 135.485 165.381 135.724 164.886C135.965 164.389 136.291 164.013 136.7 163.757C137.109 163.499 137.565 163.369 138.068 163.369C138.451 163.369 138.767 163.435 139.014 163.565C139.264 163.693 139.463 163.848 139.61 164.03C139.758 164.209 139.87 164.378 139.947 164.537H140.032V163.455H141.553V170.107C141.553 170.666 141.42 171.129 141.153 171.496C140.886 171.862 140.521 172.136 140.058 172.318C139.595 172.5 139.069 172.591 138.481 172.591ZM138.494 168.696C138.82 168.696 139.099 168.616 139.329 168.457C139.559 168.298 139.734 168.07 139.853 167.771C139.972 167.473 140.032 167.115 140.032 166.697C140.032 166.286 139.972 165.925 139.853 165.615C139.737 165.305 139.563 165.065 139.333 164.895C139.106 164.722 138.826 164.635 138.494 164.635C138.15 164.635 137.863 164.724 137.633 164.903C137.403 165.082 137.23 165.328 137.113 165.641C136.997 165.95 136.938 166.303 136.938 166.697C136.938 167.098 136.997 167.449 137.113 167.75C137.232 168.048 137.407 168.281 137.637 168.449C137.87 168.614 138.156 168.696 138.494 168.696ZM143.134 170V163.455H144.677V170H143.134ZM143.91 162.526C143.666 162.526 143.455 162.445 143.279 162.283C143.103 162.118 143.015 161.92 143.015 161.69C143.015 161.457 143.103 161.26 143.279 161.098C143.455 160.933 143.666 160.851 143.91 160.851C144.157 160.851 144.367 160.933 144.541 161.098C144.717 161.26 144.805 161.457 144.805 161.69C144.805 161.92 144.717 162.118 144.541 162.283C144.367 162.445 144.157 162.526 143.91 162.526ZM151.669 170.115C151.155 170.115 150.694 169.983 150.288 169.719C149.882 169.455 149.561 169.071 149.325 168.568C149.089 168.065 148.971 167.455 148.971 166.736C148.971 166.009 149.091 165.395 149.329 164.895C149.571 164.392 149.896 164.013 150.305 163.757C150.714 163.499 151.17 163.369 151.673 163.369C152.057 163.369 152.372 163.435 152.619 163.565C152.866 163.693 153.062 163.848 153.207 164.03C153.352 164.209 153.464 164.378 153.544 164.537H153.608V161.273H155.155V170H153.638V168.969H153.544C153.464 169.128 153.349 169.297 153.199 169.476C153.048 169.652 152.849 169.803 152.602 169.928C152.355 170.053 152.044 170.115 151.669 170.115ZM152.099 168.849C152.426 168.849 152.704 168.761 152.934 168.585C153.165 168.406 153.339 168.158 153.459 167.839C153.578 167.521 153.638 167.151 153.638 166.727C153.638 166.304 153.578 165.936 153.459 165.624C153.342 165.311 153.169 165.068 152.939 164.895C152.711 164.722 152.432 164.635 152.099 164.635C151.756 164.635 151.469 164.724 151.238 164.903C151.008 165.082 150.835 165.33 150.719 165.645C150.602 165.96 150.544 166.321 150.544 166.727C150.544 167.136 150.602 167.501 150.719 167.822C150.838 168.141 151.013 168.392 151.243 168.577C151.476 168.759 151.761 168.849 152.099 168.849ZM159.654 170.128C159.014 170.128 158.46 169.987 157.992 169.706C157.523 169.425 157.159 169.031 156.901 168.526C156.645 168.02 156.517 167.429 156.517 166.753C156.517 166.077 156.645 165.484 156.901 164.976C157.159 164.467 157.523 164.072 157.992 163.791C158.46 163.51 159.014 163.369 159.654 163.369C160.293 163.369 160.847 163.51 161.316 163.791C161.784 164.072 162.146 164.467 162.402 164.976C162.661 165.484 162.79 166.077 162.79 166.753C162.79 167.429 162.661 168.02 162.402 168.526C162.146 169.031 161.784 169.425 161.316 169.706C160.847 169.987 160.293 170.128 159.654 170.128ZM159.662 168.892C160.009 168.892 160.298 168.797 160.531 168.607C160.764 168.413 160.938 168.155 161.051 167.831C161.168 167.507 161.226 167.146 161.226 166.749C161.226 166.348 161.168 165.986 161.051 165.662C160.938 165.335 160.764 165.075 160.531 164.882C160.298 164.689 160.009 164.592 159.662 164.592C159.307 164.592 159.012 164.689 158.776 164.882C158.543 165.075 158.368 165.335 158.252 165.662C158.138 165.986 158.081 166.348 158.081 166.749C158.081 167.146 158.138 167.507 158.252 167.831C158.368 168.155 158.543 168.413 158.776 168.607C159.012 168.797 159.307 168.892 159.662 168.892ZM165.642 166.165V170H164.099V163.455H165.574V164.567H165.65C165.801 164.2 166.041 163.909 166.371 163.693C166.703 163.477 167.113 163.369 167.602 163.369C168.054 163.369 168.447 163.466 168.782 163.659C169.121 163.852 169.382 164.132 169.567 164.499C169.754 164.865 169.846 165.31 169.844 165.832V170H168.301V166.071C168.301 165.634 168.187 165.291 167.96 165.044C167.736 164.797 167.425 164.673 167.027 164.673C166.757 164.673 166.517 164.733 166.307 164.852C166.099 164.969 165.936 165.138 165.817 165.359C165.7 165.581 165.642 165.849 165.642 166.165ZM174.258 172.591C173.704 172.591 173.229 172.516 172.831 172.365C172.433 172.217 172.113 172.018 171.872 171.768C171.631 171.518 171.463 171.241 171.369 170.938L172.758 170.601C172.821 170.729 172.912 170.855 173.031 170.98C173.15 171.108 173.311 171.213 173.513 171.295C173.717 171.381 173.974 171.423 174.284 171.423C174.721 171.423 175.084 171.317 175.371 171.104C175.657 170.893 175.801 170.547 175.801 170.064V168.824H175.724C175.645 168.983 175.528 169.146 175.375 169.314C175.224 169.482 175.024 169.622 174.774 169.736C174.527 169.849 174.216 169.906 173.841 169.906C173.338 169.906 172.882 169.788 172.473 169.553C172.067 169.314 171.743 168.959 171.501 168.487C171.263 168.013 171.143 167.419 171.143 166.706C171.143 165.987 171.263 165.381 171.501 164.886C171.743 164.389 172.068 164.013 172.477 163.757C172.886 163.499 173.342 163.369 173.845 163.369C174.229 163.369 174.544 163.435 174.791 163.565C175.041 163.693 175.24 163.848 175.388 164.03C175.535 164.209 175.648 164.378 175.724 164.537H175.809V163.455H177.331V170.107C177.331 170.666 177.197 171.129 176.93 171.496C176.663 171.862 176.298 172.136 175.835 172.318C175.372 172.5 174.846 172.591 174.258 172.591ZM174.271 168.696C174.598 168.696 174.876 168.616 175.106 168.457C175.336 168.298 175.511 168.07 175.631 167.771C175.75 167.473 175.809 167.115 175.809 166.697C175.809 166.286 175.75 165.925 175.631 165.615C175.514 165.305 175.341 165.065 175.111 164.895C174.883 164.722 174.604 164.635 174.271 164.635C173.927 164.635 173.64 164.724 173.41 164.903C173.18 165.082 173.007 165.328 172.89 165.641C172.774 165.95 172.716 166.303 172.716 166.697C172.716 167.098 172.774 167.449 172.89 167.75C173.01 168.048 173.184 168.281 173.415 168.449C173.648 168.614 173.933 168.696 174.271 168.696ZM180.723 168.807L180.667 169.276C180.628 169.634 180.557 169.997 180.454 170.366C180.355 170.739 180.25 171.081 180.139 171.393C180.028 171.706 179.939 171.952 179.871 172.131H178.831C178.871 171.957 178.925 171.722 178.993 171.423C179.064 171.125 179.132 170.79 179.197 170.418C179.263 170.045 179.307 169.668 179.329 169.284L179.359 168.807H180.723ZM190.331 165.185L188.925 165.338C188.885 165.196 188.816 165.062 188.716 164.938C188.619 164.812 188.489 164.712 188.324 164.635C188.159 164.558 187.958 164.52 187.719 164.52C187.398 164.52 187.128 164.589 186.909 164.729C186.693 164.868 186.587 165.048 186.59 165.27C186.587 165.46 186.656 165.615 186.798 165.734C186.943 165.854 187.182 165.952 187.514 166.028L188.631 166.267C189.25 166.401 189.71 166.612 190.012 166.902C190.316 167.192 190.469 167.571 190.472 168.04C190.469 168.452 190.348 168.815 190.11 169.131C189.874 169.443 189.546 169.687 189.125 169.864C188.705 170.04 188.222 170.128 187.676 170.128C186.875 170.128 186.23 169.96 185.742 169.625C185.253 169.287 184.962 168.817 184.868 168.214L186.372 168.07C186.441 168.365 186.585 168.588 186.807 168.739C187.029 168.889 187.317 168.964 187.672 168.964C188.039 168.964 188.333 168.889 188.554 168.739C188.779 168.588 188.891 168.402 188.891 168.18C188.891 167.993 188.818 167.838 188.673 167.716C188.531 167.594 188.31 167.5 188.009 167.435L186.892 167.2C186.264 167.07 185.8 166.849 185.499 166.54C185.198 166.227 185.048 165.832 185.051 165.355C185.048 164.952 185.158 164.602 185.379 164.307C185.604 164.009 185.915 163.778 186.313 163.616C186.713 163.452 187.175 163.369 187.698 163.369C188.465 163.369 189.068 163.533 189.509 163.859C189.952 164.186 190.226 164.628 190.331 165.185ZM194.642 170.128C193.985 170.128 193.419 169.991 192.941 169.719C192.467 169.443 192.102 169.054 191.846 168.551C191.59 168.045 191.463 167.45 191.463 166.766C191.463 166.092 191.59 165.501 191.846 164.993C192.105 164.482 192.465 164.084 192.928 163.8C193.392 163.513 193.936 163.369 194.561 163.369C194.964 163.369 195.345 163.435 195.703 163.565C196.063 163.693 196.382 163.892 196.657 164.162C196.936 164.432 197.154 164.776 197.313 165.193C197.472 165.608 197.552 166.102 197.552 166.676V167.149H192.187V166.109H196.073C196.07 165.814 196.007 165.551 195.882 165.321C195.757 165.088 195.582 164.905 195.357 164.771C195.136 164.638 194.877 164.571 194.582 164.571C194.267 164.571 193.99 164.648 193.751 164.801C193.512 164.952 193.326 165.151 193.193 165.398C193.062 165.642 192.995 165.911 192.992 166.203V167.111C192.992 167.491 193.062 167.818 193.201 168.091C193.34 168.361 193.535 168.568 193.785 168.713C194.035 168.855 194.328 168.926 194.663 168.926C194.887 168.926 195.09 168.895 195.272 168.832C195.454 168.767 195.612 168.672 195.745 168.547C195.879 168.422 195.98 168.267 196.048 168.082L197.488 168.244C197.397 168.625 197.224 168.957 196.968 169.241C196.715 169.523 196.392 169.741 195.997 169.898C195.602 170.051 195.15 170.128 194.642 170.128ZM201.286 170.115C200.772 170.115 200.312 169.983 199.905 169.719C199.499 169.455 199.178 169.071 198.942 168.568C198.706 168.065 198.589 167.455 198.589 166.736C198.589 166.009 198.708 165.395 198.947 164.895C199.188 164.392 199.513 164.013 199.922 163.757C200.331 163.499 200.787 163.369 201.29 163.369C201.674 163.369 201.989 163.435 202.236 163.565C202.483 163.693 202.68 163.848 202.824 164.03C202.969 164.209 203.081 164.378 203.161 164.537H203.225V161.273H204.772V170H203.255V168.969H203.161C203.081 169.128 202.966 169.297 202.816 169.476C202.665 169.652 202.466 169.803 202.219 169.928C201.972 170.053 201.661 170.115 201.286 170.115ZM201.716 168.849C202.043 168.849 202.322 168.761 202.552 168.585C202.782 168.406 202.956 168.158 203.076 167.839C203.195 167.521 203.255 167.151 203.255 166.727C203.255 166.304 203.195 165.936 203.076 165.624C202.959 165.311 202.786 165.068 202.556 164.895C202.329 164.722 202.049 164.635 201.716 164.635C201.373 164.635 201.086 164.724 200.856 164.903C200.626 165.082 200.452 165.33 200.336 165.645C200.219 165.96 200.161 166.321 200.161 166.727C200.161 167.136 200.219 167.501 200.336 167.822C200.455 168.141 200.63 168.392 200.86 168.577C201.093 168.759 201.378 168.849 201.716 168.849ZM206.416 170V163.455H207.958V170H206.416ZM207.191 162.526C206.947 162.526 206.737 162.445 206.561 162.283C206.384 162.118 206.296 161.92 206.296 161.69C206.296 161.457 206.384 161.26 206.561 161.098C206.737 160.933 206.947 160.851 207.191 160.851C207.438 160.851 207.649 160.933 207.822 161.098C207.998 161.26 208.086 161.457 208.086 161.69C208.086 161.92 207.998 162.118 207.822 162.283C207.649 162.445 207.438 162.526 207.191 162.526ZM210.951 167.946L210.947 166.084H211.194L213.546 163.455H215.349L212.455 166.676H212.135L210.951 167.946ZM209.545 170V161.273H211.087V170H209.545ZM213.653 170L211.522 167.021L212.562 165.935L215.498 170H213.653ZM216.377 170V163.455H217.919V170H216.377ZM217.152 162.526C216.908 162.526 216.698 162.445 216.521 162.283C216.345 162.118 216.257 161.92 216.257 161.69C216.257 161.457 216.345 161.26 216.521 161.098C216.698 160.933 216.908 160.851 217.152 160.851C217.399 160.851 217.61 160.933 217.783 161.098C217.959 161.26 218.047 161.457 218.047 161.69C218.047 161.92 217.959 162.118 217.783 162.283C217.61 162.445 217.399 162.526 217.152 162.526ZM222.774 163.455V164.648H219.011V163.455H222.774ZM219.94 161.886H221.483V168.031C221.483 168.239 221.514 168.398 221.577 168.509C221.642 168.616 221.727 168.69 221.832 168.73C221.937 168.77 222.054 168.79 222.182 168.79C222.278 168.79 222.366 168.783 222.446 168.768C222.528 168.754 222.591 168.741 222.633 168.73L222.893 169.936C222.811 169.964 222.693 169.996 222.54 170.03C222.389 170.064 222.204 170.084 221.986 170.089C221.599 170.101 221.251 170.043 220.942 169.915C220.632 169.784 220.386 169.582 220.204 169.31C220.025 169.037 219.937 168.696 219.94 168.287V161.886ZM228.583 161.273V170H227.041V161.273H228.583ZM232.053 170.132C231.638 170.132 231.265 170.058 230.932 169.911C230.603 169.76 230.341 169.538 230.148 169.246C229.958 168.953 229.863 168.592 229.863 168.163C229.863 167.794 229.931 167.489 230.067 167.247C230.204 167.006 230.39 166.812 230.626 166.668C230.861 166.523 231.127 166.413 231.422 166.339C231.721 166.263 232.029 166.207 232.347 166.173C232.731 166.134 233.042 166.098 233.28 166.067C233.519 166.033 233.692 165.982 233.8 165.913C233.911 165.842 233.966 165.733 233.966 165.585V165.56C233.966 165.239 233.871 164.99 233.681 164.814C233.491 164.638 233.216 164.55 232.858 164.55C232.481 164.55 232.181 164.632 231.959 164.797C231.741 164.962 231.593 165.156 231.516 165.381L230.076 165.176C230.189 164.778 230.377 164.446 230.638 164.179C230.9 163.909 231.219 163.707 231.597 163.574C231.975 163.438 232.393 163.369 232.85 163.369C233.165 163.369 233.479 163.406 233.792 163.48C234.104 163.554 234.39 163.676 234.648 163.847C234.907 164.014 235.114 164.243 235.27 164.533C235.43 164.822 235.509 165.185 235.509 165.619V170H234.026V169.101H233.975C233.881 169.283 233.749 169.453 233.579 169.612C233.411 169.768 233.199 169.895 232.944 169.991C232.691 170.085 232.394 170.132 232.053 170.132ZM232.454 168.999C232.763 168.999 233.032 168.937 233.259 168.815C233.486 168.69 233.661 168.526 233.783 168.321C233.908 168.116 233.971 167.893 233.971 167.652V166.881C233.922 166.92 233.84 166.957 233.724 166.991C233.61 167.026 233.482 167.055 233.34 167.081C233.198 167.107 233.057 167.129 232.918 167.149C232.779 167.169 232.658 167.186 232.556 167.2C232.326 167.232 232.12 167.283 231.938 167.354C231.756 167.425 231.613 167.524 231.508 167.652C231.403 167.777 231.35 167.939 231.35 168.138C231.35 168.422 231.454 168.636 231.661 168.781C231.868 168.926 232.133 168.999 232.454 168.999ZM239.907 172.591C239.353 172.591 238.877 172.516 238.479 172.365C238.081 172.217 237.762 172.018 237.52 171.768C237.279 171.518 237.111 171.241 237.018 170.938L238.407 170.601C238.469 170.729 238.56 170.855 238.68 170.98C238.799 171.108 238.959 171.213 239.161 171.295C239.366 171.381 239.623 171.423 239.932 171.423C240.37 171.423 240.732 171.317 241.019 171.104C241.306 170.893 241.449 170.547 241.449 170.064V168.824H241.373C241.293 168.983 241.177 169.146 241.023 169.314C240.873 169.482 240.672 169.622 240.422 169.736C240.175 169.849 239.864 169.906 239.489 169.906C238.986 169.906 238.53 169.788 238.121 169.553C237.715 169.314 237.391 168.959 237.15 168.487C236.911 168.013 236.792 167.419 236.792 166.706C236.792 165.987 236.911 165.381 237.15 164.886C237.391 164.389 237.716 164.013 238.126 163.757C238.535 163.499 238.991 163.369 239.493 163.369C239.877 163.369 240.192 163.435 240.439 163.565C240.689 163.693 240.888 163.848 241.036 164.03C241.184 164.209 241.296 164.378 241.373 164.537H241.458V163.455H242.979V170.107C242.979 170.666 242.846 171.129 242.579 171.496C242.312 171.862 241.947 172.136 241.483 172.318C241.02 172.5 240.495 172.591 239.907 172.591ZM239.92 168.696C240.246 168.696 240.525 168.616 240.755 168.457C240.985 168.298 241.16 168.07 241.279 167.771C241.398 167.473 241.458 167.115 241.458 166.697C241.458 166.286 241.398 165.925 241.279 165.615C241.162 165.305 240.989 165.065 240.759 164.895C240.532 164.722 240.252 164.635 239.92 164.635C239.576 164.635 239.289 164.724 239.059 164.903C238.829 165.082 238.655 165.328 238.539 165.641C238.422 165.95 238.364 166.303 238.364 166.697C238.364 167.098 238.422 167.449 238.539 167.75C238.658 168.048 238.833 168.281 239.063 168.449C239.296 168.614 239.581 168.696 239.92 168.696ZM244.56 170V163.455H246.103V170H244.56ZM245.336 162.526C245.091 162.526 244.881 162.445 244.705 162.283C244.529 162.118 244.441 161.92 244.441 161.69C244.441 161.457 244.529 161.26 244.705 161.098C244.881 160.933 245.091 160.851 245.336 160.851C245.583 160.851 245.793 160.933 245.966 161.098C246.143 161.26 246.231 161.457 246.231 161.69C246.231 161.92 246.143 162.118 245.966 162.283C245.793 162.445 245.583 162.526 245.336 162.526ZM252.208 166.165V170H250.666V163.455H252.14V164.567H252.217C252.367 164.2 252.607 163.909 252.937 163.693C253.269 163.477 253.68 163.369 254.169 163.369C254.62 163.369 255.014 163.466 255.349 163.659C255.687 163.852 255.948 164.132 256.133 164.499C256.32 164.865 256.413 165.31 256.41 165.832V170H254.867V166.071C254.867 165.634 254.754 165.291 254.526 165.044C254.302 164.797 253.991 164.673 253.593 164.673C253.323 164.673 253.083 164.733 252.873 164.852C252.666 164.969 252.502 165.138 252.383 165.359C252.267 165.581 252.208 165.849 252.208 166.165ZM257.978 170V163.455H259.521V170H257.978ZM258.754 162.526C258.509 162.526 258.299 162.445 258.123 162.283C257.947 162.118 257.859 161.92 257.859 161.69C257.859 161.457 257.947 161.26 258.123 161.098C258.299 160.933 258.509 160.851 258.754 160.851C259.001 160.851 259.211 160.933 259.384 161.098C259.561 161.26 259.649 161.457 259.649 161.69C259.649 161.92 259.561 162.118 259.384 162.283C259.211 162.445 259.001 162.526 258.754 162.526ZM262.65 166.165V170H261.107V161.273H262.616V164.567H262.692C262.846 164.197 263.083 163.906 263.404 163.693C263.728 163.477 264.14 163.369 264.64 163.369C265.094 163.369 265.491 163.464 265.829 163.655C266.167 163.845 266.428 164.124 266.613 164.49C266.8 164.857 266.894 165.304 266.894 165.832V170H265.351V166.071C265.351 165.631 265.238 165.288 265.01 165.044C264.786 164.797 264.471 164.673 264.064 164.673C263.792 164.673 263.547 164.733 263.331 164.852C263.118 164.969 262.951 165.138 262.829 165.359C262.709 165.581 262.65 165.849 262.65 166.165ZM270.354 161.273L270.214 167.435H268.841L268.705 161.273H270.354ZM269.528 170.094C269.269 170.094 269.047 170.003 268.863 169.821C268.681 169.639 268.59 169.418 268.59 169.156C268.59 168.901 268.681 168.682 268.863 168.5C269.047 168.318 269.269 168.227 269.528 168.227C269.78 168.227 269.999 168.318 270.184 168.5C270.371 168.682 270.465 168.901 270.465 169.156C270.465 169.33 270.421 169.487 270.333 169.629C270.248 169.771 270.134 169.885 269.992 169.97C269.853 170.053 269.698 170.094 269.528 170.094Z" fill="#344054"/>
<path d="M186.071 180.485C186.962 180.485 187.408 181.562 186.778 182.192L180.707 188.263C180.317 188.654 179.683 188.654 179.293 188.263L173.222 182.192C172.592 181.562 173.038 180.485 173.929 180.485L186.071 180.485Z" fill="white"/>
</g>
</g>
<defs>
<filter id="filter0_dd_8017_25582" x="59" y="149" width="242" height="64" filterUnits="userSpaceOnUse" color-interpolation-filters="sRGB">
<feFlood flood-opacity="0" result="BackgroundImageFix"/>
<feColorMatrix in="SourceAlpha" type="matrix" values="0 0 0 0 0 0 0 0 0 0 0 0 0 0 0 0 0 0 127 0" result="hardAlpha"/>
<feMorphology radius="2" operator="erode" in="SourceAlpha" result="effect1_dropShadow_8017_25582"/>
<feOffset dy="4"/>
<feGaussianBlur stdDeviation="3"/>
<feColorMatrix type="matrix" values="0 0 0 0 0.0627451 0 0 0 0 0.0941176 0 0 0 0 0.156863 0 0 0 0.03 0"/>
<feBlend mode="normal" in2="BackgroundImageFix" result="effect1_dropShadow_8017_25582"/>
<feColorMatrix in="SourceAlpha" type="matrix" values="0 0 0 0 0 0 0 0 0 0 0 0 0 0 0 0 0 0 127 0" result="hardAlpha"/>
<feMorphology radius="4" operator="erode" in="SourceAlpha" result="effect2_dropShadow_8017_25582"/>
<feOffset dy="12"/>
<feGaussianBlur stdDeviation="8"/>
<feColorMatrix type="matrix" values="0 0 0 0 0.0627451 0 0 0 0 0.0941176 0 0 0 0 0.156863 0 0 0 0.08 0"/>
<feBlend mode="normal" in2="effect1_dropShadow_8017_25582" result="effect2_dropShadow_8017_25582"/>
<feBlend mode="normal" in="SourceGraphic" in2="effect2_dropShadow_8017_25582" result="shape"/>
</filter>
<radialGradient id="paint0_radial_8017_25582" cx="0" cy="0" r="1" gradientUnits="userSpaceOnUse" gradientTransform="translate(916.61 171.455) rotate(60) scale(1080.63 1049.59)">
<stop stop-color="white"/>
<stop offset="1" stop-color="#231F20"/>
</radialGradient>
<clipPath id="clip0_8017_25582">
<path d="M0 0H360V408C360 414.627 354.627 420 348 420H12C5.37259 420 0 414.627 0 408V0Z" fill="white"/>
</clipPath>
</defs>
</svg>
