<svg width="360" height="420" viewBox="0 0 360 420" fill="none" xmlns="http://www.w3.org/2000/svg">
<g clip-path="url(#clip0_8017_26736)">
<path d="M0 0H360V408C360 414.627 354.627 420 348 420H12C5.37259 420 0 414.627 0 408V0Z" fill="#A5DAFC"/>
<path d="M46 331.516C35.2 331.116 1.83333 348.016 -13.5 356.516V438.016H382.5C387.5 400.682 390 325.816 360 325.016C330 324.216 314.167 354.349 310 369.516C288.167 378.516 241.2 393.616 228 382.016C211.5 367.516 164.5 345.016 152 356.516C139.5 368.015 107 356.516 91.5 356.516C76 356.516 59.5 332.016 46 331.516Z" fill="#33F548"/>
<path opacity="0.5" d="M-75.2437 -768.364L814.054 -376.194L927.086 -135.421L-139.841 -697.646L-158.911 -659.376L1101.01 160.206L1148.95 396.579L860.364 496.344L-198.199 -329.714L-212.818 -226.739L694.937 638.648L596.35 648.775L-233.304 -187.707L-281.115 -118.448L409.915 779.811L226.622 805.417L-34.7957 571.973L-395.771 -148.866L-271.953 -704.929L-75.2437 -768.364Z" fill="url(#paint0_radial_8017_26736)" style="mix-blend-mode:overlay"/>
<path d="M-14.5 339.001C-62.1 348.601 -39.0002 368.834 -43.0002 372.5V500.5H328L368.5 422L416 372.5L389.5 316C360.5 372.5 226 379.5 193 379.5C45.9998 379.5 45 327.001 -14.5 339.001Z" fill="#09DE20"/>
<path d="M411.263 150.658L247.245 145.707L284.039 134.859C285.891 132.011 288.533 129.754 291.651 128.356C294.77 126.958 298.234 126.477 301.632 126.97C301.632 126.97 305.9 110.864 325.287 115.241C325.287 115.241 331.434 92.217 354.758 94.5455C360.973 94.9153 366.807 97.6885 370.999 102.266C375.191 106.844 377.405 112.858 377.162 119.01C377.162 119.01 391.38 116.43 391.436 128.787C392.825 129.13 394.127 129.763 395.252 130.643C396.377 131.524 397.3 132.632 397.959 133.892C398.617 135.152 398.997 136.535 399.071 137.949C399.145 139.363 398.912 140.774 398.388 142.087L411.263 150.658Z" fill="white"/>
<path d="M270.123 143.678L402.372 148.058L392.277 140.395C392.277 140.395 394.845 133.776 386.593 131.042C385.868 127.732 383.866 124.825 381.016 122.94C378.165 121.056 374.69 120.343 371.331 120.953C371.331 120.953 373.912 104.422 352.667 101.862C331.423 99.3022 328.295 119.865 328.295 119.865C328.295 119.865 313.041 117.792 307.539 131.265C304.391 130.529 301.087 130.901 298.199 132.317C295.312 133.734 293.02 136.107 291.72 139.026L270.123 143.678Z" fill="#F1F2F2"/>
<path d="M-43.6571 247.643L88.2996 243.66L58.6979 234.932C57.2081 232.641 55.0826 230.826 52.5736 229.701C50.0647 228.576 47.2779 228.188 44.5437 228.585C44.5437 228.585 41.1103 215.628 25.5129 219.149C25.5129 219.149 20.5671 200.626 1.80238 202.499C-3.19783 202.797 -7.89112 205.028 -11.2636 208.71C-14.6361 212.393 -16.4172 217.232 -16.2219 222.181C-16.2219 222.181 -27.6609 220.106 -27.7056 230.047C-28.8237 230.323 -29.8706 230.832 -30.7759 231.541C-31.6811 232.249 -32.4237 233.14 -32.9536 234.154C-33.4836 235.168 -33.7886 236.281 -33.8482 237.418C-33.9077 238.556 -33.7205 239.691 -33.299 240.748L-43.6571 247.643Z" fill="white"/>
<path d="M69.8942 242.027L-36.5038 245.551L-28.3827 239.386C-28.3827 239.386 -30.4483 234.061 -23.8092 231.862C-23.2259 229.198 -21.616 226.86 -19.3224 225.343C-17.0288 223.827 -14.2329 223.254 -11.5305 223.745C-11.5305 223.745 -13.6073 210.445 3.48456 208.385C20.5764 206.326 23.093 222.869 23.093 222.869C23.093 222.869 35.365 221.202 39.7912 232.041C42.3246 231.448 44.9821 231.748 47.3055 232.888C49.6289 234.027 51.4724 235.936 52.5181 238.285L69.8942 242.027Z" fill="#F1F2F2"/>
<path d="M310 405.5L134 424H373V392H317.5C303.5 392 306.667 401 310 405.5Z" fill="#00AA13"/>
<path d="M29.5 395C43.5 395 53.3333 401 50 405.5C50 405.5 95.979 397.462 129 409C148.892 415.95 186.5 435.5 186.5 435.5L-13 424L-10 409C2.66667 409 15.5 395 29.5 395Z" fill="#00AA13"/>
<path d="M54 383L49.5 386.5L50.5 381.5L47.5 378L55 379L57.5 377L61.5 381.5L64 380V384L69.5 381.5V386.5L64 388.5L59.5 390L57.5 383L54 388.5V383Z" fill="#00AA13"/>
<path d="M146.455 406.769L148.909 404.885L148.364 407.577L150 409.462L145.909 408.923L144.545 410L142.364 407.577L141 408.385V406.231L138 407.577V404.885L141 403.808L143.455 403L144.545 406.769L146.455 403.808V406.769Z" fill="#00AA13"/>
<path d="M165.136 384.288L162.326 382.065L163.116 385.428L161.471 387.908L165.887 386.972L167.451 388.244L169.651 385.05L171.195 385.983L171.044 383.374L171.257 383.364L174.403 384.775L173.602 383.248L171.257 383.364L171.038 383.265L171.044 383.374L170.535 383.399L168.129 379.343L167.216 384.168L164.92 380.551L165.136 384.288Z" fill="#00AA13"/>
<path d="M352.5 370L348 366.5L349 371.5L346 375L353.5 374L356 376L360 371.5L362.5 373V369L368 371.5V366.5L362.5 364.5L358 363L356 370L352.5 364.5V370Z" fill="#00AA13"/>
<path d="M280.5 391L285 394.5L284 389.5L287 386L279.5 387L277 385L273 389.5L270.5 388V392H266.5L269 393.5V398L271.5 394.5V399.5L274.5 392L276 395.5L278 393.5L280.5 396.5V391Z" fill="#00AA13"/>
<path d="M244.018 270.486C243.436 270.195 242.562 270.486 242.271 271.068C242.271 271.068 242.126 271.359 241.835 271.942C241.544 272.524 241.107 273.252 240.38 274.271C239.07 276.164 236.742 278.785 233.54 281.115C230.193 283.59 225.973 285.774 221.171 288.103C216.369 290.287 211.13 292.617 206.036 295.383C200.943 298.295 196.432 301.789 192.357 305.429C188.865 308.632 185.954 312.272 183.917 315.767L182.753 263.497C182.753 260.585 183.335 257.528 184.79 254.907C185.663 253.305 187.119 251.849 188.719 250.393C191.921 247.481 195.995 245.006 199.925 242.386C203.999 239.91 208.219 237.581 212.003 235.106C215.932 232.631 219.279 230.01 222.044 227.389C223.354 226.079 224.518 224.768 225.391 223.604C226.264 222.439 226.992 221.274 227.574 220.255C228.156 219.381 228.447 218.508 228.738 217.925C229.029 217.343 229.174 217.052 229.174 217.052C229.465 216.469 229.174 215.741 228.592 215.304C228.01 215.013 227.137 215.304 226.846 215.887V216.032C226.846 216.032 226.701 216.324 226.555 216.76C226.264 217.197 226.118 217.925 225.536 218.799C225.1 219.672 224.372 220.692 223.499 221.711C222.626 222.73 221.607 224.04 220.298 225.205C217.824 227.535 214.477 230.01 210.548 232.339C206.764 234.669 202.544 236.853 198.324 239.328C194.104 241.803 190.029 244.278 186.391 247.481C185.081 248.646 183.772 249.957 182.608 251.413L181.007 179.051C181.007 171.771 178.096 171.771 178.096 179.051L176.641 243.696C176.35 243.405 176.205 243.114 176.059 242.822C175.622 242.24 174.895 241.512 174.313 240.93C173.003 239.619 171.693 238.454 170.238 237.29C168.783 236.125 167.182 234.96 165.581 233.941C163.981 232.922 162.38 231.757 160.779 230.738C157.723 228.554 154.813 225.933 152.193 223.458C149.574 220.983 146.955 218.653 144.481 216.906C142.152 215.013 139.824 213.848 138.078 213.121C137.205 212.684 136.623 212.538 136.186 212.393C135.749 212.247 135.458 212.101 135.458 212.101C134.876 211.956 134.149 212.247 133.858 212.829C133.567 213.557 134.003 214.285 134.585 214.431H134.731C134.731 214.431 134.876 214.576 135.313 214.722C135.75 214.868 136.332 215.013 137.059 215.45C138.514 216.032 140.552 217.197 142.735 219.09C147.246 222.584 152.339 228.554 158.742 233.504C160.343 234.669 161.943 235.834 163.399 236.998C164.999 238.163 166.455 239.182 167.764 240.347C169.074 241.512 170.384 242.677 171.402 243.696C171.984 244.278 172.421 244.715 172.858 245.443C173.294 246.026 173.731 246.608 174.022 247.045C175.622 249.52 176.35 252.577 176.205 255.489L175.768 286.793C174.749 284.609 173.294 282.425 171.693 280.241C170.093 278.057 168.055 276.019 166.018 273.835C161.943 269.612 157.141 265.536 151.902 262.041C146.664 258.547 141.134 255.489 135.604 253.305C130.074 251.121 124.69 249.957 119.888 249.52C115.231 249.083 111.156 249.374 108.391 249.811C107.082 249.957 105.918 250.248 105.19 250.393C104.462 250.539 104.026 250.685 104.026 250.685C103.298 250.83 102.862 251.413 103.007 252.141C103.153 252.869 103.735 253.305 104.462 253.16H104.608C104.608 253.16 105.044 253.16 105.627 253.014C106.354 252.869 107.373 252.723 108.682 252.577C111.302 252.286 115.085 251.995 119.451 252.577C123.962 253.014 129.056 254.325 134.294 256.509C139.533 258.692 144.772 261.604 149.72 265.099C154.667 268.593 159.178 272.524 163.108 276.747C164.999 278.785 166.891 280.823 168.346 282.862C169.802 284.9 171.111 286.938 171.984 288.831C173.876 292.762 174.604 296.402 175.04 298.877C175.186 300.188 175.186 301.061 175.331 301.789L174.749 331.346C174.749 331.346 174.749 331.346 174.749 331.2C174.313 330.181 173.876 329.307 173.294 328.288C172.13 326.25 170.82 324.357 169.365 322.755C167.91 321.008 166.309 319.552 164.854 318.096C161.798 315.33 158.596 313.146 155.686 311.399C150.011 307.904 145.936 306.303 145.936 306.303C145.354 306.012 144.626 306.303 144.335 307.031C144.044 307.613 144.335 308.487 145.063 308.632C145.063 308.632 148.992 310.234 154.376 313.728C156.996 315.475 160.052 317.659 162.962 320.426C164.417 321.736 165.727 323.192 167.037 324.794C168.346 326.395 169.511 328.142 170.384 329.89C170.82 330.763 171.257 331.782 171.693 332.802C171.984 333.821 172.421 334.694 172.712 335.714C174.022 339.353 174.604 343.285 174.458 347.216L173.731 382.596H170.82C167.619 382.596 164.999 385.217 164.999 388.42H193.813C193.813 385.217 191.193 382.596 187.992 382.596H185.081L184.063 330.181C183.917 326.541 184.645 322.901 186.391 319.552C188.283 316.058 191.193 312.272 194.831 308.632C198.469 305.138 202.981 301.789 207.637 298.877C212.294 295.965 217.533 293.636 222.189 291.306C226.992 288.977 231.357 286.502 234.85 283.735C238.342 280.969 240.816 278.203 242.126 276.019C242.853 274.999 243.29 273.98 243.581 273.398C243.872 272.815 244.018 272.379 244.018 272.379C244.891 271.651 244.6 270.777 244.018 270.486Z" fill="#8A5530"/>
<path d="M179.552 146C174.459 148.912 170.966 157.065 170.966 163.18C170.966 169.296 174.459 171.916 179.552 174.828C184.645 171.916 188.138 169.296 188.138 163.18C188.138 157.065 184.791 148.912 179.552 146Z" fill="#B0B43D"/>
<path d="M179.552 146V174.828C184.645 171.916 188.138 169.296 188.138 163.18C188.138 157.065 184.791 148.912 179.552 146Z" fill="#6C8336"/>
<path d="M214.913 260.731C220.734 261.313 227.282 267.428 229.611 273.106C232.085 278.785 229.902 282.57 226.264 287.229C220.443 286.647 216.223 285.628 213.749 279.95C211.275 274.271 211.275 265.39 214.913 260.731Z" fill="#B0B43D"/>
<path d="M214.913 260.731L226.41 287.229C220.589 286.647 216.369 285.628 213.895 279.95C211.275 274.271 211.275 265.39 214.913 260.731Z" fill="#6C8336"/>
<path d="M194.832 270.923C200.507 272.379 206.037 279.367 207.638 285.191C209.239 291.161 206.619 294.509 202.254 298.732C196.578 297.276 192.504 295.674 190.903 289.705C189.448 283.881 190.612 275.145 194.832 270.923Z" fill="#B0B43D"/>
<path d="M194.832 270.923L202.399 298.732C196.724 297.276 192.649 295.674 191.049 289.705C189.448 283.881 190.612 275.145 194.832 270.923Z" fill="#6C8336"/>
<path d="M206.037 202.201C202.545 207.005 202.836 215.887 205.309 221.42C207.929 226.952 212.149 227.971 217.97 228.408C221.462 223.604 223.5 219.818 221.026 214.285C218.552 208.607 212.003 202.637 206.037 202.201Z" fill="#B0B43D"/>
<path d="M206.037 202.201L218.115 228.408C221.608 223.604 223.645 219.818 221.171 214.285C218.552 208.607 212.003 202.637 206.037 202.201Z" fill="#6C8336"/>
<path d="M248.384 230.301C245.182 235.251 236.888 238.309 230.776 238.018C224.664 237.726 222.19 234.086 219.716 228.699C222.918 223.749 225.682 220.4 231.794 220.691C237.906 221.128 245.764 225.059 248.384 230.301Z" fill="#B0B43D"/>
<path d="M248.384 230.301L219.57 228.699C222.772 223.749 225.537 220.4 231.649 220.691C237.906 221.128 245.764 225.059 248.384 230.301Z" fill="#6C8336"/>
<path d="M224.518 254.47C219.861 258.11 210.984 258.11 205.309 255.635C199.634 253.16 198.615 248.937 198.033 243.113C202.69 239.473 206.473 237.289 212.149 239.765C217.678 242.094 223.79 248.5 224.518 254.47Z" fill="#B0B43D"/>
<path d="M224.518 254.47L198.033 243.113C202.69 239.473 206.473 237.289 212.149 239.765C217.678 242.094 223.79 248.5 224.518 254.47Z" fill="#6C8336"/>
<path d="M191.048 213.849C186.682 217.925 185.373 226.661 186.828 232.631C188.283 238.6 192.358 240.202 198.033 241.803C202.399 237.727 205.018 234.378 203.563 228.408C202.108 222.439 196.723 215.45 191.048 213.849Z" fill="#B0B43D"/>
<path d="M191.048 213.849L198.033 241.804C202.398 237.727 205.018 234.378 203.562 228.409C202.107 222.439 196.723 215.45 191.048 213.849Z" fill="#6C8336"/>
<path d="M155.54 175.993C160.925 173.664 169.51 175.848 174.458 179.633C179.26 183.419 179.26 187.787 178.387 193.611C173.003 195.94 168.783 197.105 163.835 193.319C159.033 189.534 154.667 181.817 155.54 175.993Z" fill="#B0B43D"/>
<path d="M155.541 175.993L178.387 193.61C173.003 195.94 168.783 197.105 163.835 193.319C159.033 189.534 154.667 181.817 155.541 175.993Z" fill="#6C8336"/>
<path d="M206.182 189.388C201.089 186.33 192.358 187.35 186.973 190.262C181.589 193.319 181.007 197.541 181.152 203.511C186.246 206.568 190.175 208.316 195.559 205.258C200.798 202.346 206.182 195.357 206.182 189.388Z" fill="#B0B43D"/>
<path d="M206.182 189.388L181.152 203.511C186.246 206.569 190.175 208.316 195.559 205.258C200.798 202.346 206.182 195.358 206.182 189.388Z" fill="#6C8336"/>
<path d="M158.015 193.174C152.048 193.319 145.209 198.997 142.444 204.385C139.679 209.917 141.571 213.703 144.772 218.653C150.739 218.508 154.959 217.78 157.869 212.247C160.634 207.005 161.216 198.124 158.015 193.174Z" fill="#B0B43D"/>
<path d="M158.015 193.174L144.772 218.799C150.739 218.653 154.959 217.925 157.869 212.392C160.634 207.005 161.216 198.124 158.015 193.174Z" fill="#6C8336"/>
<path d="M127.746 237.726C128.328 231.902 134.44 225.496 140.115 223.021C145.791 220.546 149.574 222.73 154.231 226.37C153.649 232.194 152.63 236.416 146.955 238.891C141.279 241.366 132.403 241.366 127.746 237.726Z" fill="#B0B43D"/>
<path d="M127.746 237.726L154.231 226.37C153.649 232.194 152.63 236.416 146.955 238.891C141.279 241.366 132.403 241.366 127.746 237.726Z" fill="#6C8336"/>
<path d="M170.239 205.986C164.564 207.588 159.179 214.576 157.724 220.691C156.269 226.661 159.034 230.01 163.399 234.086C169.075 232.485 173.149 230.883 174.605 224.914C176.06 218.799 174.605 210.063 170.239 205.986Z" fill="#B0B43D"/>
<path d="M170.239 205.986L163.399 233.941C169.075 232.339 173.149 230.738 174.605 224.768C176.06 218.799 174.605 210.063 170.239 205.986Z" fill="#6C8336"/>
<path d="M233.831 188.223C228.156 189.971 223.208 197.25 221.898 203.366C220.589 209.335 223.499 212.684 228.01 216.469C233.686 214.722 237.615 212.829 238.779 206.86C240.089 200.745 238.342 192.155 233.831 188.223Z" fill="#B0B43D"/>
<path d="M233.831 188.223L228.01 216.469C233.686 214.722 237.615 212.829 238.779 206.86C240.089 200.745 238.342 192.155 233.831 188.223Z" fill="#6C8336"/>
<path d="M119.451 299.023C123.816 294.946 132.548 294.073 138.514 295.965C144.335 297.858 145.79 301.935 146.954 307.759C142.589 311.836 139.096 314.311 133.275 312.418C127.309 310.671 120.615 304.847 119.451 299.023Z" fill="#B0B43D"/>
<path d="M119.45 299.023L146.954 307.759C142.588 311.836 139.096 314.311 133.275 312.418C127.309 310.671 120.615 304.847 119.45 299.023Z" fill="#6C8336"/>
<path d="M250.712 248.355C244.891 249.229 238.779 255.78 236.742 261.459C234.559 267.283 237.033 270.923 240.817 275.29C246.638 274.417 250.858 273.107 252.895 267.283C255.078 261.75 254.496 252.868 250.712 248.355Z" fill="#B0B43D"/>
<path d="M250.712 248.355L240.817 275.436C246.638 274.563 250.858 273.252 252.895 267.428C255.078 261.75 254.496 252.868 250.712 248.355Z" fill="#6C8336"/>
<path d="M137.059 331.782C136.623 325.813 141.425 318.533 146.664 315.038C151.757 311.69 155.832 313.146 161.07 315.766C161.507 321.736 161.216 325.958 156.123 329.453C151.029 332.947 142.298 334.548 137.059 331.782Z" fill="#B0B43D"/>
<path d="M137.059 331.782L161.07 315.912C161.507 321.882 161.216 326.104 156.123 329.598C151.029 332.947 142.298 334.549 137.059 331.782Z" fill="#6C8336"/>
<path d="M168.056 286.064C162.09 286.21 155.395 291.888 152.485 297.421C149.72 302.954 151.612 306.739 154.813 311.69C160.78 311.544 165 310.816 167.765 305.283C170.675 299.896 171.257 291.015 168.056 286.064Z" fill="#B0B43D"/>
<path d="M168.055 286.064L154.958 311.69C160.925 311.544 165.145 310.816 167.91 305.283C170.675 299.896 171.257 291.015 168.055 286.064Z" fill="#6C8336"/>
<path d="M110.283 208.461C114.212 204.093 122.943 202.346 128.91 203.657C134.876 204.967 136.768 208.898 138.369 214.576C134.44 218.944 131.093 221.856 125.126 220.546C119.16 219.235 112.029 214.14 110.283 208.461Z" fill="#B0B43D"/>
<path d="M110.283 208.461L138.369 214.722C134.44 219.09 131.093 222.002 125.126 220.692C119.16 219.236 112.029 214.14 110.283 208.461Z" fill="#6C8336"/>
<path d="M80.3062 254.47C82.6345 249.083 90.3472 244.715 96.4591 244.133C102.571 243.55 105.481 246.608 108.974 251.558C106.646 256.945 104.463 260.731 98.3508 261.313C92.2389 261.895 83.6532 259.275 80.3062 254.47Z" fill="#B0B43D"/>
<path d="M80.3064 254.47L108.974 251.412C106.646 256.799 104.463 260.585 98.3511 261.167C92.2392 261.895 83.6534 259.275 80.3064 254.47Z" fill="#6C8336"/>
<path d="M110.429 223.604C106.354 227.971 105.627 236.707 107.518 242.677C109.41 248.501 113.485 249.957 119.306 251.121C123.38 246.753 125.854 243.259 123.962 237.435C122.071 231.32 116.25 224.623 110.429 223.604Z" fill="#B0B43D"/>
<path d="M110.429 223.604L119.306 250.976C123.38 246.608 125.854 243.114 123.962 237.29C122.071 231.32 116.25 224.623 110.429 223.604Z" fill="#6C8336"/>
<path d="M112.757 269.467C112.903 263.497 118.578 256.8 124.108 253.888C129.638 251.122 133.421 253.014 138.369 256.217C138.223 262.187 137.496 266.409 131.966 269.176C126.582 272.233 117.705 272.816 112.757 269.467Z" fill="#B0B43D"/>
<path d="M112.757 269.467L138.369 256.363C138.223 262.332 137.496 266.555 131.966 269.321C126.582 272.233 117.705 272.815 112.757 269.467Z" fill="#6C8336"/>
<path d="M160.489 237.29C154.668 237.872 148.119 243.987 145.791 249.665C143.317 255.344 145.5 259.129 149.138 263.788C154.959 263.206 159.179 262.187 161.653 256.508C164.127 250.83 164.127 241.949 160.489 237.29Z" fill="#B0B43D"/>
<path d="M160.488 237.29L148.992 263.788C154.813 263.206 159.033 262.187 161.507 256.508C164.126 250.83 164.126 241.949 160.488 237.29Z" fill="#6C8336"/>
<path d="M259.589 291.306C257.843 285.628 250.712 280.532 244.6 279.221C238.634 277.911 235.287 280.823 231.358 285.191C233.104 290.869 234.85 294.8 240.817 296.111C247.074 297.421 255.66 295.674 259.589 291.306Z" fill="#B0B43D"/>
<path d="M259.589 291.306L231.503 285.191C233.249 290.869 234.995 294.801 240.962 296.111C247.074 297.421 255.66 295.674 259.589 291.306Z" fill="#6C8336"/>
<path d="M235.286 311.981C236.305 306.157 232.376 298.295 227.574 294.364C222.771 290.433 218.551 291.452 213.167 293.636C212.148 299.46 211.857 303.828 216.659 307.759C221.171 311.544 229.756 314.165 235.286 311.981Z" fill="#B0B43D"/>
<path d="M235.287 311.981L213.022 293.636C212.003 299.46 211.712 303.828 216.514 307.759C221.171 311.544 229.757 314.165 235.287 311.981Z" fill="#6C8336"/>
<path d="M217.242 317.223C215.35 311.69 207.928 306.74 201.816 305.72C195.705 304.701 192.649 307.613 188.865 312.127C190.757 317.659 192.649 321.591 198.76 322.755C204.872 323.774 213.458 321.882 217.242 317.223Z" fill="#B0B43D"/>
<path d="M217.242 317.223L188.865 312.127C190.757 317.659 192.649 321.591 198.76 322.755C204.872 323.775 213.458 321.882 217.242 317.223Z" fill="#6C8336"/>
<path d="M134.294 279.076C136.186 273.398 143.462 268.447 149.574 267.283C155.686 266.118 158.887 269.03 162.671 273.543C160.779 279.222 158.887 283.007 152.921 284.318C146.809 285.337 138.223 283.59 134.294 279.076Z" fill="#B0B43D"/>
<path d="M134.294 279.076L162.525 273.543C160.634 279.222 158.742 283.007 152.775 284.318C146.809 285.337 138.223 283.59 134.294 279.076Z" fill="#6C8336"/>
<path d="M170.54 389.713L166.375 389.655L158.5 388.286L163 386.5L161 383L164.5 385.713L165 382L167.747 384.798L169.714 381.428L169.77 385.713L171.616 384.114L171.792 386.628L175.067 384.458L174.112 388.286L170.54 389.713Z" fill="#09DE20"/>
<path d="M194.53 390.01L194.468 384.753L193.603 381.212L192.63 385.983L191.48 384.399L190.792 387.213L188.606 385.143L188.552 389.3L191.14 390.512L194.53 390.01Z" fill="#09DE20"/>
<g filter="url(#filter0_dd_8017_26736)">
<rect x="71" y="126" width="218" height="34" rx="12" fill="white"/>
<path d="M85.5943 138.273H87.3798L89.5147 142.134H89.6L91.7349 138.273H93.5204L90.3457 143.744V147H88.769V143.744L85.5943 138.273ZM96.2509 147.128C95.5946 147.128 95.0279 146.991 94.5506 146.719C94.0762 146.443 93.7111 146.054 93.4554 145.551C93.1998 145.045 93.0719 144.45 93.0719 143.766C93.0719 143.092 93.1998 142.501 93.4554 141.993C93.714 141.482 94.0748 141.084 94.5378 140.8C95.0009 140.513 95.5449 140.369 96.1699 140.369C96.5733 140.369 96.954 140.435 97.312 140.565C97.6728 140.693 97.9909 140.892 98.2665 141.162C98.5449 141.432 98.7637 141.776 98.9228 142.193C99.0819 142.608 99.1614 143.102 99.1614 143.676V144.149H93.7963V143.109H97.6827C97.6799 142.814 97.6159 142.551 97.4909 142.321C97.3659 142.088 97.1912 141.905 96.9668 141.771C96.7452 141.638 96.4867 141.571 96.1912 141.571C95.8759 141.571 95.5989 141.648 95.3603 141.801C95.1216 141.952 94.9355 142.151 94.802 142.398C94.6713 142.642 94.6046 142.911 94.6017 143.203V144.111C94.6017 144.491 94.6713 144.818 94.8105 145.091C94.9498 145.361 95.1444 145.568 95.3944 145.713C95.6444 145.855 95.937 145.926 96.2722 145.926C96.4966 145.926 96.6998 145.895 96.8816 145.832C97.0634 145.767 97.2211 145.672 97.3546 145.547C97.4881 145.422 97.589 145.267 97.6571 145.082L99.0975 145.244C99.0066 145.625 98.8333 145.957 98.5776 146.241C98.3248 146.523 98.0009 146.741 97.606 146.898C97.2111 147.051 96.7594 147.128 96.2509 147.128ZM105.64 142.185L104.233 142.338C104.194 142.196 104.124 142.062 104.025 141.938C103.928 141.812 103.797 141.712 103.633 141.635C103.468 141.558 103.266 141.52 103.028 141.52C102.706 141.52 102.437 141.589 102.218 141.729C102.002 141.868 101.895 142.048 101.898 142.27C101.895 142.46 101.965 142.615 102.107 142.734C102.252 142.854 102.491 142.952 102.823 143.028L103.939 143.267C104.559 143.401 105.019 143.612 105.32 143.902C105.624 144.192 105.778 144.571 105.78 145.04C105.778 145.452 105.657 145.815 105.418 146.131C105.182 146.443 104.854 146.687 104.434 146.864C104.013 147.04 103.53 147.128 102.985 147.128C102.184 147.128 101.539 146.96 101.05 146.625C100.562 146.287 100.27 145.817 100.177 145.214L101.681 145.07C101.749 145.365 101.894 145.588 102.116 145.739C102.337 145.889 102.626 145.964 102.981 145.964C103.347 145.964 103.641 145.889 103.863 145.739C104.087 145.588 104.199 145.402 104.199 145.18C104.199 144.993 104.127 144.838 103.982 144.716C103.84 144.594 103.618 144.5 103.317 144.435L102.201 144.2C101.573 144.07 101.108 143.849 100.807 143.54C100.506 143.227 100.357 142.832 100.36 142.355C100.357 141.952 100.466 141.602 100.688 141.307C100.912 141.009 101.224 140.778 101.621 140.616C102.022 140.452 102.483 140.369 103.006 140.369C103.773 140.369 104.377 140.533 104.817 140.859C105.26 141.186 105.535 141.628 105.64 142.185ZM112.226 142.185L110.819 142.338C110.78 142.196 110.71 142.062 110.611 141.938C110.514 141.812 110.383 141.712 110.219 141.635C110.054 141.558 109.852 141.52 109.613 141.52C109.292 141.52 109.023 141.589 108.804 141.729C108.588 141.868 108.481 142.048 108.484 142.27C108.481 142.46 108.551 142.615 108.693 142.734C108.838 142.854 109.077 142.952 109.409 143.028L110.525 143.267C111.145 143.401 111.605 143.612 111.906 143.902C112.21 144.192 112.363 144.571 112.366 145.04C112.363 145.452 112.243 145.815 112.004 146.131C111.768 146.443 111.44 146.687 111.02 146.864C110.599 147.04 110.116 147.128 109.571 147.128C108.77 147.128 108.125 146.96 107.636 146.625C107.148 146.287 106.856 145.817 106.763 145.214L108.267 145.07C108.335 145.365 108.48 145.588 108.702 145.739C108.923 145.889 109.211 145.964 109.567 145.964C109.933 145.964 110.227 145.889 110.449 145.739C110.673 145.588 110.785 145.402 110.785 145.18C110.785 144.993 110.713 144.838 110.568 144.716C110.426 144.594 110.204 144.5 109.903 144.435L108.787 144.2C108.159 144.07 107.694 143.849 107.393 143.54C107.092 143.227 106.943 142.832 106.946 142.355C106.943 141.952 107.052 141.602 107.274 141.307C107.498 141.009 107.809 140.778 108.207 140.616C108.608 140.452 109.069 140.369 109.592 140.369C110.359 140.369 110.963 140.533 111.403 140.859C111.846 141.186 112.121 141.628 112.226 142.185ZM115.449 145.807L115.394 146.276C115.354 146.634 115.283 146.997 115.181 147.366C115.081 147.739 114.976 148.081 114.866 148.393C114.755 148.706 114.665 148.952 114.597 149.131H113.557C113.597 148.957 113.651 148.722 113.719 148.423C113.79 148.125 113.858 147.79 113.924 147.418C113.989 147.045 114.033 146.668 114.056 146.284L114.086 145.807H115.449ZM119.953 147V138.273H123.225C123.896 138.273 124.458 138.398 124.913 138.648C125.37 138.898 125.715 139.241 125.948 139.679C126.184 140.114 126.302 140.608 126.302 141.162C126.302 141.722 126.184 142.219 125.948 142.653C125.713 143.088 125.365 143.43 124.904 143.68C124.444 143.928 123.877 144.051 123.204 144.051H121.035V142.751H122.991C123.383 142.751 123.704 142.683 123.954 142.547C124.204 142.411 124.389 142.223 124.508 141.984C124.63 141.746 124.691 141.472 124.691 141.162C124.691 140.852 124.63 140.58 124.508 140.344C124.389 140.108 124.203 139.925 123.95 139.794C123.7 139.661 123.377 139.594 122.982 139.594H121.534V147H119.953ZM130.368 147.128C129.729 147.128 129.175 146.987 128.706 146.706C128.238 146.425 127.874 146.031 127.616 145.526C127.36 145.02 127.232 144.429 127.232 143.753C127.232 143.077 127.36 142.484 127.616 141.976C127.874 141.467 128.238 141.072 128.706 140.791C129.175 140.51 129.729 140.369 130.368 140.369C131.008 140.369 131.562 140.51 132.03 140.791C132.499 141.072 132.861 141.467 133.117 141.976C133.376 142.484 133.505 143.077 133.505 143.753C133.505 144.429 133.376 145.02 133.117 145.526C132.861 146.031 132.499 146.425 132.03 146.706C131.562 146.987 131.008 147.128 130.368 147.128ZM130.377 145.892C130.724 145.892 131.013 145.797 131.246 145.607C131.479 145.413 131.653 145.155 131.766 144.831C131.883 144.507 131.941 144.146 131.941 143.749C131.941 143.348 131.883 142.986 131.766 142.662C131.653 142.335 131.479 142.075 131.246 141.882C131.013 141.689 130.724 141.592 130.377 141.592C130.022 141.592 129.726 141.689 129.491 141.882C129.258 142.075 129.083 142.335 128.966 142.662C128.853 142.986 128.796 143.348 128.796 143.749C128.796 144.146 128.853 144.507 128.966 144.831C129.083 145.155 129.258 145.413 129.491 145.607C129.726 145.797 130.022 145.892 130.377 145.892ZM136.357 143.165V147H134.814V138.273H136.323V141.567H136.399C136.553 141.197 136.79 140.906 137.111 140.693C137.435 140.477 137.847 140.369 138.347 140.369C138.801 140.369 139.198 140.464 139.536 140.655C139.874 140.845 140.135 141.124 140.32 141.49C140.507 141.857 140.601 142.304 140.601 142.832V147H139.058V143.071C139.058 142.631 138.945 142.288 138.718 142.044C138.493 141.797 138.178 141.673 137.771 141.673C137.499 141.673 137.254 141.733 137.039 141.852C136.825 141.969 136.658 142.138 136.536 142.359C136.416 142.581 136.357 142.849 136.357 143.165ZM145.029 147.128C144.389 147.128 143.835 146.987 143.367 146.706C142.898 146.425 142.534 146.031 142.276 145.526C142.02 145.02 141.892 144.429 141.892 143.753C141.892 143.077 142.02 142.484 142.276 141.976C142.534 141.467 142.898 141.072 143.367 140.791C143.835 140.51 144.389 140.369 145.029 140.369C145.668 140.369 146.222 140.51 146.691 140.791C147.159 141.072 147.521 141.467 147.777 141.976C148.036 142.484 148.165 143.077 148.165 143.753C148.165 144.429 148.036 145.02 147.777 145.526C147.521 146.031 147.159 146.425 146.691 146.706C146.222 146.987 145.668 147.128 145.029 147.128ZM145.037 145.892C145.384 145.892 145.673 145.797 145.906 145.607C146.139 145.413 146.313 145.155 146.426 144.831C146.543 144.507 146.601 144.146 146.601 143.749C146.601 143.348 146.543 142.986 146.426 142.662C146.313 142.335 146.139 142.075 145.906 141.882C145.673 141.689 145.384 141.592 145.037 141.592C144.682 141.592 144.387 141.689 144.151 141.882C143.918 142.075 143.743 142.335 143.627 142.662C143.513 142.986 143.456 143.348 143.456 143.749C143.456 144.146 143.513 144.507 143.627 144.831C143.743 145.155 143.918 145.413 144.151 145.607C144.387 145.797 144.682 145.892 145.037 145.892ZM151.017 143.165V147H149.474V140.455H150.949V141.567H151.025C151.176 141.2 151.416 140.909 151.746 140.693C152.078 140.477 152.488 140.369 152.977 140.369C153.429 140.369 153.822 140.466 154.157 140.659C154.496 140.852 154.757 141.132 154.942 141.499C155.129 141.865 155.221 142.31 155.219 142.832V147H153.676V143.071C153.676 142.634 153.562 142.291 153.335 142.044C153.111 141.797 152.8 141.673 152.402 141.673C152.132 141.673 151.892 141.733 151.682 141.852C151.474 141.969 151.311 142.138 151.192 142.359C151.075 142.581 151.017 142.849 151.017 143.165ZM159.831 147V138.273H161.412V145.675H165.256V147H159.831ZM169.458 147.128C168.802 147.128 168.235 146.991 167.758 146.719C167.283 146.443 166.918 146.054 166.662 145.551C166.407 145.045 166.279 144.45 166.279 143.766C166.279 143.092 166.407 142.501 166.662 141.993C166.921 141.482 167.282 141.084 167.745 140.8C168.208 140.513 168.752 140.369 169.377 140.369C169.78 140.369 170.161 140.435 170.519 140.565C170.88 140.693 171.198 140.892 171.474 141.162C171.752 141.432 171.971 141.776 172.13 142.193C172.289 142.608 172.368 143.102 172.368 143.676V144.149H167.003V143.109H170.89C170.887 142.814 170.823 142.551 170.698 142.321C170.573 142.088 170.398 141.905 170.174 141.771C169.952 141.638 169.694 141.571 169.398 141.571C169.083 141.571 168.806 141.648 168.567 141.801C168.329 141.952 168.143 142.151 168.009 142.398C167.878 142.642 167.812 142.911 167.809 143.203V144.111C167.809 144.491 167.878 144.818 168.018 145.091C168.157 145.361 168.351 145.568 168.601 145.713C168.851 145.855 169.144 145.926 169.479 145.926C169.704 145.926 169.907 145.895 170.089 145.832C170.27 145.767 170.428 145.672 170.562 145.547C170.695 145.422 170.796 145.267 170.864 145.082L172.305 145.244C172.214 145.625 172.04 145.957 171.785 146.241C171.532 146.523 171.208 146.741 170.813 146.898C170.418 147.051 169.966 147.128 169.458 147.128ZM178.847 142.185L177.441 142.338C177.401 142.196 177.331 142.062 177.232 141.938C177.135 141.812 177.004 141.712 176.84 141.635C176.675 141.558 176.473 141.52 176.235 141.52C175.914 141.52 175.644 141.589 175.425 141.729C175.209 141.868 175.102 142.048 175.105 142.27C175.102 142.46 175.172 142.615 175.314 142.734C175.459 142.854 175.698 142.952 176.03 143.028L177.146 143.267C177.766 143.401 178.226 143.612 178.527 143.902C178.831 144.192 178.985 144.571 178.987 145.04C178.985 145.452 178.864 145.815 178.625 146.131C178.389 146.443 178.061 146.687 177.641 146.864C177.22 147.04 176.737 147.128 176.192 147.128C175.391 147.128 174.746 146.96 174.257 146.625C173.769 146.287 173.477 145.817 173.384 145.214L174.888 145.07C174.956 145.365 175.101 145.588 175.323 145.739C175.544 145.889 175.833 145.964 176.188 145.964C176.554 145.964 176.848 145.889 177.07 145.739C177.294 145.588 177.406 145.402 177.406 145.18C177.406 144.993 177.334 144.838 177.189 144.716C177.047 144.594 176.825 144.5 176.524 144.435L175.408 144.2C174.78 144.07 174.316 143.849 174.014 143.54C173.713 143.227 173.564 142.832 173.567 142.355C173.564 141.952 173.673 141.602 173.895 141.307C174.119 141.009 174.431 140.778 174.828 140.616C175.229 140.452 175.691 140.369 176.213 140.369C176.98 140.369 177.584 140.533 178.024 140.859C178.468 141.186 178.742 141.628 178.847 142.185ZM183.528 140.455V141.648H179.765V140.455H183.528ZM180.694 138.886H182.237V145.031C182.237 145.239 182.268 145.398 182.33 145.509C182.396 145.616 182.481 145.69 182.586 145.73C182.691 145.77 182.808 145.79 182.936 145.79C183.032 145.79 183.12 145.783 183.2 145.768C183.282 145.754 183.345 145.741 183.387 145.73L183.647 146.936C183.565 146.964 183.447 146.996 183.294 147.03C183.143 147.064 182.958 147.084 182.74 147.089C182.353 147.101 182.005 147.043 181.695 146.915C181.386 146.784 181.14 146.582 180.958 146.31C180.779 146.037 180.691 145.696 180.694 145.287V138.886ZM186.702 147.132C186.287 147.132 185.913 147.058 185.581 146.911C185.251 146.76 184.99 146.538 184.797 146.246C184.606 145.953 184.511 145.592 184.511 145.163C184.511 144.794 184.579 144.489 184.716 144.247C184.852 144.006 185.038 143.812 185.274 143.668C185.51 143.523 185.775 143.413 186.071 143.339C186.369 143.263 186.677 143.207 186.996 143.173C187.379 143.134 187.69 143.098 187.929 143.067C188.167 143.033 188.341 142.982 188.449 142.913C188.559 142.842 188.615 142.733 188.615 142.585V142.56C188.615 142.239 188.52 141.99 188.329 141.814C188.139 141.638 187.865 141.55 187.507 141.55C187.129 141.55 186.829 141.632 186.608 141.797C186.389 141.962 186.241 142.156 186.165 142.381L184.724 142.176C184.838 141.778 185.025 141.446 185.287 141.179C185.548 140.909 185.868 140.707 186.246 140.574C186.623 140.438 187.041 140.369 187.498 140.369C187.814 140.369 188.128 140.406 188.44 140.48C188.753 140.554 189.038 140.676 189.297 140.847C189.555 141.014 189.763 141.243 189.919 141.533C190.078 141.822 190.157 142.185 190.157 142.619V147H188.675V146.101H188.623C188.53 146.283 188.398 146.453 188.227 146.612C188.059 146.768 187.848 146.895 187.592 146.991C187.339 147.085 187.042 147.132 186.702 147.132ZM187.102 145.999C187.412 145.999 187.68 145.937 187.907 145.815C188.135 145.69 188.309 145.526 188.432 145.321C188.557 145.116 188.619 144.893 188.619 144.652V143.881C188.571 143.92 188.488 143.957 188.372 143.991C188.258 144.026 188.131 144.055 187.988 144.081C187.846 144.107 187.706 144.129 187.567 144.149C187.427 144.169 187.307 144.186 187.204 144.2C186.974 144.232 186.768 144.283 186.586 144.354C186.405 144.425 186.261 144.524 186.156 144.652C186.051 144.777 185.998 144.939 185.998 145.138C185.998 145.422 186.102 145.636 186.309 145.781C186.517 145.926 186.781 145.999 187.102 145.999ZM191.709 147V140.455H193.204V141.545H193.273C193.392 141.168 193.596 140.876 193.886 140.672C194.179 140.464 194.513 140.361 194.888 140.361C194.973 140.361 195.068 140.365 195.173 140.374C195.281 140.379 195.371 140.389 195.442 140.403V141.822C195.376 141.8 195.273 141.78 195.131 141.763C194.991 141.743 194.856 141.733 194.726 141.733C194.444 141.733 194.192 141.794 193.967 141.916C193.746 142.036 193.571 142.202 193.443 142.415C193.315 142.628 193.251 142.874 193.251 143.152V147H191.709ZM196.466 147V140.455H198.009V147H196.466ZM197.242 139.526C196.998 139.526 196.787 139.445 196.611 139.283C196.435 139.118 196.347 138.92 196.347 138.69C196.347 138.457 196.435 138.26 196.611 138.098C196.787 137.933 196.998 137.851 197.242 137.851C197.489 137.851 197.699 137.933 197.873 138.098C198.049 138.26 198.137 138.457 198.137 138.69C198.137 138.92 198.049 139.118 197.873 139.283C197.699 139.445 197.489 139.526 197.242 139.526ZM205.84 140.455V141.648H202.078V140.455H205.84ZM203.007 138.886H204.549V145.031C204.549 145.239 204.58 145.398 204.643 145.509C204.708 145.616 204.794 145.69 204.899 145.73C205.004 145.77 205.12 145.79 205.248 145.79C205.345 145.79 205.433 145.783 205.512 145.768C205.595 145.754 205.657 145.741 205.7 145.73L205.96 146.936C205.877 146.964 205.759 146.996 205.606 147.03C205.455 147.064 205.271 147.084 205.052 147.089C204.666 147.101 204.318 147.043 204.008 146.915C203.698 146.784 203.453 146.582 203.271 146.31C203.092 146.037 203.004 145.696 203.007 145.287V138.886ZM211.302 144.247V140.455H212.845V147H211.349V145.837H211.281C211.133 146.203 210.89 146.503 210.552 146.736C210.217 146.969 209.804 147.085 209.312 147.085C208.883 147.085 208.504 146.99 208.175 146.8C207.848 146.607 207.592 146.327 207.407 145.96C207.223 145.591 207.131 145.145 207.131 144.622V140.455H208.673V144.384C208.673 144.798 208.787 145.128 209.014 145.372C209.241 145.616 209.54 145.739 209.909 145.739C210.136 145.739 210.356 145.683 210.569 145.572C210.782 145.462 210.957 145.297 211.094 145.078C211.233 144.857 211.302 144.58 211.302 144.247ZM214.431 147V140.455H215.906V141.567H215.982C216.119 141.192 216.345 140.899 216.66 140.689C216.975 140.476 217.352 140.369 217.789 140.369C218.232 140.369 218.606 140.477 218.91 140.693C219.217 140.906 219.433 141.197 219.558 141.567H219.626C219.771 141.203 220.015 140.913 220.359 140.697C220.705 140.479 221.116 140.369 221.59 140.369C222.193 140.369 222.684 140.56 223.065 140.94C223.445 141.321 223.636 141.876 223.636 142.607V147H222.089V142.845C222.089 142.439 221.981 142.142 221.765 141.955C221.549 141.764 221.285 141.669 220.972 141.669C220.6 141.669 220.309 141.786 220.099 142.018C219.892 142.249 219.788 142.548 219.788 142.918V147H218.275V142.781C218.275 142.443 218.173 142.173 217.968 141.972C217.767 141.77 217.502 141.669 217.176 141.669C216.954 141.669 216.752 141.726 216.57 141.839C216.389 141.95 216.244 142.108 216.136 142.312C216.028 142.514 215.974 142.75 215.974 143.02V147H214.431ZM225.269 147V138.273H226.812V141.537H226.876C226.955 141.378 227.067 141.209 227.212 141.03C227.357 140.848 227.553 140.693 227.8 140.565C228.047 140.435 228.363 140.369 228.746 140.369C229.252 140.369 229.708 140.499 230.114 140.757C230.523 141.013 230.847 141.392 231.086 141.895C231.327 142.395 231.448 143.009 231.448 143.736C231.448 144.455 231.33 145.065 231.094 145.568C230.858 146.071 230.537 146.455 230.131 146.719C229.725 146.983 229.265 147.115 228.751 147.115C228.376 147.115 228.064 147.053 227.817 146.928C227.57 146.803 227.371 146.652 227.221 146.476C227.073 146.297 226.958 146.128 226.876 145.969H226.786V147H225.269ZM226.782 143.727C226.782 144.151 226.841 144.521 226.961 144.839C227.083 145.158 227.258 145.406 227.485 145.585C227.715 145.761 227.993 145.849 228.32 145.849C228.661 145.849 228.947 145.759 229.177 145.577C229.407 145.392 229.58 145.141 229.697 144.822C229.816 144.501 229.876 144.136 229.876 143.727C229.876 143.321 229.817 142.96 229.701 142.645C229.584 142.33 229.411 142.082 229.181 141.903C228.951 141.724 228.664 141.635 228.32 141.635C227.991 141.635 227.711 141.722 227.481 141.895C227.251 142.068 227.076 142.311 226.956 142.624C226.84 142.936 226.782 143.304 226.782 143.727ZM236.931 144.247V140.455H238.474V147H236.978V145.837H236.91C236.762 146.203 236.519 146.503 236.181 146.736C235.846 146.969 235.433 147.085 234.941 147.085C234.512 147.085 234.133 146.99 233.803 146.8C233.477 146.607 233.221 146.327 233.036 145.96C232.852 145.591 232.759 145.145 232.759 144.622V140.455H234.302V144.384C234.302 144.798 234.416 145.128 234.643 145.372C234.87 145.616 235.169 145.739 235.538 145.739C235.765 145.739 235.985 145.683 236.198 145.572C236.411 145.462 236.586 145.297 236.722 145.078C236.862 144.857 236.931 144.58 236.931 144.247ZM241.603 143.165V147H240.06V138.273H241.569V141.567H241.645C241.799 141.197 242.036 140.906 242.357 140.693C242.681 140.477 243.093 140.369 243.593 140.369C244.047 140.369 244.444 140.464 244.782 140.655C245.12 140.845 245.381 141.124 245.566 141.49C245.753 141.857 245.847 142.304 245.847 142.832V147H244.305V143.071C244.305 142.631 244.191 142.288 243.964 142.044C243.739 141.797 243.424 141.673 243.018 141.673C242.745 141.673 242.501 141.733 242.285 141.852C242.072 141.969 241.904 142.138 241.782 142.359C241.662 142.581 241.603 142.849 241.603 143.165ZM252.28 147.132C251.865 147.132 251.491 147.058 251.159 146.911C250.829 146.76 250.568 146.538 250.375 146.246C250.184 145.953 250.089 145.592 250.089 145.163C250.089 144.794 250.157 144.489 250.294 144.247C250.43 144.006 250.616 143.812 250.852 143.668C251.088 143.523 251.354 143.413 251.649 143.339C251.947 143.263 252.256 143.207 252.574 143.173C252.957 143.134 253.268 143.098 253.507 143.067C253.746 143.033 253.919 142.982 254.027 142.913C254.138 142.842 254.193 142.733 254.193 142.585V142.56C254.193 142.239 254.098 141.99 253.907 141.814C253.717 141.638 253.443 141.55 253.085 141.55C252.707 141.55 252.407 141.632 252.186 141.797C251.967 141.962 251.819 142.156 251.743 142.381L250.302 142.176C250.416 141.778 250.604 141.446 250.865 141.179C251.126 140.909 251.446 140.707 251.824 140.574C252.202 140.438 252.619 140.369 253.077 140.369C253.392 140.369 253.706 140.406 254.018 140.48C254.331 140.554 254.616 140.676 254.875 140.847C255.133 141.014 255.341 141.243 255.497 141.533C255.656 141.822 255.736 142.185 255.736 142.619V147H254.253V146.101H254.202C254.108 146.283 253.976 146.453 253.805 146.612C253.638 146.768 253.426 146.895 253.17 146.991C252.917 147.085 252.621 147.132 252.28 147.132ZM252.68 145.999C252.99 145.999 253.258 145.937 253.486 145.815C253.713 145.69 253.888 145.526 254.01 145.321C254.135 145.116 254.197 144.893 254.197 144.652V143.881C254.149 143.92 254.067 143.957 253.95 143.991C253.836 144.026 253.709 144.055 253.567 144.081C253.425 144.107 253.284 144.129 253.145 144.149C253.006 144.169 252.885 144.186 252.782 144.2C252.552 144.232 252.346 144.283 252.165 144.354C251.983 144.425 251.839 144.524 251.734 144.652C251.629 144.777 251.577 144.939 251.577 145.138C251.577 145.422 251.68 145.636 251.888 145.781C252.095 145.926 252.359 145.999 252.68 145.999ZM262.46 142.185L261.054 142.338C261.014 142.196 260.944 142.062 260.845 141.938C260.748 141.812 260.618 141.712 260.453 141.635C260.288 141.558 260.086 141.52 259.848 141.52C259.527 141.52 259.257 141.589 259.038 141.729C258.822 141.868 258.716 142.048 258.719 142.27C258.716 142.46 258.785 142.615 258.927 142.734C259.072 142.854 259.311 142.952 259.643 143.028L260.76 143.267C261.379 143.401 261.839 143.612 262.14 143.902C262.444 144.192 262.598 144.571 262.601 145.04C262.598 145.452 262.477 145.815 262.238 146.131C262.003 146.443 261.675 146.687 261.254 146.864C260.834 147.04 260.351 147.128 259.805 147.128C259.004 147.128 258.359 146.96 257.871 146.625C257.382 146.287 257.091 145.817 256.997 145.214L258.501 145.07C258.569 145.365 258.714 145.588 258.936 145.739C259.157 145.889 259.446 145.964 259.801 145.964C260.167 145.964 260.461 145.889 260.683 145.739C260.907 145.588 261.02 145.402 261.02 145.18C261.02 144.993 260.947 144.838 260.802 144.716C260.66 144.594 260.439 144.5 260.138 144.435L259.021 144.2C258.393 144.07 257.929 143.849 257.628 143.54C257.327 143.227 257.177 142.832 257.18 142.355C257.177 141.952 257.287 141.602 257.508 141.307C257.733 141.009 258.044 140.778 258.442 140.616C258.842 140.452 259.304 140.369 259.827 140.369C260.594 140.369 261.197 140.533 261.638 140.859C262.081 141.186 262.355 141.628 262.46 142.185ZM263.873 147V140.455H265.368V141.545H265.437C265.556 141.168 265.76 140.876 266.05 140.672C266.343 140.464 266.677 140.361 267.052 140.361C267.137 140.361 267.232 140.365 267.337 140.374C267.445 140.379 267.535 140.389 267.606 140.403V141.822C267.54 141.8 267.437 141.78 267.295 141.763C267.155 141.743 267.02 141.733 266.89 141.733C266.608 141.733 266.356 141.794 266.131 141.916C265.91 142.036 265.735 142.202 265.607 142.415C265.479 142.628 265.415 142.874 265.415 143.152V147H263.873ZM268.631 147V140.455H270.173V147H268.631ZM269.406 139.526C269.162 139.526 268.952 139.445 268.775 139.283C268.599 139.118 268.511 138.92 268.511 138.69C268.511 138.457 268.599 138.26 268.775 138.098C268.952 137.933 269.162 137.851 269.406 137.851C269.653 137.851 269.863 137.933 270.037 138.098C270.213 138.26 270.301 138.457 270.301 138.69C270.301 138.92 270.213 139.118 270.037 139.283C269.863 139.445 269.653 139.526 269.406 139.526ZM273.647 138.273L273.507 144.435H272.134L271.998 138.273H273.647ZM272.82 147.094C272.562 147.094 272.34 147.003 272.156 146.821C271.974 146.639 271.883 146.418 271.883 146.156C271.883 145.901 271.974 145.682 272.156 145.5C272.34 145.318 272.562 145.227 272.82 145.227C273.073 145.227 273.292 145.318 273.477 145.5C273.664 145.682 273.758 145.901 273.758 146.156C273.758 146.33 273.714 146.487 273.626 146.629C273.541 146.771 273.427 146.885 273.285 146.97C273.146 147.053 272.991 147.094 272.82 147.094Z" fill="#344054"/>
<path d="M186.071 157.485C186.962 157.485 187.408 158.562 186.778 159.192L180.707 165.263C180.317 165.654 179.683 165.654 179.293 165.263L173.222 159.192C172.592 158.562 173.038 157.485 173.929 157.485L186.071 157.485Z" fill="white"/>
</g>
</g>
<defs>
<filter id="filter0_dd_8017_26736" x="59" y="126" width="242" height="64" filterUnits="userSpaceOnUse" color-interpolation-filters="sRGB">
<feFlood flood-opacity="0" result="BackgroundImageFix"/>
<feColorMatrix in="SourceAlpha" type="matrix" values="0 0 0 0 0 0 0 0 0 0 0 0 0 0 0 0 0 0 127 0" result="hardAlpha"/>
<feMorphology radius="2" operator="erode" in="SourceAlpha" result="effect1_dropShadow_8017_26736"/>
<feOffset dy="4"/>
<feGaussianBlur stdDeviation="3"/>
<feColorMatrix type="matrix" values="0 0 0 0 0.0627451 0 0 0 0 0.0941176 0 0 0 0 0.156863 0 0 0 0.03 0"/>
<feBlend mode="normal" in2="BackgroundImageFix" result="effect1_dropShadow_8017_26736"/>
<feColorMatrix in="SourceAlpha" type="matrix" values="0 0 0 0 0 0 0 0 0 0 0 0 0 0 0 0 0 0 127 0" result="hardAlpha"/>
<feMorphology radius="4" operator="erode" in="SourceAlpha" result="effect2_dropShadow_8017_26736"/>
<feOffset dy="12"/>
<feGaussianBlur stdDeviation="8"/>
<feColorMatrix type="matrix" values="0 0 0 0 0.0627451 0 0 0 0 0.0941176 0 0 0 0 0.156863 0 0 0 0.08 0"/>
<feBlend mode="normal" in2="effect1_dropShadow_8017_26736" result="effect2_dropShadow_8017_26736"/>
<feBlend mode="normal" in="SourceGraphic" in2="effect2_dropShadow_8017_26736" result="shape"/>
</filter>
<radialGradient id="paint0_radial_8017_26736" cx="0" cy="0" r="1" gradientUnits="userSpaceOnUse" gradientTransform="translate(916.61 171.455) rotate(60) scale(1080.63 1049.59)">
<stop stop-color="white"/>
<stop offset="1" stop-color="#231F20"/>
</radialGradient>
<clipPath id="clip0_8017_26736">
<path d="M0 0H360V408C360 414.627 354.627 420 348 420H12C5.37259 420 0 414.627 0 408V0Z" fill="white"/>
</clipPath>
</defs>
</svg>
