<svg width="360" height="420" viewBox="0 0 360 420" fill="none" xmlns="http://www.w3.org/2000/svg">
<g clip-path="url(#clip0_8017_23330)">
<path d="M0 0H360V408C360 414.627 354.627 420 348 420H12C5.37259 420 0 414.627 0 408V0Z" fill="#A5DAFC"/>
<path d="M46 331.516C35.2 331.116 1.83333 348.016 -13.5 356.516V438.016H382.5C387.5 400.682 390 325.816 360 325.016C330 324.216 314.167 354.349 310 369.516C288.167 378.516 241.2 393.616 228 382.016C211.5 367.516 164.5 345.016 152 356.516C139.5 368.015 107 356.516 91.5 356.516C76 356.516 59.5 332.016 46 331.516Z" fill="#33F548"/>
<path opacity="0.5" d="M-75.2437 -768.364L814.054 -376.194L927.086 -135.421L-139.841 -697.646L-158.911 -659.376L1101.01 160.206L1148.95 396.579L860.364 496.344L-198.199 -329.714L-212.818 -226.739L694.937 638.648L596.35 648.775L-233.304 -187.707L-281.115 -118.448L409.915 779.811L226.622 805.417L-34.7957 571.973L-395.771 -148.866L-271.953 -704.929L-75.2437 -768.364Z" fill="url(#paint0_radial_8017_23330)" style="mix-blend-mode:overlay"/>
<path d="M-14.5 339.001C-62.1 348.601 -39.0002 368.834 -43.0002 372.5V500.5H328L368.5 422L416 372.5L389.5 316C360.5 372.5 226 379.5 193 379.5C45.9998 379.5 45 327.001 -14.5 339.001Z" fill="#09DE20"/>
<path d="M411.263 150.658L247.245 145.707L284.039 134.859C285.891 132.011 288.533 129.754 291.651 128.356C294.77 126.958 298.234 126.477 301.632 126.97C301.632 126.97 305.9 110.864 325.287 115.241C325.287 115.241 331.434 92.217 354.758 94.5455C360.973 94.9153 366.807 97.6885 370.999 102.266C375.191 106.844 377.405 112.858 377.162 119.01C377.162 119.01 391.38 116.43 391.436 128.787C392.825 129.13 394.127 129.763 395.252 130.643C396.377 131.524 397.3 132.632 397.959 133.892C398.617 135.152 398.997 136.535 399.071 137.949C399.145 139.363 398.912 140.774 398.388 142.087L411.263 150.658Z" fill="white"/>
<path d="M270.123 143.678L402.372 148.058L392.277 140.395C392.277 140.395 394.845 133.776 386.593 131.042C385.868 127.732 383.866 124.825 381.016 122.94C378.165 121.056 374.69 120.343 371.331 120.953C371.331 120.953 373.912 104.422 352.667 101.862C331.423 99.3022 328.295 119.865 328.295 119.865C328.295 119.865 313.041 117.792 307.539 131.265C304.391 130.529 301.087 130.901 298.199 132.317C295.312 133.734 293.02 136.107 291.72 139.026L270.123 143.678Z" fill="#F1F2F2"/>
<path d="M-43.6571 247.643L88.2996 243.66L58.6979 234.932C57.2081 232.641 55.0826 230.826 52.5736 229.701C50.0647 228.576 47.2779 228.188 44.5437 228.585C44.5437 228.585 41.1103 215.628 25.5129 219.149C25.5129 219.149 20.5671 200.626 1.80238 202.499C-3.19783 202.797 -7.89112 205.028 -11.2636 208.71C-14.6361 212.393 -16.4172 217.232 -16.2219 222.181C-16.2219 222.181 -27.6609 220.106 -27.7056 230.047C-28.8237 230.323 -29.8706 230.832 -30.7759 231.541C-31.6811 232.249 -32.4237 233.14 -32.9536 234.154C-33.4836 235.168 -33.7886 236.281 -33.8482 237.418C-33.9077 238.556 -33.7205 239.691 -33.299 240.748L-43.6571 247.643Z" fill="white"/>
<path d="M69.8942 242.027L-36.5038 245.551L-28.3827 239.386C-28.3827 239.386 -30.4483 234.061 -23.8092 231.862C-23.2259 229.198 -21.616 226.86 -19.3224 225.343C-17.0288 223.827 -14.2329 223.254 -11.5305 223.745C-11.5305 223.745 -13.6073 210.445 3.48456 208.385C20.5764 206.326 23.093 222.869 23.093 222.869C23.093 222.869 35.365 221.202 39.7912 232.041C42.3246 231.448 44.9821 231.748 47.3055 232.888C49.6289 234.027 51.4724 235.936 52.5181 238.285L69.8942 242.027Z" fill="#F1F2F2"/>
<path d="M310 405.5L134 424H373V392H317.5C303.5 392 306.667 401 310 405.5Z" fill="#00AA13"/>
<path d="M29.5 395C43.5 395 53.3333 401 50 405.5C50 405.5 95.979 397.462 129 409C148.892 415.95 186.5 435.5 186.5 435.5L-13 424L-10 409C2.66667 409 15.5 395 29.5 395Z" fill="#00AA13"/>
<path d="M54 383L49.5 386.5L50.5 381.5L47.5 378L55 379L57.5 377L61.5 381.5L64 380V384L69.5 381.5V386.5L64 388.5L59.5 390L57.5 383L54 388.5V383Z" fill="#00AA13"/>
<path d="M146.455 406.769L148.909 404.885L148.364 407.577L150 409.462L145.909 408.923L144.545 410L142.364 407.577L141 408.385V406.231L138 407.577V404.885L141 403.808L143.455 403L144.545 406.769L146.455 403.808V406.769Z" fill="#00AA13"/>
<path d="M176.403 383.102L176.788 380.812L177.827 383.047L179.637 383.906L177.175 384.928L176.976 386.222L174.606 385.146L174.274 386.236L173.251 384.666L173.147 384.735L172.264 386.672L172 385.5L173.147 384.735L173.209 384.601L173.251 384.666L173.5 384.5L172.928 381.289L175.378 383.769L174.937 380.853L176.403 383.102Z" fill="#00AA13"/>
<path d="M352.5 370L348 366.5L349 371.5L346 375L353.5 374L356 376L360 371.5L362.5 373V369L368 371.5V366.5L362.5 364.5L358 363L356 370L352.5 364.5V370Z" fill="#00AA13"/>
<path d="M280.5 391L285 394.5L284 389.5L287 386L279.5 387L277 385L273 389.5L270.5 388V392H266.5L269 393.5V398L271.5 394.5V399.5L274.5 392L276 395.5L278 393.5L280.5 396.5V391Z" fill="#00AA13"/>
<path d="M183.335 382.296L181.496 332.195H177.408L176.591 356.326C174.547 354.076 172.503 351.827 170.459 349.373C168.415 347.123 164.941 350.191 166.984 352.44C168.415 354.281 170.868 356.939 173.525 360.416C175.364 362.665 176.386 365.528 176.182 368.595L175.773 382.296C174.342 383.319 173.525 385.159 173.525 387H185.584C185.379 385.159 184.562 383.319 183.335 382.296Z" fill="#8A5530"/>
<path d="M150.429 333.218C148.794 338.739 152.064 346.919 156.356 351.214C160.648 355.508 164.94 354.895 170.459 353.259C172.094 347.737 172.707 343.443 168.415 339.148C164.123 334.854 156.152 331.582 150.429 333.218Z" fill="#6C8336"/>
<path d="M179.452 296C172.299 300.09 167.394 311.542 167.394 320.13C167.394 328.719 172.299 332.4 179.452 336.49C186.606 332.4 191.511 328.719 191.511 320.13C191.511 311.542 186.606 300.09 179.452 296Z" fill="#B0B43D"/>
<path d="M179.452 296V336.49C186.606 332.4 191.511 328.719 191.511 320.13C191.511 311.542 186.606 300.09 179.452 296Z" fill="#6C8336"/>
<path d="M209.906 328.106C201.935 325.856 190.285 330.56 184.357 336.49C178.226 342.625 179.043 348.555 181.291 356.735C189.263 358.984 195.394 359.802 201.526 353.667C207.657 347.533 212.154 336.285 209.906 328.106Z" fill="#B0B43D"/>
<path d="M209.906 328.106L181.292 356.735C189.263 358.985 195.394 359.803 201.526 353.668C207.453 347.737 212.154 336.286 209.906 328.106Z" fill="#6C8336"/>
<path d="M171 386.5L173 384L175 382.5L174 385L175.5 384.5L175 386L177.5 385.5L176 387.5H173.5L171 386.5Z" fill="#09DE20"/>
<path d="M187.055 387.39L187.021 384.56L186.556 382.653L186.032 385.222L185.412 384.369L185.042 385.884L183.865 384.77L183.836 387.008L185.229 387.66L187.055 387.39Z" fill="#09DE20"/>
<g filter="url(#filter0_dd_8017_23330)">
<rect x="71" y="241" width="218" height="34" rx="12" fill="white"/>
<path d="M101.531 253.273V262H100.124L96.0123 256.055H95.9398V262H94.3588V253.273H95.7736L99.8816 259.222H99.9583V253.273H101.531ZM103.185 262V255.455H104.728V262H103.185ZM103.961 254.526C103.716 254.526 103.506 254.445 103.33 254.283C103.154 254.118 103.066 253.92 103.066 253.69C103.066 253.457 103.154 253.26 103.33 253.098C103.506 252.933 103.716 252.851 103.961 252.851C104.208 252.851 104.418 252.933 104.591 253.098C104.768 253.26 104.856 253.457 104.856 253.69C104.856 253.92 104.768 254.118 104.591 254.283C104.418 254.445 104.208 254.526 103.961 254.526ZM109.169 262.128C108.516 262.128 107.955 261.984 107.486 261.697C107.02 261.411 106.661 261.014 106.408 260.509C106.158 260 106.033 259.415 106.033 258.753C106.033 258.088 106.161 257.501 106.416 256.993C106.672 256.482 107.033 256.084 107.499 255.8C107.968 255.513 108.521 255.369 109.161 255.369C109.692 255.369 110.162 255.467 110.571 255.663C110.983 255.857 111.311 256.131 111.556 256.486C111.8 256.838 111.939 257.25 111.973 257.722H110.499C110.439 257.406 110.297 257.143 110.073 256.933C109.851 256.72 109.554 256.614 109.182 256.614C108.867 256.614 108.59 256.699 108.351 256.869C108.112 257.037 107.926 257.278 107.793 257.594C107.662 257.909 107.597 258.287 107.597 258.727C107.597 259.173 107.662 259.557 107.793 259.878C107.923 260.196 108.107 260.442 108.343 260.615C108.581 260.786 108.861 260.871 109.182 260.871C109.409 260.871 109.612 260.828 109.791 260.743C109.973 260.655 110.125 260.528 110.247 260.364C110.369 260.199 110.453 259.999 110.499 259.763H111.973C111.936 260.226 111.8 260.636 111.564 260.994C111.328 261.349 111.007 261.628 110.601 261.83C110.195 262.028 109.718 262.128 109.169 262.128ZM116.138 262.128C115.481 262.128 114.915 261.991 114.437 261.719C113.963 261.443 113.598 261.054 113.342 260.551C113.086 260.045 112.959 259.45 112.959 258.766C112.959 258.092 113.086 257.501 113.342 256.993C113.601 256.482 113.961 256.084 114.425 255.8C114.888 255.513 115.432 255.369 116.057 255.369C116.46 255.369 116.841 255.435 117.199 255.565C117.559 255.693 117.878 255.892 118.153 256.162C118.432 256.432 118.65 256.776 118.809 257.193C118.969 257.608 119.048 258.102 119.048 258.676V259.149H113.683V258.109H117.569C117.567 257.814 117.503 257.551 117.378 257.321C117.253 257.088 117.078 256.905 116.854 256.771C116.632 256.638 116.373 256.571 116.078 256.571C115.763 256.571 115.486 256.648 115.247 256.801C115.008 256.952 114.822 257.151 114.689 257.398C114.558 257.642 114.491 257.911 114.488 258.203V259.111C114.488 259.491 114.558 259.818 114.697 260.091C114.836 260.361 115.031 260.568 115.281 260.713C115.531 260.855 115.824 260.926 116.159 260.926C116.383 260.926 116.586 260.895 116.768 260.832C116.95 260.767 117.108 260.672 117.241 260.547C117.375 260.422 117.476 260.267 117.544 260.082L118.984 260.244C118.893 260.625 118.72 260.957 118.464 261.241C118.211 261.523 117.888 261.741 117.493 261.898C117.098 262.051 116.646 262.128 116.138 262.128ZM122.164 260.807L122.109 261.276C122.069 261.634 121.998 261.997 121.896 262.366C121.796 262.739 121.691 263.081 121.58 263.393C121.47 263.706 121.38 263.952 121.312 264.131H120.272C120.312 263.957 120.366 263.722 120.434 263.423C120.505 263.125 120.573 262.79 120.639 262.418C120.704 262.045 120.748 261.668 120.771 261.284L120.801 260.807H122.164ZM126.667 262V253.273H129.94C130.611 253.273 131.173 253.398 131.628 253.648C132.085 253.898 132.43 254.241 132.663 254.679C132.899 255.114 133.017 255.608 133.017 256.162C133.017 256.722 132.899 257.219 132.663 257.653C132.427 258.088 132.079 258.43 131.619 258.68C131.159 258.928 130.592 259.051 129.919 259.051H127.75V257.751H129.706C130.098 257.751 130.419 257.683 130.669 257.547C130.919 257.411 131.104 257.223 131.223 256.984C131.345 256.746 131.406 256.472 131.406 256.162C131.406 255.852 131.345 255.58 131.223 255.344C131.104 255.108 130.917 254.925 130.665 254.794C130.415 254.661 130.092 254.594 129.697 254.594H128.248V262H126.667ZM137.083 262.128C136.444 262.128 135.89 261.987 135.421 261.706C134.953 261.425 134.589 261.031 134.33 260.526C134.075 260.02 133.947 259.429 133.947 258.753C133.947 258.077 134.075 257.484 134.33 256.976C134.589 256.467 134.953 256.072 135.421 255.791C135.89 255.51 136.444 255.369 137.083 255.369C137.722 255.369 138.276 255.51 138.745 255.791C139.214 256.072 139.576 256.467 139.832 256.976C140.09 257.484 140.22 258.077 140.22 258.753C140.22 259.429 140.09 260.02 139.832 260.526C139.576 261.031 139.214 261.425 138.745 261.706C138.276 261.987 137.722 262.128 137.083 262.128ZM137.092 260.892C137.438 260.892 137.728 260.797 137.961 260.607C138.194 260.413 138.367 260.155 138.481 259.831C138.597 259.507 138.656 259.146 138.656 258.749C138.656 258.348 138.597 257.986 138.481 257.662C138.367 257.335 138.194 257.075 137.961 256.882C137.728 256.689 137.438 256.592 137.092 256.592C136.737 256.592 136.441 256.689 136.205 256.882C135.972 257.075 135.798 257.335 135.681 257.662C135.568 257.986 135.511 258.348 135.511 258.749C135.511 259.146 135.568 259.507 135.681 259.831C135.798 260.155 135.972 260.413 136.205 260.607C136.441 260.797 136.737 260.892 137.092 260.892ZM143.072 258.165V262H141.529V253.273H143.037V256.567H143.114C143.268 256.197 143.505 255.906 143.826 255.693C144.15 255.477 144.562 255.369 145.062 255.369C145.516 255.369 145.912 255.464 146.251 255.655C146.589 255.845 146.85 256.124 147.035 256.49C147.222 256.857 147.316 257.304 147.316 257.832V262H145.773V258.071C145.773 257.631 145.66 257.288 145.432 257.044C145.208 256.797 144.893 256.673 144.486 256.673C144.214 256.673 143.969 256.733 143.753 256.852C143.54 256.969 143.373 257.138 143.251 257.359C143.131 257.581 143.072 257.849 143.072 258.165ZM151.743 262.128C151.104 262.128 150.55 261.987 150.081 261.706C149.613 261.425 149.249 261.031 148.991 260.526C148.735 260.02 148.607 259.429 148.607 258.753C148.607 258.077 148.735 257.484 148.991 256.976C149.249 256.467 149.613 256.072 150.081 255.791C150.55 255.51 151.104 255.369 151.743 255.369C152.383 255.369 152.937 255.51 153.405 255.791C153.874 256.072 154.236 256.467 154.492 256.976C154.751 257.484 154.88 258.077 154.88 258.753C154.88 259.429 154.751 260.02 154.492 260.526C154.236 261.031 153.874 261.425 153.405 261.706C152.937 261.987 152.383 262.128 151.743 262.128ZM151.752 260.892C152.099 260.892 152.388 260.797 152.621 260.607C152.854 260.413 153.028 260.155 153.141 259.831C153.258 259.507 153.316 259.146 153.316 258.749C153.316 258.348 153.258 257.986 153.141 257.662C153.028 257.335 152.854 257.075 152.621 256.882C152.388 256.689 152.099 256.592 151.752 256.592C151.397 256.592 151.101 256.689 150.866 256.882C150.633 257.075 150.458 257.335 150.341 257.662C150.228 257.986 150.171 258.348 150.171 258.749C150.171 259.146 150.228 259.507 150.341 259.831C150.458 260.155 150.633 260.413 150.866 260.607C151.101 260.797 151.397 260.892 151.752 260.892ZM157.732 258.165V262H156.189V255.455H157.664V256.567H157.74C157.891 256.2 158.131 255.909 158.46 255.693C158.793 255.477 159.203 255.369 159.692 255.369C160.144 255.369 160.537 255.466 160.872 255.659C161.21 255.852 161.472 256.132 161.656 256.499C161.844 256.865 161.936 257.31 161.933 257.832V262H160.391V258.071C160.391 257.634 160.277 257.291 160.05 257.044C159.825 256.797 159.514 256.673 159.117 256.673C158.847 256.673 158.607 256.733 158.396 256.852C158.189 256.969 158.026 257.138 157.906 257.359C157.79 257.581 157.732 257.849 157.732 258.165ZM163.502 262V255.455H164.976V256.567H165.053C165.189 256.192 165.415 255.899 165.73 255.689C166.046 255.476 166.422 255.369 166.86 255.369C167.303 255.369 167.676 255.477 167.98 255.693C168.287 255.906 168.503 256.197 168.628 256.567H168.696C168.841 256.203 169.085 255.913 169.429 255.697C169.776 255.479 170.186 255.369 170.661 255.369C171.263 255.369 171.754 255.56 172.135 255.94C172.516 256.321 172.706 256.876 172.706 257.607V262H171.159V257.845C171.159 257.439 171.051 257.142 170.835 256.955C170.619 256.764 170.355 256.669 170.043 256.669C169.671 256.669 169.379 256.786 169.169 257.018C168.962 257.249 168.858 257.548 168.858 257.918V262H167.345V257.781C167.345 257.443 167.243 257.173 167.039 256.972C166.837 256.77 166.573 256.669 166.246 256.669C166.024 256.669 165.823 256.726 165.641 256.839C165.459 256.95 165.314 257.108 165.206 257.312C165.098 257.514 165.044 257.75 165.044 258.02V262H163.502ZM178.443 259.247V255.455H179.986V262H178.49V260.837H178.422C178.274 261.203 178.031 261.503 177.693 261.736C177.358 261.969 176.944 262.085 176.453 262.085C176.024 262.085 175.645 261.99 175.315 261.8C174.988 261.607 174.733 261.327 174.548 260.96C174.363 260.591 174.271 260.145 174.271 259.622V255.455H175.814V259.384C175.814 259.798 175.927 260.128 176.155 260.372C176.382 260.616 176.68 260.739 177.05 260.739C177.277 260.739 177.497 260.683 177.71 260.572C177.923 260.462 178.098 260.297 178.234 260.078C178.373 259.857 178.443 259.58 178.443 259.247ZM184.548 262V255.455H186.023V256.567H186.1C186.236 256.192 186.462 255.899 186.777 255.689C187.093 255.476 187.469 255.369 187.906 255.369C188.35 255.369 188.723 255.477 189.027 255.693C189.334 255.906 189.55 256.197 189.675 256.567H189.743C189.888 256.203 190.132 255.913 190.476 255.697C190.823 255.479 191.233 255.369 191.708 255.369C192.31 255.369 192.801 255.56 193.182 255.94C193.563 256.321 193.753 256.876 193.753 257.607V262H192.206V257.845C192.206 257.439 192.098 257.142 191.882 256.955C191.666 256.764 191.402 256.669 191.09 256.669C190.718 256.669 190.426 256.786 190.216 257.018C190.009 257.249 189.905 257.548 189.905 257.918V262H188.392V257.781C188.392 257.443 188.29 257.173 188.085 256.972C187.884 256.77 187.619 256.669 187.293 256.669C187.071 256.669 186.869 256.726 186.688 256.839C186.506 256.95 186.361 257.108 186.253 257.312C186.145 257.514 186.091 257.75 186.091 258.02V262H184.548ZM199.49 259.247V255.455H201.032V262H199.537V260.837H199.469C199.321 261.203 199.078 261.503 198.74 261.736C198.405 261.969 197.991 262.085 197.5 262.085C197.071 262.085 196.692 261.99 196.362 261.8C196.035 261.607 195.78 261.327 195.595 260.96C195.41 260.591 195.318 260.145 195.318 259.622V255.455H196.861V259.384C196.861 259.798 196.974 260.128 197.202 260.372C197.429 260.616 197.727 260.739 198.096 260.739C198.324 260.739 198.544 260.683 198.757 260.572C198.97 260.462 199.145 260.297 199.281 260.078C199.42 259.857 199.49 259.58 199.49 259.247ZM204.161 253.273V262H202.619V253.273H204.161ZM207.631 262.132C207.216 262.132 206.843 262.058 206.51 261.911C206.181 261.76 205.92 261.538 205.726 261.246C205.536 260.953 205.441 260.592 205.441 260.163C205.441 259.794 205.509 259.489 205.645 259.247C205.782 259.006 205.968 258.812 206.204 258.668C206.439 258.523 206.705 258.413 207.001 258.339C207.299 258.263 207.607 258.207 207.925 258.173C208.309 258.134 208.62 258.098 208.858 258.067C209.097 258.033 209.27 257.982 209.378 257.913C209.489 257.842 209.545 257.733 209.545 257.585V257.56C209.545 257.239 209.449 256.99 209.259 256.814C209.069 256.638 208.795 256.55 208.437 256.55C208.059 256.55 207.759 256.632 207.537 256.797C207.319 256.962 207.171 257.156 207.094 257.381L205.654 257.176C205.768 256.778 205.955 256.446 206.216 256.179C206.478 255.909 206.797 255.707 207.175 255.574C207.553 255.438 207.971 255.369 208.428 255.369C208.743 255.369 209.057 255.406 209.37 255.48C209.682 255.554 209.968 255.676 210.226 255.847C210.485 256.014 210.692 256.243 210.849 256.533C211.008 256.822 211.087 257.185 211.087 257.619V262H209.604V261.101H209.553C209.459 261.283 209.327 261.453 209.157 261.612C208.989 261.768 208.778 261.895 208.522 261.991C208.269 262.085 207.972 262.132 207.631 262.132ZM208.032 260.999C208.341 260.999 208.61 260.937 208.837 260.815C209.064 260.69 209.239 260.526 209.361 260.321C209.486 260.116 209.549 259.893 209.549 259.652V258.881C209.501 258.92 209.418 258.957 209.302 258.991C209.188 259.026 209.06 259.055 208.918 259.081C208.776 259.107 208.635 259.129 208.496 259.149C208.357 259.169 208.236 259.186 208.134 259.2C207.904 259.232 207.698 259.283 207.516 259.354C207.334 259.425 207.191 259.524 207.086 259.652C206.981 259.777 206.928 259.939 206.928 260.138C206.928 260.422 207.032 260.636 207.239 260.781C207.447 260.926 207.711 260.999 208.032 260.999ZM212.638 262V255.455H214.181V262H212.638ZM213.414 254.526C213.17 254.526 212.959 254.445 212.783 254.283C212.607 254.118 212.519 253.92 212.519 253.69C212.519 253.457 212.607 253.26 212.783 253.098C212.959 252.933 213.17 252.851 213.414 252.851C213.661 252.851 213.871 252.933 214.045 253.098C214.221 253.26 214.309 253.457 214.309 253.69C214.309 253.92 214.221 254.118 214.045 254.283C213.871 254.445 213.661 254.526 213.414 254.526ZM222.012 255.455V256.648H218.249V255.455H222.012ZM219.178 253.886H220.721V260.031C220.721 260.239 220.752 260.398 220.815 260.509C220.88 260.616 220.965 260.69 221.07 260.73C221.176 260.77 221.292 260.79 221.42 260.79C221.517 260.79 221.605 260.783 221.684 260.768C221.767 260.754 221.829 260.741 221.872 260.73L222.132 261.936C222.049 261.964 221.931 261.996 221.778 262.03C221.627 262.064 221.443 262.084 221.224 262.089C220.838 262.101 220.49 262.043 220.18 261.915C219.87 261.784 219.624 261.582 219.443 261.31C219.264 261.037 219.176 260.696 219.178 260.287V253.886ZM227.474 259.247V255.455H229.017V262H227.521V260.837H227.453C227.305 261.203 227.062 261.503 226.724 261.736C226.389 261.969 225.976 262.085 225.484 262.085C225.055 262.085 224.676 261.99 224.346 261.8C224.02 261.607 223.764 261.327 223.579 260.96C223.395 260.591 223.302 260.145 223.302 259.622V255.455H224.845V259.384C224.845 259.798 224.959 260.128 225.186 260.372C225.413 260.616 225.711 260.739 226.081 260.739C226.308 260.739 226.528 260.683 226.741 260.572C226.954 260.462 227.129 260.297 227.265 260.078C227.405 259.857 227.474 259.58 227.474 259.247ZM230.603 262V255.455H232.078V256.567H232.154C232.291 256.192 232.517 255.899 232.832 255.689C233.147 255.476 233.524 255.369 233.961 255.369C234.404 255.369 234.778 255.477 235.082 255.693C235.389 255.906 235.605 256.197 235.73 256.567H235.798C235.943 256.203 236.187 255.913 236.531 255.697C236.877 255.479 237.288 255.369 237.762 255.369C238.365 255.369 238.856 255.56 239.237 255.94C239.617 256.321 239.808 256.876 239.808 257.607V262H238.261V257.845C238.261 257.439 238.153 257.142 237.937 256.955C237.721 256.764 237.457 256.669 237.144 256.669C236.772 256.669 236.481 256.786 236.271 257.018C236.063 257.249 235.96 257.548 235.96 257.918V262H234.447V257.781C234.447 257.443 234.345 257.173 234.14 256.972C233.938 256.77 233.674 256.669 233.347 256.669C233.126 256.669 232.924 256.726 232.742 256.839C232.561 256.95 232.416 257.108 232.308 257.312C232.2 257.514 232.146 257.75 232.146 258.02V262H230.603ZM241.441 262V253.273H242.983V256.537H243.047C243.127 256.378 243.239 256.209 243.384 256.03C243.529 255.848 243.725 255.693 243.972 255.565C244.219 255.435 244.535 255.369 244.918 255.369C245.424 255.369 245.88 255.499 246.286 255.757C246.695 256.013 247.019 256.392 247.258 256.895C247.499 257.395 247.62 258.009 247.62 258.736C247.62 259.455 247.502 260.065 247.266 260.568C247.03 261.071 246.709 261.455 246.303 261.719C245.897 261.983 245.437 262.115 244.922 262.115C244.547 262.115 244.236 262.053 243.989 261.928C243.742 261.803 243.543 261.652 243.393 261.476C243.245 261.297 243.13 261.128 243.047 260.969H242.958V262H241.441ZM242.954 258.727C242.954 259.151 243.013 259.521 243.133 259.839C243.255 260.158 243.43 260.406 243.657 260.585C243.887 260.761 244.165 260.849 244.492 260.849C244.833 260.849 245.118 260.759 245.349 260.577C245.579 260.392 245.752 260.141 245.868 259.822C245.988 259.501 246.047 259.136 246.047 258.727C246.047 258.321 245.989 257.96 245.873 257.645C245.756 257.33 245.583 257.082 245.353 256.903C245.123 256.724 244.836 256.635 244.492 256.635C244.162 256.635 243.883 256.722 243.653 256.895C243.422 257.068 243.248 257.311 243.128 257.624C243.012 257.936 242.954 258.304 242.954 258.727ZM253.103 259.247V255.455H254.646V262H253.15V260.837H253.082C252.934 261.203 252.691 261.503 252.353 261.736C252.018 261.969 251.605 262.085 251.113 262.085C250.684 262.085 250.305 261.99 249.975 261.8C249.649 261.607 249.393 261.327 249.208 260.96C249.024 260.591 248.931 260.145 248.931 259.622V255.455H250.474V259.384C250.474 259.798 250.588 260.128 250.815 260.372C251.042 260.616 251.34 260.739 251.71 260.739C251.937 260.739 252.157 260.683 252.37 260.572C252.583 260.462 252.758 260.297 252.894 260.078C253.034 259.857 253.103 259.58 253.103 259.247ZM257.775 258.165V262H256.232V253.273H257.741V256.567H257.817C257.971 256.197 258.208 255.906 258.529 255.693C258.853 255.477 259.265 255.369 259.765 255.369C260.219 255.369 260.616 255.464 260.954 255.655C261.292 255.845 261.553 256.124 261.738 256.49C261.925 256.857 262.019 257.304 262.019 257.832V262H260.476V258.071C260.476 257.631 260.363 257.288 260.135 257.044C259.911 256.797 259.596 256.673 259.189 256.673C258.917 256.673 258.672 256.733 258.456 256.852C258.243 256.969 258.076 257.138 257.954 257.359C257.834 257.581 257.775 257.849 257.775 258.165ZM265.479 253.273L265.339 259.435H263.966L263.83 253.273H265.479ZM264.653 262.094C264.394 262.094 264.172 262.003 263.988 261.821C263.806 261.639 263.715 261.418 263.715 261.156C263.715 260.901 263.806 260.682 263.988 260.5C264.172 260.318 264.394 260.227 264.653 260.227C264.905 260.227 265.124 260.318 265.309 260.5C265.496 260.682 265.59 260.901 265.59 261.156C265.59 261.33 265.546 261.487 265.458 261.629C265.373 261.771 265.259 261.885 265.117 261.97C264.978 262.053 264.823 262.094 264.653 262.094Z" fill="#344054"/>
<path d="M186.071 272.485C186.962 272.485 187.408 273.562 186.778 274.192L180.707 280.263C180.317 280.654 179.683 280.654 179.293 280.263L173.222 274.192C172.592 273.562 173.038 272.485 173.929 272.485L186.071 272.485Z" fill="white"/>
</g>
</g>
<defs>
<filter id="filter0_dd_8017_23330" x="59" y="241" width="242" height="64" filterUnits="userSpaceOnUse" color-interpolation-filters="sRGB">
<feFlood flood-opacity="0" result="BackgroundImageFix"/>
<feColorMatrix in="SourceAlpha" type="matrix" values="0 0 0 0 0 0 0 0 0 0 0 0 0 0 0 0 0 0 127 0" result="hardAlpha"/>
<feMorphology radius="2" operator="erode" in="SourceAlpha" result="effect1_dropShadow_8017_23330"/>
<feOffset dy="4"/>
<feGaussianBlur stdDeviation="3"/>
<feColorMatrix type="matrix" values="0 0 0 0 0.0627451 0 0 0 0 0.0941176 0 0 0 0 0.156863 0 0 0 0.03 0"/>
<feBlend mode="normal" in2="BackgroundImageFix" result="effect1_dropShadow_8017_23330"/>
<feColorMatrix in="SourceAlpha" type="matrix" values="0 0 0 0 0 0 0 0 0 0 0 0 0 0 0 0 0 0 127 0" result="hardAlpha"/>
<feMorphology radius="4" operator="erode" in="SourceAlpha" result="effect2_dropShadow_8017_23330"/>
<feOffset dy="12"/>
<feGaussianBlur stdDeviation="8"/>
<feColorMatrix type="matrix" values="0 0 0 0 0.0627451 0 0 0 0 0.0941176 0 0 0 0 0.156863 0 0 0 0.08 0"/>
<feBlend mode="normal" in2="effect1_dropShadow_8017_23330" result="effect2_dropShadow_8017_23330"/>
<feBlend mode="normal" in="SourceGraphic" in2="effect2_dropShadow_8017_23330" result="shape"/>
</filter>
<radialGradient id="paint0_radial_8017_23330" cx="0" cy="0" r="1" gradientUnits="userSpaceOnUse" gradientTransform="translate(916.61 171.455) rotate(60) scale(1080.63 1049.59)">
<stop stop-color="white"/>
<stop offset="1" stop-color="#231F20"/>
</radialGradient>
<clipPath id="clip0_8017_23330">
<path d="M0 0H360V408C360 414.627 354.627 420 348 420H12C5.37259 420 0 414.627 0 408V0Z" fill="white"/>
</clipPath>
</defs>
</svg>
