<svg width="360" height="420" viewBox="0 0 360 420" fill="none" xmlns="http://www.w3.org/2000/svg">
<g clip-path="url(#clip0_8017_22213)">
<path d="M0 0H360V408C360 414.627 354.627 420 348 420H12C5.37259 420 0 414.627 0 408V0Z" fill="#A5DAFC"/>
<path d="M46 331.516C35.2 331.116 1.83333 348.016 -13.5 356.516V438.016H382.5C387.5 400.682 390 325.816 360 325.016C330 324.216 314.167 354.349 310 369.516C288.167 378.516 241.2 393.616 228 382.016C211.5 367.516 164.5 345.016 152 356.516C139.5 368.015 107 356.516 91.5 356.516C76 356.516 59.5 332.016 46 331.516Z" fill="#33F548"/>
<path opacity="0.5" d="M-75.2437 -768.364L814.054 -376.194L927.086 -135.421L-139.841 -697.646L-158.911 -659.376L1101.01 160.206L1148.95 396.579L860.364 496.344L-198.199 -329.714L-212.818 -226.739L694.937 638.648L596.35 648.775L-233.304 -187.707L-281.115 -118.448L409.915 779.811L226.622 805.417L-34.7957 571.973L-395.771 -148.866L-271.953 -704.929L-75.2437 -768.364Z" fill="url(#paint0_radial_8017_22213)" style="mix-blend-mode:overlay"/>
<path d="M-14.5 339.001C-62.1 348.601 -39.0002 368.834 -43.0002 372.5V500.5H328L368.5 422L416 372.5L389.5 316C360.5 372.5 226 379.5 193 379.5C45.9998 379.5 45 327.001 -14.5 339.001Z" fill="#09DE20"/>
<path d="M411.263 150.658L247.245 145.707L284.039 134.859C285.891 132.011 288.533 129.754 291.651 128.356C294.77 126.958 298.234 126.477 301.632 126.97C301.632 126.97 305.9 110.864 325.287 115.241C325.287 115.241 331.434 92.217 354.758 94.5455C360.973 94.9153 366.807 97.6885 370.999 102.266C375.191 106.844 377.405 112.858 377.162 119.01C377.162 119.01 391.38 116.43 391.436 128.787C392.825 129.13 394.127 129.763 395.252 130.643C396.377 131.524 397.3 132.632 397.959 133.892C398.617 135.152 398.997 136.535 399.071 137.949C399.145 139.363 398.912 140.774 398.388 142.087L411.263 150.658Z" fill="white"/>
<path d="M270.123 143.678L402.372 148.058L392.277 140.395C392.277 140.395 394.845 133.776 386.593 131.042C385.868 127.732 383.866 124.825 381.016 122.94C378.165 121.056 374.69 120.343 371.331 120.953C371.331 120.953 373.912 104.422 352.667 101.862C331.423 99.3022 328.295 119.865 328.295 119.865C328.295 119.865 313.041 117.792 307.539 131.265C304.391 130.529 301.087 130.901 298.199 132.317C295.312 133.734 293.02 136.107 291.72 139.026L270.123 143.678Z" fill="#F1F2F2"/>
<path d="M-43.6571 247.643L88.2996 243.66L58.6979 234.932C57.2081 232.641 55.0826 230.826 52.5736 229.701C50.0647 228.576 47.2779 228.188 44.5437 228.585C44.5437 228.585 41.1103 215.628 25.5129 219.149C25.5129 219.149 20.5671 200.626 1.80238 202.499C-3.19783 202.797 -7.89112 205.028 -11.2636 208.71C-14.6361 212.393 -16.4172 217.232 -16.2219 222.181C-16.2219 222.181 -27.6609 220.106 -27.7056 230.047C-28.8237 230.323 -29.8706 230.832 -30.7759 231.541C-31.6811 232.249 -32.4237 233.14 -32.9536 234.154C-33.4836 235.168 -33.7886 236.281 -33.8482 237.418C-33.9077 238.556 -33.7205 239.691 -33.299 240.748L-43.6571 247.643Z" fill="white"/>
<path d="M69.8942 242.027L-36.5038 245.551L-28.3827 239.386C-28.3827 239.386 -30.4483 234.061 -23.8092 231.862C-23.2259 229.198 -21.616 226.86 -19.3224 225.343C-17.0288 223.827 -14.2329 223.254 -11.5305 223.745C-11.5305 223.745 -13.6073 210.445 3.48456 208.385C20.5764 206.326 23.093 222.869 23.093 222.869C23.093 222.869 35.365 221.202 39.7912 232.041C42.3246 231.448 44.9821 231.748 47.3055 232.888C49.6289 234.027 51.4724 235.936 52.5181 238.285L69.8942 242.027Z" fill="#F1F2F2"/>
<path d="M310 405.5L134 424H373V392H317.5C303.5 392 306.667 401 310 405.5Z" fill="#00AA13"/>
<path d="M29.5 395C43.5 395 53.3333 401 50 405.5C50 405.5 95.979 397.462 129 409C148.892 415.95 186.5 435.5 186.5 435.5L-13 424L-10 409C2.66667 409 15.5 395 29.5 395Z" fill="#00AA13"/>
<path d="M54 383L49.5 386.5L50.5 381.5L47.5 378L55 379L57.5 377L61.5 381.5L64 380V384L69.5 381.5V386.5L64 388.5L59.5 390L57.5 383L54 388.5V383Z" fill="#00AA13"/>
<path d="M146.455 406.769L148.909 404.885L148.364 407.577L150 409.462L145.909 408.923L144.545 410L142.364 407.577L141 408.385V406.231L138 407.577V404.885L141 403.808L143.455 403L144.545 406.769L146.455 403.808V406.769Z" fill="#00AA13"/>
<path d="M176.403 383.102L176.788 380.812L177.827 383.047L179.637 383.906L177.175 384.928L176.976 386.222L174.606 385.146L174.274 386.236L173.251 384.666L173.147 384.735L172.264 386.672L172 385.5L173.147 384.735L173.209 384.601L173.251 384.666L173.5 384.5L172.928 381.289L175.378 383.769L174.937 380.853L176.403 383.102Z" fill="#00AA13"/>
<path d="M352.5 370L348 366.5L349 371.5L346 375L353.5 374L356 376L360 371.5L362.5 373V369L368 371.5V366.5L362.5 364.5L358 363L356 370L352.5 364.5V370Z" fill="#00AA13"/>
<path d="M280.5 391L285 394.5L284 389.5L287 386L279.5 387L277 385L273 389.5L270.5 388V392H266.5L269 393.5V398L271.5 394.5V399.5L274.5 392L276 395.5L278 393.5L280.5 396.5V391Z" fill="#00AA13"/>
<path d="M186.298 386.535C186.298 384.761 185.51 382.987 184.131 382.002L182.358 363.278H178.419L176.646 382.002C175.267 382.987 174.479 384.761 174.479 386.535H186.298Z" fill="#8A5530"/>
<path d="M180.389 328C173.494 331.942 168.767 342.979 168.767 351.256C168.767 359.534 173.494 363.081 180.389 367.023C187.283 363.081 192.011 359.534 192.011 351.256C192.208 342.781 187.48 331.745 180.389 328Z" fill="#B0B43D"/>
<path d="M180.389 328V367.023C187.283 363.081 192.011 359.534 192.011 351.256C192.208 342.781 187.48 331.745 180.389 328Z" fill="#6C8336"/>
<path d="M171 386.5L173 384L175 382.5L174 385L175.5 384.5L175 386L177.5 385.5L176 387.5H173.5L171 386.5Z" fill="#09DE20"/>
<path d="M187.055 387.39L187.021 384.56L186.556 382.653L186.032 385.222L185.412 384.369L185.042 385.884L183.865 384.77L183.836 387.008L185.229 387.66L187.055 387.39Z" fill="#09DE20"/>
<g filter="url(#filter0_dd_8017_22213)">
<rect x="71" y="253" width="218" height="52" rx="12" fill="white"/>
<path d="M114.013 274H112.325L115.398 265.273H117.349L120.426 274H118.739L116.408 267.062H116.339L114.013 274ZM114.068 270.578H118.67V271.848H114.068V270.578ZM121.646 276.455C121.436 276.455 121.241 276.438 121.062 276.403C120.886 276.372 120.745 276.335 120.64 276.293L120.998 275.091C121.223 275.156 121.423 275.188 121.599 275.185C121.775 275.182 121.93 275.126 122.064 275.018C122.2 274.913 122.315 274.737 122.409 274.49L122.541 274.136L120.167 267.455H121.804L123.312 272.398H123.38L124.893 267.455H126.534L123.913 274.793C123.791 275.139 123.629 275.436 123.427 275.683C123.225 275.933 122.978 276.124 122.686 276.254C122.396 276.388 122.049 276.455 121.646 276.455ZM130.234 274.128C129.594 274.128 129.04 273.987 128.572 273.706C128.103 273.425 127.739 273.031 127.481 272.526C127.225 272.02 127.097 271.429 127.097 270.753C127.097 270.077 127.225 269.484 127.481 268.976C127.739 268.467 128.103 268.072 128.572 267.791C129.04 267.51 129.594 267.369 130.234 267.369C130.873 267.369 131.427 267.51 131.896 267.791C132.364 268.072 132.727 268.467 132.982 268.976C133.241 269.484 133.37 270.077 133.37 270.753C133.37 271.429 133.241 272.02 132.982 272.526C132.727 273.031 132.364 273.425 131.896 273.706C131.427 273.987 130.873 274.128 130.234 274.128ZM130.242 272.892C130.589 272.892 130.879 272.797 131.112 272.607C131.344 272.413 131.518 272.155 131.631 271.831C131.748 271.507 131.806 271.146 131.806 270.749C131.806 270.348 131.748 269.986 131.631 269.662C131.518 269.335 131.344 269.075 131.112 268.882C130.879 268.689 130.589 268.592 130.242 268.592C129.887 268.592 129.592 268.689 129.356 268.882C129.123 269.075 128.948 269.335 128.832 269.662C128.718 269.986 128.661 270.348 128.661 270.749C128.661 271.146 128.718 271.507 128.832 271.831C128.948 272.155 129.123 272.413 129.356 272.607C129.592 272.797 129.887 272.892 130.242 272.892ZM136.49 272.807L136.435 273.276C136.395 273.634 136.324 273.997 136.222 274.366C136.123 274.739 136.017 275.081 135.907 275.393C135.796 275.706 135.706 275.952 135.638 276.131H134.598C134.638 275.957 134.692 275.722 134.76 275.423C134.831 275.125 134.9 274.79 134.965 274.418C135.03 274.045 135.074 273.668 135.097 273.284L135.127 272.807H136.49ZM142.332 271.946L142.327 270.084H142.575L144.927 267.455H146.729L143.836 270.676H143.516L142.332 271.946ZM140.925 274V265.273H142.468V274H140.925ZM145.033 274L142.903 271.021L143.942 269.935L146.879 274H145.033ZM150.386 274.128C149.729 274.128 149.163 273.991 148.685 273.719C148.211 273.443 147.846 273.054 147.59 272.551C147.335 272.045 147.207 271.45 147.207 270.766C147.207 270.092 147.335 269.501 147.59 268.993C147.849 268.482 148.21 268.084 148.673 267.8C149.136 267.513 149.68 267.369 150.305 267.369C150.708 267.369 151.089 267.435 151.447 267.565C151.808 267.693 152.126 267.892 152.401 268.162C152.68 268.432 152.898 268.776 153.058 269.193C153.217 269.608 153.296 270.102 153.296 270.676V271.149H147.931V270.109H151.817C151.815 269.814 151.751 269.551 151.626 269.321C151.501 269.088 151.326 268.905 151.102 268.771C150.88 268.638 150.621 268.571 150.326 268.571C150.011 268.571 149.734 268.648 149.495 268.801C149.256 268.952 149.07 269.151 148.937 269.398C148.806 269.642 148.739 269.911 148.737 270.203V271.111C148.737 271.491 148.806 271.818 148.945 272.091C149.085 272.361 149.279 272.568 149.529 272.713C149.779 272.855 150.072 272.926 150.407 272.926C150.631 272.926 150.835 272.895 151.016 272.832C151.198 272.767 151.356 272.672 151.489 272.547C151.623 272.422 151.724 272.267 151.792 272.082L153.232 272.244C153.141 272.625 152.968 272.957 152.712 273.241C152.46 273.523 152.136 273.741 151.741 273.898C151.346 274.051 150.894 274.128 150.386 274.128ZM156.144 265.273V274H154.601V265.273H156.144ZM160.585 274.128C159.946 274.128 159.392 273.987 158.923 273.706C158.455 273.425 158.091 273.031 157.832 272.526C157.577 272.02 157.449 271.429 157.449 270.753C157.449 270.077 157.577 269.484 157.832 268.976C158.091 268.467 158.455 268.072 158.923 267.791C159.392 267.51 159.946 267.369 160.585 267.369C161.224 267.369 161.778 267.51 162.247 267.791C162.716 268.072 163.078 268.467 163.334 268.976C163.592 269.484 163.722 270.077 163.722 270.753C163.722 271.429 163.592 272.02 163.334 272.526C163.078 273.031 162.716 273.425 162.247 273.706C161.778 273.987 161.224 274.128 160.585 274.128ZM160.594 272.892C160.94 272.892 161.23 272.797 161.463 272.607C161.696 272.413 161.869 272.155 161.983 271.831C162.099 271.507 162.158 271.146 162.158 270.749C162.158 270.348 162.099 269.986 161.983 269.662C161.869 269.335 161.696 269.075 161.463 268.882C161.23 268.689 160.94 268.592 160.594 268.592C160.239 268.592 159.943 268.689 159.707 268.882C159.474 269.075 159.3 269.335 159.183 269.662C159.07 269.986 159.013 270.348 159.013 270.749C159.013 271.146 159.07 271.507 159.183 271.831C159.3 272.155 159.474 272.413 159.707 272.607C159.943 272.797 160.239 272.892 160.594 272.892ZM166.574 265.273V274H165.031V265.273H166.574ZM170.043 274.132C169.629 274.132 169.255 274.058 168.923 273.911C168.593 273.76 168.332 273.538 168.138 273.246C167.948 272.953 167.853 272.592 167.853 272.163C167.853 271.794 167.921 271.489 168.058 271.247C168.194 271.006 168.38 270.812 168.616 270.668C168.852 270.523 169.117 270.413 169.413 270.339C169.711 270.263 170.019 270.207 170.337 270.173C170.721 270.134 171.032 270.098 171.271 270.067C171.509 270.033 171.683 269.982 171.79 269.913C171.901 269.842 171.957 269.733 171.957 269.585V269.56C171.957 269.239 171.862 268.99 171.671 268.814C171.481 268.638 171.207 268.55 170.849 268.55C170.471 268.55 170.171 268.632 169.95 268.797C169.731 268.962 169.583 269.156 169.506 269.381L168.066 269.176C168.18 268.778 168.367 268.446 168.629 268.179C168.89 267.909 169.21 267.707 169.587 267.574C169.965 267.438 170.383 267.369 170.84 267.369C171.156 267.369 171.469 267.406 171.782 267.48C172.094 267.554 172.38 267.676 172.638 267.847C172.897 268.014 173.104 268.243 173.261 268.533C173.42 268.822 173.499 269.185 173.499 269.619V274H172.016V273.101H171.965C171.871 273.283 171.739 273.453 171.569 273.612C171.401 273.768 171.19 273.895 170.934 273.991C170.681 274.085 170.384 274.132 170.043 274.132ZM170.444 272.999C170.754 272.999 171.022 272.937 171.249 272.815C171.477 272.69 171.651 272.526 171.773 272.321C171.898 272.116 171.961 271.893 171.961 271.652V270.881C171.913 270.92 171.83 270.957 171.714 270.991C171.6 271.026 171.472 271.055 171.33 271.081C171.188 271.107 171.048 271.129 170.908 271.149C170.769 271.169 170.648 271.186 170.546 271.2C170.316 271.232 170.11 271.283 169.928 271.354C169.746 271.425 169.603 271.524 169.498 271.652C169.393 271.777 169.34 271.939 169.34 272.138C169.34 272.422 169.444 272.636 169.651 272.781C169.859 272.926 170.123 272.999 170.444 272.999ZM183.2 269.185L181.794 269.338C181.754 269.196 181.685 269.062 181.585 268.938C181.489 268.812 181.358 268.712 181.193 268.635C181.028 268.558 180.827 268.52 180.588 268.52C180.267 268.52 179.997 268.589 179.778 268.729C179.562 268.868 179.456 269.048 179.459 269.27C179.456 269.46 179.526 269.615 179.668 269.734C179.813 269.854 180.051 269.952 180.384 270.028L181.5 270.267C182.119 270.401 182.58 270.612 182.881 270.902C183.185 271.192 183.338 271.571 183.341 272.04C183.338 272.452 183.217 272.815 182.979 273.131C182.743 273.443 182.415 273.687 181.994 273.864C181.574 274.04 181.091 274.128 180.545 274.128C179.744 274.128 179.099 273.96 178.611 273.625C178.122 273.287 177.831 272.817 177.737 272.214L179.241 272.07C179.31 272.365 179.455 272.588 179.676 272.739C179.898 272.889 180.186 272.964 180.541 272.964C180.908 272.964 181.202 272.889 181.423 272.739C181.648 272.588 181.76 272.402 181.76 272.18C181.76 271.993 181.688 271.838 181.543 271.716C181.401 271.594 181.179 271.5 180.878 271.435L179.761 271.2C179.134 271.07 178.669 270.849 178.368 270.54C178.067 270.227 177.918 269.832 177.92 269.355C177.918 268.952 178.027 268.602 178.249 268.307C178.473 268.009 178.784 267.778 179.182 267.616C179.582 267.452 180.044 267.369 180.567 267.369C181.334 267.369 181.938 267.533 182.378 267.859C182.821 268.186 183.095 268.628 183.2 269.185ZM186.496 274.132C186.082 274.132 185.708 274.058 185.376 273.911C185.046 273.76 184.785 273.538 184.592 273.246C184.401 272.953 184.306 272.592 184.306 272.163C184.306 271.794 184.374 271.489 184.511 271.247C184.647 271.006 184.833 270.812 185.069 270.668C185.305 270.523 185.57 270.413 185.866 270.339C186.164 270.263 186.472 270.207 186.79 270.173C187.174 270.134 187.485 270.098 187.724 270.067C187.962 270.033 188.136 269.982 188.244 269.913C188.354 269.842 188.41 269.733 188.41 269.585V269.56C188.41 269.239 188.315 268.99 188.124 268.814C187.934 268.638 187.66 268.55 187.302 268.55C186.924 268.55 186.624 268.632 186.403 268.797C186.184 268.962 186.036 269.156 185.96 269.381L184.519 269.176C184.633 268.778 184.82 268.446 185.082 268.179C185.343 267.909 185.663 267.707 186.04 267.574C186.418 267.438 186.836 267.369 187.293 267.369C187.609 267.369 187.923 267.406 188.235 267.48C188.548 267.554 188.833 267.676 189.092 267.847C189.35 268.014 189.558 268.243 189.714 268.533C189.873 268.822 189.952 269.185 189.952 269.619V274H188.469V273.101H188.418C188.325 273.283 188.192 273.453 188.022 273.612C187.854 273.768 187.643 273.895 187.387 273.991C187.134 274.085 186.837 274.132 186.496 274.132ZM186.897 272.999C187.207 272.999 187.475 272.937 187.702 272.815C187.93 272.69 188.104 272.526 188.227 272.321C188.352 272.116 188.414 271.893 188.414 271.652V270.881C188.366 270.92 188.283 270.957 188.167 270.991C188.053 271.026 187.925 271.055 187.783 271.081C187.641 271.107 187.501 271.129 187.362 271.149C187.222 271.169 187.102 271.186 186.999 271.2C186.769 271.232 186.563 271.283 186.381 271.354C186.2 271.425 186.056 271.524 185.951 271.652C185.846 271.777 185.793 271.939 185.793 272.138C185.793 272.422 185.897 272.636 186.104 272.781C186.312 272.926 186.576 272.999 186.897 272.999ZM191.504 274V267.455H192.978V268.567H193.055C193.191 268.192 193.417 267.899 193.732 267.689C194.048 267.476 194.424 267.369 194.862 267.369C195.305 267.369 195.678 267.477 195.982 267.693C196.289 267.906 196.505 268.197 196.63 268.567H196.698C196.843 268.203 197.087 267.913 197.431 267.697C197.778 267.479 198.188 267.369 198.663 267.369C199.265 267.369 199.756 267.56 200.137 267.94C200.518 268.321 200.708 268.876 200.708 269.607V274H199.161V269.845C199.161 269.439 199.053 269.142 198.837 268.955C198.621 268.764 198.357 268.669 198.045 268.669C197.673 268.669 197.381 268.786 197.171 269.018C196.964 269.249 196.86 269.548 196.86 269.918V274H195.347V269.781C195.347 269.443 195.245 269.173 195.04 268.972C194.839 268.77 194.575 268.669 194.248 268.669C194.026 268.669 193.825 268.726 193.643 268.839C193.461 268.95 193.316 269.108 193.208 269.312C193.1 269.514 193.046 269.75 193.046 270.02V274H191.504ZM202.273 276.455V267.455H203.79V268.537H203.88C203.959 268.378 204.071 268.209 204.216 268.03C204.361 267.848 204.557 267.693 204.804 267.565C205.051 267.435 205.367 267.369 205.75 267.369C206.256 267.369 206.712 267.499 207.118 267.757C207.527 268.013 207.851 268.392 208.09 268.895C208.331 269.395 208.452 270.009 208.452 270.736C208.452 271.455 208.334 272.065 208.098 272.568C207.863 273.071 207.542 273.455 207.135 273.719C206.729 273.983 206.269 274.115 205.755 274.115C205.38 274.115 205.069 274.053 204.821 273.928C204.574 273.803 204.375 273.652 204.225 273.476C204.077 273.297 203.962 273.128 203.88 272.969H203.816V276.455H202.273ZM203.786 270.727C203.786 271.151 203.846 271.521 203.965 271.839C204.087 272.158 204.262 272.406 204.489 272.585C204.719 272.761 204.998 272.849 205.324 272.849C205.665 272.849 205.951 272.759 206.181 272.577C206.411 272.392 206.584 272.141 206.701 271.822C206.82 271.501 206.88 271.136 206.88 270.727C206.88 270.321 206.821 269.96 206.705 269.645C206.588 269.33 206.415 269.082 206.185 268.903C205.955 268.724 205.668 268.635 205.324 268.635C204.995 268.635 204.715 268.722 204.485 268.895C204.255 269.068 204.08 269.311 203.961 269.624C203.844 269.936 203.786 270.304 203.786 270.727ZM211.657 274.132C211.242 274.132 210.868 274.058 210.536 273.911C210.206 273.76 209.945 273.538 209.752 273.246C209.561 272.953 209.466 272.592 209.466 272.163C209.466 271.794 209.534 271.489 209.671 271.247C209.807 271.006 209.993 270.812 210.229 270.668C210.465 270.523 210.73 270.413 211.026 270.339C211.324 270.263 211.632 270.207 211.951 270.173C212.334 270.134 212.645 270.098 212.884 270.067C213.123 270.033 213.296 269.982 213.404 269.913C213.515 269.842 213.57 269.733 213.57 269.585V269.56C213.57 269.239 213.475 268.99 213.284 268.814C213.094 268.638 212.82 268.55 212.462 268.55C212.084 268.55 211.784 268.632 211.563 268.797C211.344 268.962 211.196 269.156 211.12 269.381L209.679 269.176C209.793 268.778 209.98 268.446 210.242 268.179C210.503 267.909 210.823 267.707 211.201 267.574C211.578 267.438 211.996 267.369 212.453 267.369C212.769 267.369 213.083 267.406 213.395 267.48C213.708 267.554 213.993 267.676 214.252 267.847C214.51 268.014 214.718 268.243 214.874 268.533C215.033 268.822 215.113 269.185 215.113 269.619V274H213.63V273.101H213.578C213.485 273.283 213.353 273.453 213.182 273.612C213.015 273.768 212.803 273.895 212.547 273.991C212.294 274.085 211.998 274.132 211.657 274.132ZM212.057 272.999C212.367 272.999 212.635 272.937 212.863 272.815C213.09 272.69 213.265 272.526 213.387 272.321C213.512 272.116 213.574 271.893 213.574 271.652V270.881C213.526 270.92 213.444 270.957 213.327 270.991C213.213 271.026 213.086 271.055 212.944 271.081C212.801 271.107 212.661 271.129 212.522 271.149C212.382 271.169 212.262 271.186 212.159 271.2C211.929 271.232 211.723 271.283 211.542 271.354C211.36 271.425 211.216 271.524 211.111 271.652C211.006 271.777 210.953 271.939 210.953 272.138C210.953 272.422 211.057 272.636 211.265 272.781C211.472 272.926 211.736 272.999 212.057 272.999ZM218.206 270.165V274H216.664V265.273H218.172V268.567H218.249C218.402 268.197 218.64 267.906 218.961 267.693C219.284 267.477 219.696 267.369 220.196 267.369C220.651 267.369 221.047 267.464 221.385 267.655C221.723 267.845 221.985 268.124 222.169 268.49C222.357 268.857 222.451 269.304 222.451 269.832V274H220.908V270.071C220.908 269.631 220.794 269.288 220.567 269.044C220.343 268.797 220.027 268.673 219.621 268.673C219.348 268.673 219.104 268.733 218.888 268.852C218.675 268.969 218.507 269.138 218.385 269.359C218.266 269.581 218.206 269.849 218.206 270.165ZM229.429 274.115C228.914 274.115 228.454 273.983 228.048 273.719C227.642 273.455 227.321 273.071 227.085 272.568C226.849 272.065 226.731 271.455 226.731 270.736C226.731 270.009 226.85 269.395 227.089 268.895C227.331 268.392 227.656 268.013 228.065 267.757C228.474 267.499 228.93 267.369 229.433 267.369C229.816 267.369 230.132 267.435 230.379 267.565C230.626 267.693 230.822 267.848 230.967 268.03C231.112 268.209 231.224 268.378 231.304 268.537H231.368V265.273H232.914V274H231.397V272.969H231.304C231.224 273.128 231.109 273.297 230.958 273.476C230.808 273.652 230.609 273.803 230.362 273.928C230.115 274.053 229.804 274.115 229.429 274.115ZM229.859 272.849C230.186 272.849 230.464 272.761 230.694 272.585C230.924 272.406 231.099 272.158 231.218 271.839C231.338 271.521 231.397 271.151 231.397 270.727C231.397 270.304 231.338 269.936 231.218 269.624C231.102 269.311 230.929 269.068 230.699 268.895C230.471 268.722 230.191 268.635 229.859 268.635C229.515 268.635 229.228 268.724 228.998 268.903C228.768 269.082 228.595 269.33 228.478 269.645C228.362 269.96 228.304 270.321 228.304 270.727C228.304 271.136 228.362 271.501 228.478 271.822C228.598 272.141 228.772 272.392 229.002 272.577C229.235 272.759 229.521 272.849 229.859 272.849ZM236.442 274.132C236.027 274.132 235.653 274.058 235.321 273.911C234.991 273.76 234.73 273.538 234.537 273.246C234.347 272.953 234.251 272.592 234.251 272.163C234.251 271.794 234.32 271.489 234.456 271.247C234.592 271.006 234.778 270.812 235.014 270.668C235.25 270.523 235.516 270.413 235.811 270.339C236.109 270.263 236.418 270.207 236.736 270.173C237.119 270.134 237.43 270.098 237.669 270.067C237.908 270.033 238.081 269.982 238.189 269.913C238.3 269.842 238.355 269.733 238.355 269.585V269.56C238.355 269.239 238.26 268.99 238.07 268.814C237.879 268.638 237.605 268.55 237.247 268.55C236.869 268.55 236.57 268.632 236.348 268.797C236.129 268.962 235.982 269.156 235.905 269.381L234.464 269.176C234.578 268.778 234.766 268.446 235.027 268.179C235.288 267.909 235.608 267.707 235.986 267.574C236.364 267.438 236.781 267.369 237.239 267.369C237.554 267.369 237.868 267.406 238.18 267.48C238.493 267.554 238.778 267.676 239.037 267.847C239.295 268.014 239.503 268.243 239.659 268.533C239.818 268.822 239.898 269.185 239.898 269.619V274H238.415V273.101H238.364C238.27 273.283 238.138 273.453 237.967 273.612C237.8 273.768 237.588 273.895 237.332 273.991C237.08 274.085 236.783 274.132 236.442 274.132ZM236.842 272.999C237.152 272.999 237.42 272.937 237.648 272.815C237.875 272.69 238.05 272.526 238.172 272.321C238.297 272.116 238.359 271.893 238.359 271.652V270.881C238.311 270.92 238.229 270.957 238.112 270.991C237.999 271.026 237.871 271.055 237.729 271.081C237.587 271.107 237.446 271.129 237.307 271.149C237.168 271.169 237.047 271.186 236.945 271.2C236.714 271.232 236.509 271.283 236.327 271.354C236.145 271.425 236.001 271.524 235.896 271.652C235.791 271.777 235.739 271.939 235.739 272.138C235.739 272.422 235.842 272.636 236.05 272.781C236.257 272.926 236.521 272.999 236.842 272.999ZM242.991 270.165V274H241.449V267.455H242.923V268.567H243C243.151 268.2 243.391 267.909 243.72 267.693C244.053 267.477 244.463 267.369 244.952 267.369C245.403 267.369 245.797 267.466 246.132 267.659C246.47 267.852 246.732 268.132 246.916 268.499C247.104 268.865 247.196 269.31 247.193 269.832V274H245.651V270.071C245.651 269.634 245.537 269.291 245.31 269.044C245.085 268.797 244.774 268.673 244.376 268.673C244.107 268.673 243.866 268.733 243.656 268.852C243.449 268.969 243.286 269.138 243.166 269.359C243.05 269.581 242.991 269.849 242.991 270.165ZM102.751 285.455V286.648H98.9877V285.455H102.751ZM99.9167 283.886H101.459V290.031C101.459 290.239 101.491 290.398 101.553 290.509C101.618 290.616 101.704 290.69 101.809 290.73C101.914 290.77 102.03 290.79 102.158 290.79C102.255 290.79 102.343 290.783 102.422 290.768C102.505 290.754 102.567 290.741 102.61 290.73L102.87 291.936C102.787 291.964 102.67 291.996 102.516 292.03C102.366 292.064 102.181 292.084 101.962 292.089C101.576 292.101 101.228 292.043 100.918 291.915C100.608 291.784 100.363 291.582 100.181 291.31C100.002 291.037 99.9139 290.696 99.9167 290.287V283.886ZM104.041 292V285.455H105.583V292H104.041ZM104.816 284.526C104.572 284.526 104.362 284.445 104.186 284.283C104.009 284.118 103.921 283.92 103.921 283.69C103.921 283.457 104.009 283.26 104.186 283.098C104.362 282.933 104.572 282.851 104.816 282.851C105.063 282.851 105.274 282.933 105.447 283.098C105.623 283.26 105.711 283.457 105.711 283.69C105.711 283.92 105.623 284.118 105.447 284.283C105.274 284.445 105.063 284.526 104.816 284.526ZM108.712 288.165V292H107.17V285.455H108.644V286.567H108.721C108.871 286.2 109.111 285.909 109.441 285.693C109.773 285.477 110.184 285.369 110.672 285.369C111.124 285.369 111.518 285.466 111.853 285.659C112.191 285.852 112.452 286.132 112.637 286.499C112.824 286.865 112.917 287.31 112.914 287.832V292H111.371V288.071C111.371 287.634 111.258 287.291 111.03 287.044C110.806 286.797 110.495 286.673 110.097 286.673C109.827 286.673 109.587 286.733 109.377 286.852C109.17 286.969 109.006 287.138 108.887 287.359C108.77 287.581 108.712 287.849 108.712 288.165ZM117.329 294.591C116.775 294.591 116.299 294.516 115.901 294.365C115.503 294.217 115.184 294.018 114.942 293.768C114.701 293.518 114.533 293.241 114.439 292.938L115.829 292.601C115.891 292.729 115.982 292.855 116.101 292.98C116.221 293.108 116.381 293.213 116.583 293.295C116.787 293.381 117.045 293.423 117.354 293.423C117.792 293.423 118.154 293.317 118.441 293.104C118.728 292.893 118.871 292.547 118.871 292.064V290.824H118.795C118.715 290.983 118.599 291.146 118.445 291.314C118.295 291.482 118.094 291.622 117.844 291.736C117.597 291.849 117.286 291.906 116.911 291.906C116.408 291.906 115.952 291.788 115.543 291.553C115.137 291.314 114.813 290.959 114.572 290.487C114.333 290.013 114.214 289.419 114.214 288.706C114.214 287.987 114.333 287.381 114.572 286.886C114.813 286.389 115.138 286.013 115.547 285.757C115.956 285.499 116.412 285.369 116.915 285.369C117.299 285.369 117.614 285.435 117.861 285.565C118.111 285.693 118.31 285.848 118.458 286.03C118.606 286.209 118.718 286.378 118.795 286.537H118.88V285.455H120.401V292.107C120.401 292.666 120.268 293.129 120.001 293.496C119.733 293.862 119.368 294.136 118.905 294.318C118.442 294.5 117.917 294.591 117.329 294.591ZM117.341 290.696C117.668 290.696 117.947 290.616 118.177 290.457C118.407 290.298 118.581 290.07 118.701 289.771C118.82 289.473 118.88 289.115 118.88 288.697C118.88 288.286 118.82 287.925 118.701 287.615C118.584 287.305 118.411 287.065 118.181 286.895C117.954 286.722 117.674 286.635 117.341 286.635C116.998 286.635 116.711 286.724 116.481 286.903C116.251 287.082 116.077 287.328 115.961 287.641C115.844 287.95 115.786 288.303 115.786 288.697C115.786 289.098 115.844 289.449 115.961 289.75C116.08 290.048 116.255 290.281 116.485 290.449C116.718 290.614 117.003 290.696 117.341 290.696ZM123.388 289.946L123.384 288.084H123.631L125.983 285.455H127.786L124.893 288.676H124.573L123.388 289.946ZM121.982 292V283.273H123.525V292H121.982ZM126.09 292L123.959 289.021L124.999 287.935L127.935 292H126.09ZM130.698 292.132C130.283 292.132 129.909 292.058 129.577 291.911C129.247 291.76 128.986 291.538 128.793 291.246C128.602 290.953 128.507 290.592 128.507 290.163C128.507 289.794 128.575 289.489 128.712 289.247C128.848 289.006 129.034 288.812 129.27 288.668C129.506 288.523 129.771 288.413 130.067 288.339C130.365 288.263 130.673 288.207 130.992 288.173C131.375 288.134 131.686 288.098 131.925 288.067C132.164 288.033 132.337 287.982 132.445 287.913C132.556 287.842 132.611 287.733 132.611 287.585V287.56C132.611 287.239 132.516 286.99 132.325 286.814C132.135 286.638 131.861 286.55 131.503 286.55C131.125 286.55 130.825 286.632 130.604 286.797C130.385 286.962 130.237 287.156 130.161 287.381L128.72 287.176C128.834 286.778 129.021 286.446 129.283 286.179C129.544 285.909 129.864 285.707 130.242 285.574C130.619 285.438 131.037 285.369 131.494 285.369C131.81 285.369 132.124 285.406 132.436 285.48C132.749 285.554 133.034 285.676 133.293 285.847C133.551 286.014 133.759 286.243 133.915 286.533C134.074 286.822 134.154 287.185 134.154 287.619V292H132.671V291.101H132.619C132.526 291.283 132.394 291.453 132.223 291.612C132.056 291.768 131.844 291.895 131.588 291.991C131.335 292.085 131.039 292.132 130.698 292.132ZM131.098 290.999C131.408 290.999 131.676 290.937 131.904 290.815C132.131 290.69 132.306 290.526 132.428 290.321C132.553 290.116 132.615 289.893 132.615 289.652V288.881C132.567 288.92 132.485 288.957 132.368 288.991C132.254 289.026 132.127 289.055 131.985 289.081C131.843 289.107 131.702 289.129 131.563 289.149C131.423 289.169 131.303 289.186 131.2 289.2C130.97 289.232 130.764 289.283 130.583 289.354C130.401 289.425 130.257 289.524 130.152 289.652C130.047 289.777 129.994 289.939 129.994 290.138C129.994 290.422 130.098 290.636 130.306 290.781C130.513 290.926 130.777 290.999 131.098 290.999ZM138.973 285.455V286.648H135.21V285.455H138.973ZM136.139 283.886H137.682V290.031C137.682 290.239 137.713 290.398 137.776 290.509C137.841 290.616 137.926 290.69 138.031 290.73C138.137 290.77 138.253 290.79 138.381 290.79C138.477 290.79 138.566 290.783 138.645 290.768C138.727 290.754 138.79 290.741 138.833 290.73L139.093 291.936C139.01 291.964 138.892 291.996 138.739 292.03C138.588 292.064 138.404 292.084 138.185 292.089C137.798 292.101 137.45 292.043 137.141 291.915C136.831 291.784 136.585 291.582 136.404 291.31C136.225 291.037 136.137 290.696 136.139 290.287V283.886ZM141.81 289.946L141.806 288.084H142.053L144.405 285.455H146.208L143.314 288.676H142.995L141.81 289.946ZM140.404 292V283.273H141.947V292H140.404ZM144.512 292L142.381 289.021L143.421 287.935L146.357 292H144.512ZM149.119 292.132C148.705 292.132 148.331 292.058 147.999 291.911C147.669 291.76 147.408 291.538 147.215 291.246C147.024 290.953 146.929 290.592 146.929 290.163C146.929 289.794 146.997 289.489 147.134 289.247C147.27 289.006 147.456 288.812 147.692 288.668C147.928 288.523 148.193 288.413 148.489 288.339C148.787 288.263 149.095 288.207 149.414 288.173C149.797 288.134 150.108 288.098 150.347 288.067C150.585 288.033 150.759 287.982 150.867 287.913C150.977 287.842 151.033 287.733 151.033 287.585V287.56C151.033 287.239 150.938 286.99 150.747 286.814C150.557 286.638 150.283 286.55 149.925 286.55C149.547 286.55 149.247 286.632 149.026 286.797C148.807 286.962 148.659 287.156 148.583 287.381L147.142 287.176C147.256 286.778 147.443 286.446 147.705 286.179C147.966 285.909 148.286 285.707 148.664 285.574C149.041 285.438 149.459 285.369 149.916 285.369C150.232 285.369 150.546 285.406 150.858 285.48C151.171 285.554 151.456 285.676 151.715 285.847C151.973 286.014 152.181 286.243 152.337 286.533C152.496 286.822 152.575 287.185 152.575 287.619V292H151.093V291.101H151.041C150.948 291.283 150.816 291.453 150.645 291.612C150.477 291.768 150.266 291.895 150.01 291.991C149.757 292.085 149.46 292.132 149.119 292.132ZM149.52 290.999C149.83 290.999 150.098 290.937 150.325 290.815C150.553 290.69 150.727 290.526 150.85 290.321C150.975 290.116 151.037 289.893 151.037 289.652V288.881C150.989 288.92 150.906 288.957 150.79 288.991C150.676 289.026 150.548 289.055 150.406 289.081C150.264 289.107 150.124 289.129 149.985 289.149C149.845 289.169 149.725 289.186 149.622 289.2C149.392 289.232 149.186 289.283 149.004 289.354C148.823 289.425 148.679 289.524 148.574 289.652C148.469 289.777 148.416 289.939 148.416 290.138C148.416 290.422 148.52 290.636 148.727 290.781C148.935 290.926 149.199 290.999 149.52 290.999ZM155.669 288.165V292H154.127V285.455H155.601V286.567H155.678C155.828 286.2 156.068 285.909 156.398 285.693C156.73 285.477 157.141 285.369 157.629 285.369C158.081 285.369 158.475 285.466 158.81 285.659C159.148 285.852 159.409 286.132 159.594 286.499C159.781 286.865 159.874 287.31 159.871 287.832V292H158.328V288.071C158.328 287.634 158.215 287.291 157.987 287.044C157.763 286.797 157.452 286.673 157.054 286.673C156.784 286.673 156.544 286.733 156.334 286.852C156.127 286.969 155.963 287.138 155.844 287.359C155.727 287.581 155.669 287.849 155.669 288.165ZM164.416 294.455V285.455H165.933V286.537H166.022C166.102 286.378 166.214 286.209 166.359 286.03C166.504 285.848 166.7 285.693 166.947 285.565C167.194 285.435 167.509 285.369 167.893 285.369C168.399 285.369 168.855 285.499 169.261 285.757C169.67 286.013 169.994 286.392 170.232 286.895C170.474 287.395 170.595 288.009 170.595 288.736C170.595 289.455 170.477 290.065 170.241 290.568C170.005 291.071 169.684 291.455 169.278 291.719C168.872 291.983 168.411 292.115 167.897 292.115C167.522 292.115 167.211 292.053 166.964 291.928C166.717 291.803 166.518 291.652 166.367 291.476C166.22 291.297 166.105 291.128 166.022 290.969H165.958V294.455H164.416ZM165.928 288.727C165.928 289.151 165.988 289.521 166.107 289.839C166.23 290.158 166.404 290.406 166.632 290.585C166.862 290.761 167.14 290.849 167.467 290.849C167.808 290.849 168.093 290.759 168.323 290.577C168.553 290.392 168.727 290.141 168.843 289.822C168.963 289.501 169.022 289.136 169.022 288.727C169.022 288.321 168.964 287.96 168.847 287.645C168.731 287.33 168.558 287.082 168.328 286.903C168.097 286.724 167.811 286.635 167.467 286.635C167.137 286.635 166.857 286.722 166.627 286.895C166.397 287.068 166.222 287.311 166.103 287.624C165.987 287.936 165.928 288.304 165.928 288.727ZM174.771 292.128C174.132 292.128 173.578 291.987 173.109 291.706C172.64 291.425 172.276 291.031 172.018 290.526C171.762 290.02 171.634 289.429 171.634 288.753C171.634 288.077 171.762 287.484 172.018 286.976C172.276 286.467 172.64 286.072 173.109 285.791C173.578 285.51 174.132 285.369 174.771 285.369C175.41 285.369 175.964 285.51 176.433 285.791C176.901 286.072 177.264 286.467 177.519 286.976C177.778 287.484 177.907 288.077 177.907 288.753C177.907 289.429 177.778 290.02 177.519 290.526C177.264 291.031 176.901 291.425 176.433 291.706C175.964 291.987 175.41 292.128 174.771 292.128ZM174.779 290.892C175.126 290.892 175.416 290.797 175.649 290.607C175.882 290.413 176.055 290.155 176.169 289.831C176.285 289.507 176.343 289.146 176.343 288.749C176.343 288.348 176.285 287.986 176.169 287.662C176.055 287.335 175.882 287.075 175.649 286.882C175.416 286.689 175.126 286.592 174.779 286.592C174.424 286.592 174.129 286.689 173.893 286.882C173.66 287.075 173.485 287.335 173.369 287.662C173.255 287.986 173.198 288.348 173.198 288.749C173.198 289.146 173.255 289.507 173.369 289.831C173.485 290.155 173.66 290.413 173.893 290.607C174.129 290.797 174.424 290.892 174.779 290.892ZM180.759 288.165V292H179.216V283.273H180.725V286.567H180.802C180.955 286.197 181.192 285.906 181.513 285.693C181.837 285.477 182.249 285.369 182.749 285.369C183.204 285.369 183.6 285.464 183.938 285.655C184.276 285.845 184.537 286.124 184.722 286.49C184.91 286.857 185.003 287.304 185.003 287.832V292H183.461V288.071C183.461 287.631 183.347 287.288 183.12 287.044C182.895 286.797 182.58 286.673 182.174 286.673C181.901 286.673 181.657 286.733 181.441 286.852C181.228 286.969 181.06 287.138 180.938 287.359C180.819 287.581 180.759 287.849 180.759 288.165ZM189.431 292.128C188.792 292.128 188.238 291.987 187.769 291.706C187.3 291.425 186.937 291.031 186.678 290.526C186.422 290.02 186.295 289.429 186.295 288.753C186.295 288.077 186.422 287.484 186.678 286.976C186.937 286.467 187.3 286.072 187.769 285.791C188.238 285.51 188.792 285.369 189.431 285.369C190.07 285.369 190.624 285.51 191.093 285.791C191.562 286.072 191.924 286.467 192.18 286.976C192.438 287.484 192.567 288.077 192.567 288.753C192.567 289.429 192.438 290.02 192.18 290.526C191.924 291.031 191.562 291.425 191.093 291.706C190.624 291.987 190.07 292.128 189.431 292.128ZM189.439 290.892C189.786 290.892 190.076 290.797 190.309 290.607C190.542 290.413 190.715 290.155 190.829 289.831C190.945 289.507 191.003 289.146 191.003 288.749C191.003 288.348 190.945 287.986 190.829 287.662C190.715 287.335 190.542 287.075 190.309 286.882C190.076 286.689 189.786 286.592 189.439 286.592C189.084 286.592 188.789 286.689 188.553 286.882C188.32 287.075 188.145 287.335 188.029 287.662C187.915 287.986 187.858 288.348 187.858 288.749C187.858 289.146 187.915 289.507 188.029 289.831C188.145 290.155 188.32 290.413 188.553 290.607C188.789 290.797 189.084 290.892 189.439 290.892ZM195.419 288.165V292H193.877V285.455H195.351V286.567H195.428C195.578 286.2 195.818 285.909 196.148 285.693C196.48 285.477 196.891 285.369 197.379 285.369C197.831 285.369 198.225 285.466 198.56 285.659C198.898 285.852 199.159 286.132 199.344 286.499C199.531 286.865 199.624 287.31 199.621 287.832V292H198.078V288.071C198.078 287.634 197.965 287.291 197.737 287.044C197.513 286.797 197.202 286.673 196.804 286.673C196.534 286.673 196.294 286.733 196.084 286.852C195.877 286.969 195.713 287.138 195.594 287.359C195.477 287.581 195.419 287.849 195.419 288.165ZM205.708 283.273V292H204.166V283.273H205.708ZM210.192 292.128C209.536 292.128 208.969 291.991 208.492 291.719C208.018 291.443 207.653 291.054 207.397 290.551C207.141 290.045 207.013 289.45 207.013 288.766C207.013 288.092 207.141 287.501 207.397 286.993C207.655 286.482 208.016 286.084 208.479 285.8C208.942 285.513 209.486 285.369 210.111 285.369C210.515 285.369 210.895 285.435 211.253 285.565C211.614 285.693 211.932 285.892 212.208 286.162C212.486 286.432 212.705 286.776 212.864 287.193C213.023 287.608 213.103 288.102 213.103 288.676V289.149H207.738V288.109H211.624C211.621 287.814 211.557 287.551 211.432 287.321C211.307 287.088 211.133 286.905 210.908 286.771C210.687 286.638 210.428 286.571 210.133 286.571C209.817 286.571 209.54 286.648 209.302 286.801C209.063 286.952 208.877 287.151 208.743 287.398C208.613 287.642 208.546 287.911 208.543 288.203V289.111C208.543 289.491 208.613 289.818 208.752 290.091C208.891 290.361 209.086 290.568 209.336 290.713C209.586 290.855 209.878 290.926 210.214 290.926C210.438 290.926 210.641 290.895 210.823 290.832C211.005 290.767 211.162 290.672 211.296 290.547C211.43 290.422 211.53 290.267 211.599 290.082L213.039 290.244C212.948 290.625 212.775 290.957 212.519 291.241C212.266 291.523 211.942 291.741 211.547 291.898C211.153 292.051 210.701 292.128 210.192 292.128ZM219.581 287.185L218.175 287.338C218.135 287.196 218.066 287.062 217.966 286.938C217.869 286.812 217.739 286.712 217.574 286.635C217.409 286.558 217.208 286.52 216.969 286.52C216.648 286.52 216.378 286.589 216.159 286.729C215.943 286.868 215.837 287.048 215.84 287.27C215.837 287.46 215.906 287.615 216.048 287.734C216.193 287.854 216.432 287.952 216.764 288.028L217.881 288.267C218.5 288.401 218.96 288.612 219.262 288.902C219.566 289.192 219.719 289.571 219.722 290.04C219.719 290.452 219.598 290.815 219.36 291.131C219.124 291.443 218.796 291.687 218.375 291.864C217.955 292.04 217.472 292.128 216.926 292.128C216.125 292.128 215.48 291.96 214.992 291.625C214.503 291.287 214.212 290.817 214.118 290.214L215.622 290.07C215.691 290.365 215.835 290.588 216.057 290.739C216.279 290.889 216.567 290.964 216.922 290.964C217.289 290.964 217.583 290.889 217.804 290.739C218.029 290.588 218.141 290.402 218.141 290.18C218.141 289.993 218.068 289.838 217.923 289.716C217.781 289.594 217.56 289.5 217.259 289.435L216.142 289.2C215.514 289.07 215.05 288.849 214.749 288.54C214.448 288.227 214.298 287.832 214.301 287.355C214.298 286.952 214.408 286.602 214.629 286.307C214.854 286.009 215.165 285.778 215.563 285.616C215.963 285.452 216.425 285.369 216.948 285.369C217.715 285.369 218.318 285.533 218.759 285.859C219.202 286.186 219.476 286.628 219.581 287.185ZM224.262 285.455V286.648H220.499V285.455H224.262ZM221.428 283.886H222.971V290.031C222.971 290.239 223.002 290.398 223.065 290.509C223.13 290.616 223.215 290.69 223.32 290.73C223.426 290.77 223.542 290.79 223.67 290.79C223.767 290.79 223.855 290.783 223.934 290.768C224.017 290.754 224.079 290.741 224.122 290.73L224.382 291.936C224.299 291.964 224.181 291.996 224.028 292.03C223.877 292.064 223.693 292.084 223.474 292.089C223.088 292.101 222.74 292.043 222.43 291.915C222.12 291.784 221.874 291.582 221.693 291.31C221.514 291.037 221.426 290.696 221.428 290.287V283.886ZM227.436 292.132C227.021 292.132 226.648 292.058 226.315 291.911C225.986 291.76 225.724 291.538 225.531 291.246C225.341 290.953 225.246 290.592 225.246 290.163C225.246 289.794 225.314 289.489 225.45 289.247C225.586 289.006 225.773 288.812 226.008 288.668C226.244 288.523 226.51 288.413 226.805 288.339C227.104 288.263 227.412 288.207 227.73 288.173C228.113 288.134 228.425 288.098 228.663 288.067C228.902 288.033 229.075 287.982 229.183 287.913C229.294 287.842 229.349 287.733 229.349 287.585V287.56C229.349 287.239 229.254 286.99 229.064 286.814C228.873 286.638 228.599 286.55 228.241 286.55C227.863 286.55 227.564 286.632 227.342 286.797C227.123 286.962 226.976 287.156 226.899 287.381L225.459 287.176C225.572 286.778 225.76 286.446 226.021 286.179C226.282 285.909 226.602 285.707 226.98 285.574C227.358 285.438 227.775 285.369 228.233 285.369C228.548 285.369 228.862 285.406 229.175 285.48C229.487 285.554 229.773 285.676 230.031 285.847C230.29 286.014 230.497 286.243 230.653 286.533C230.812 286.822 230.892 287.185 230.892 287.619V292H229.409V291.101H229.358C229.264 291.283 229.132 291.453 228.961 291.612C228.794 291.768 228.582 291.895 228.327 291.991C228.074 292.085 227.777 292.132 227.436 292.132ZM227.836 290.999C228.146 290.999 228.415 290.937 228.642 290.815C228.869 290.69 229.044 290.526 229.166 290.321C229.291 290.116 229.354 289.893 229.354 289.652V288.881C229.305 288.92 229.223 288.957 229.106 288.991C228.993 289.026 228.865 289.055 228.723 289.081C228.581 289.107 228.44 289.129 228.301 289.149C228.162 289.169 228.041 289.186 227.939 289.2C227.709 289.232 227.503 289.283 227.321 289.354C227.139 289.425 226.996 289.524 226.89 289.652C226.785 289.777 226.733 289.939 226.733 290.138C226.733 290.422 226.836 290.636 227.044 290.781C227.251 290.926 227.515 290.999 227.836 290.999ZM232.443 292V285.455H233.939V286.545H234.007C234.126 286.168 234.331 285.876 234.621 285.672C234.913 285.464 235.247 285.361 235.622 285.361C235.707 285.361 235.802 285.365 235.907 285.374C236.015 285.379 236.105 285.389 236.176 285.403V286.822C236.111 286.8 236.007 286.78 235.865 286.763C235.726 286.743 235.591 286.733 235.46 286.733C235.179 286.733 234.926 286.794 234.702 286.916C234.48 287.036 234.305 287.202 234.177 287.415C234.05 287.628 233.986 287.874 233.986 288.152V292H232.443ZM237.201 292V285.455H238.743V292H237.201ZM237.976 284.526C237.732 284.526 237.522 284.445 237.346 284.283C237.17 284.118 237.081 283.92 237.081 283.69C237.081 283.457 237.17 283.26 237.346 283.098C237.522 282.933 237.732 282.851 237.976 282.851C238.224 282.851 238.434 282.933 238.607 283.098C238.783 283.26 238.871 283.457 238.871 283.69C238.871 283.92 238.783 284.118 238.607 284.283C238.434 284.445 238.224 284.526 237.976 284.526ZM240.33 292V285.455H241.804V286.567H241.881C242.017 286.192 242.243 285.899 242.558 285.689C242.874 285.476 243.25 285.369 243.688 285.369C244.131 285.369 244.504 285.477 244.808 285.693C245.115 285.906 245.331 286.197 245.456 286.567H245.524C245.669 286.203 245.914 285.913 246.257 285.697C246.604 285.479 247.014 285.369 247.489 285.369C248.091 285.369 248.583 285.56 248.963 285.94C249.344 286.321 249.534 286.876 249.534 287.607V292H247.987V287.845C247.987 287.439 247.879 287.142 247.664 286.955C247.448 286.764 247.183 286.669 246.871 286.669C246.499 286.669 246.208 286.786 245.997 287.018C245.79 287.249 245.686 287.548 245.686 287.918V292H244.173V287.781C244.173 287.443 244.071 287.173 243.867 286.972C243.665 286.77 243.401 286.669 243.074 286.669C242.852 286.669 242.651 286.726 242.469 286.839C242.287 286.95 242.142 287.108 242.034 287.312C241.926 287.514 241.872 287.75 241.872 288.02V292H240.33ZM255.271 289.247V285.455H256.814V292H255.318V290.837H255.25C255.102 291.203 254.859 291.503 254.521 291.736C254.186 291.969 253.773 292.085 253.281 292.085C252.852 292.085 252.473 291.99 252.143 291.8C251.817 291.607 251.561 291.327 251.376 290.96C251.192 290.591 251.099 290.145 251.099 289.622V285.455H252.642V289.384C252.642 289.798 252.756 290.128 252.983 290.372C253.21 290.616 253.508 290.739 253.878 290.739C254.105 290.739 254.325 290.683 254.538 290.572C254.751 290.462 254.926 290.297 255.062 290.078C255.202 289.857 255.271 289.58 255.271 289.247ZM260.288 283.273L260.147 289.435H258.775L258.639 283.273H260.288ZM259.461 292.094C259.203 292.094 258.981 292.003 258.796 291.821C258.615 291.639 258.524 291.418 258.524 291.156C258.524 290.901 258.615 290.682 258.796 290.5C258.981 290.318 259.203 290.227 259.461 290.227C259.714 290.227 259.933 290.318 260.117 290.5C260.305 290.682 260.399 290.901 260.399 291.156C260.399 291.33 260.355 291.487 260.267 291.629C260.181 291.771 260.068 291.885 259.926 291.97C259.786 292.053 259.632 292.094 259.461 292.094Z" fill="#344054"/>
<path d="M186.071 302.485C186.962 302.485 187.408 303.562 186.778 304.192L180.707 310.263C180.317 310.654 179.683 310.654 179.293 310.263L173.222 304.192C172.592 303.562 173.038 302.485 173.929 302.485L186.071 302.485Z" fill="white"/>
</g>
</g>
<defs>
<filter id="filter0_dd_8017_22213" x="59" y="253" width="242" height="82" filterUnits="userSpaceOnUse" color-interpolation-filters="sRGB">
<feFlood flood-opacity="0" result="BackgroundImageFix"/>
<feColorMatrix in="SourceAlpha" type="matrix" values="0 0 0 0 0 0 0 0 0 0 0 0 0 0 0 0 0 0 127 0" result="hardAlpha"/>
<feMorphology radius="2" operator="erode" in="SourceAlpha" result="effect1_dropShadow_8017_22213"/>
<feOffset dy="4"/>
<feGaussianBlur stdDeviation="3"/>
<feColorMatrix type="matrix" values="0 0 0 0 0.0627451 0 0 0 0 0.0941176 0 0 0 0 0.156863 0 0 0 0.03 0"/>
<feBlend mode="normal" in2="BackgroundImageFix" result="effect1_dropShadow_8017_22213"/>
<feColorMatrix in="SourceAlpha" type="matrix" values="0 0 0 0 0 0 0 0 0 0 0 0 0 0 0 0 0 0 127 0" result="hardAlpha"/>
<feMorphology radius="4" operator="erode" in="SourceAlpha" result="effect2_dropShadow_8017_22213"/>
<feOffset dy="12"/>
<feGaussianBlur stdDeviation="8"/>
<feColorMatrix type="matrix" values="0 0 0 0 0.0627451 0 0 0 0 0.0941176 0 0 0 0 0.156863 0 0 0 0.08 0"/>
<feBlend mode="normal" in2="effect1_dropShadow_8017_22213" result="effect2_dropShadow_8017_22213"/>
<feBlend mode="normal" in="SourceGraphic" in2="effect2_dropShadow_8017_22213" result="shape"/>
</filter>
<radialGradient id="paint0_radial_8017_22213" cx="0" cy="0" r="1" gradientUnits="userSpaceOnUse" gradientTransform="translate(916.61 171.455) rotate(60) scale(1080.63 1049.59)">
<stop stop-color="white"/>
<stop offset="1" stop-color="#231F20"/>
</radialGradient>
<clipPath id="clip0_8017_22213">
<path d="M0 0H360V408C360 414.627 354.627 420 348 420H12C5.37259 420 0 414.627 0 408V0Z" fill="white"/>
</clipPath>
</defs>
</svg>
